G04 (created by PCBNEW (2013-mar-13)-testing) date wto, 15 kwi 2014, 21:51:24*
%MOIN*%
G04 Gerber Fmt 3.4, Leading zero omitted, Abs format*
%FSLAX34Y34*%
G01*
G70*
G90*
G04 APERTURE LIST*
%ADD10C,0.005906*%
%ADD11O,0.098400X0.059100*%
%ADD12C,0.060000*%
%ADD13C,0.106300*%
%ADD14R,0.060000X0.060000*%
%ADD15O,0.118110X0.078740*%
%ADD16C,0.160000*%
%ADD17C,0.056000*%
%ADD18O,0.059000X0.098400*%
%ADD19O,0.060000X0.098400*%
%ADD20O,0.100000X0.080000*%
%ADD21O,0.082677X0.082677*%
%ADD22C,0.082677*%
%ADD23C,0.098400*%
%ADD24R,0.118110X0.118110*%
%ADD25O,0.078740X0.118110*%
%ADD26R,0.098425X0.118110*%
%ADD27C,0.035000*%
%ADD28C,0.030000*%
%ADD29C,0.010000*%
%ADD30C,0.078740*%
%ADD31C,0.012000*%
%ADD32C,0.080000*%
%ADD33C,0.016000*%
%ADD34C,0.118110*%
%ADD35C,0.059055*%
%ADD36C,0.019685*%
G04 APERTURE END LIST*
G54D10*
G54D11*
X6905Y-29559D03*
X6905Y-30559D03*
X6905Y-28559D03*
X6905Y-24059D03*
X6905Y-25059D03*
X6905Y-23059D03*
X6905Y-18559D03*
X6905Y-19559D03*
X6905Y-17559D03*
G54D12*
X7905Y-35946D03*
X6905Y-35946D03*
X6905Y-36733D03*
X7905Y-36733D03*
G54D13*
X9767Y-37796D03*
X5043Y-37796D03*
G54D14*
X11461Y-7059D03*
G54D12*
X10461Y-7059D03*
X9461Y-7059D03*
X8461Y-7059D03*
X7461Y-7059D03*
X6461Y-7059D03*
G54D14*
X5461Y-7059D03*
G54D12*
X4461Y-7059D03*
X4461Y-12059D03*
X5461Y-12059D03*
X6461Y-12059D03*
X7461Y-12059D03*
X8461Y-12059D03*
X9461Y-12059D03*
X10461Y-12059D03*
X11461Y-12059D03*
G54D15*
X2705Y-16343D03*
X2705Y-14374D03*
X2705Y-18374D03*
X2705Y-20343D03*
X2705Y-26374D03*
X2705Y-28343D03*
X2705Y-30374D03*
X2705Y-32343D03*
X37155Y-18574D03*
X37155Y-20543D03*
G54D14*
X38205Y-31659D03*
G54D12*
X38205Y-30659D03*
X38205Y-29659D03*
G54D14*
X6355Y-34046D03*
G54D12*
X7355Y-34046D03*
X8355Y-34046D03*
X9355Y-34046D03*
X10355Y-34046D03*
G54D14*
X17405Y-36796D03*
G54D12*
X17405Y-37796D03*
X16405Y-36796D03*
X16405Y-37796D03*
X15405Y-36796D03*
X15405Y-37796D03*
X14405Y-36796D03*
X14405Y-37796D03*
X13405Y-36796D03*
X13405Y-37796D03*
G54D16*
X1574Y-1574D03*
X37795Y-1574D03*
X1574Y-37795D03*
X37905Y-37796D03*
G54D17*
X24698Y-28766D03*
X26112Y-27351D03*
G54D18*
X36770Y-25489D03*
G54D19*
X38540Y-25489D03*
G54D18*
X36770Y-23129D03*
X38540Y-23129D03*
G54D14*
X36052Y-7059D03*
G54D12*
X35052Y-7059D03*
X34052Y-7059D03*
X33052Y-7059D03*
X32052Y-7059D03*
X31052Y-7059D03*
G54D14*
X30052Y-7059D03*
G54D12*
X29052Y-7059D03*
X29052Y-12059D03*
X30052Y-12059D03*
X31052Y-12059D03*
X32052Y-12059D03*
X33052Y-12059D03*
X34052Y-12059D03*
X35052Y-12059D03*
X36052Y-12059D03*
G54D14*
X19658Y-7059D03*
G54D12*
X18658Y-7059D03*
X17658Y-7059D03*
X16658Y-7059D03*
X15658Y-7059D03*
X14658Y-7059D03*
G54D14*
X13658Y-7059D03*
G54D12*
X12658Y-7059D03*
X12658Y-12059D03*
X13658Y-12059D03*
X14658Y-12059D03*
X15658Y-12059D03*
X16658Y-12059D03*
X17658Y-12059D03*
X18658Y-12059D03*
X19658Y-12059D03*
G54D14*
X27855Y-7059D03*
G54D12*
X26855Y-7059D03*
X25855Y-7059D03*
X24855Y-7059D03*
X23855Y-7059D03*
X22855Y-7059D03*
G54D14*
X21855Y-7059D03*
G54D12*
X20855Y-7059D03*
X20855Y-12059D03*
X21855Y-12059D03*
X22855Y-12059D03*
X23855Y-12059D03*
X24855Y-12059D03*
X25855Y-12059D03*
X26855Y-12059D03*
X27855Y-12059D03*
G54D20*
X33205Y-19659D03*
X33205Y-20659D03*
X33205Y-18659D03*
G54D15*
X2705Y-24343D03*
X2705Y-22374D03*
G54D14*
X37405Y-27059D03*
G54D12*
X38405Y-27059D03*
G54D21*
X29805Y-10959D03*
G54D22*
X28805Y-10959D03*
G54D21*
X13805Y-10959D03*
G54D22*
X12805Y-10959D03*
G54D21*
X21805Y-10959D03*
G54D22*
X20805Y-10959D03*
G54D21*
X30805Y-10959D03*
G54D22*
X31805Y-10959D03*
G54D21*
X14805Y-10959D03*
G54D22*
X15805Y-10959D03*
G54D21*
X22805Y-10959D03*
G54D22*
X23805Y-10959D03*
G54D21*
X6805Y-10959D03*
G54D22*
X7805Y-10959D03*
G54D21*
X8805Y-10959D03*
G54D22*
X9805Y-10959D03*
G54D21*
X32805Y-10959D03*
G54D22*
X33805Y-10959D03*
G54D21*
X16805Y-10959D03*
G54D22*
X17805Y-10959D03*
G54D21*
X24805Y-10959D03*
G54D22*
X25805Y-10959D03*
G54D21*
X5805Y-10959D03*
G54D22*
X4805Y-10959D03*
G54D14*
X17405Y-17359D03*
G54D12*
X16405Y-17359D03*
X15405Y-17359D03*
X14405Y-17359D03*
X13405Y-17359D03*
G54D14*
X30905Y-23559D03*
G54D12*
X31905Y-23559D03*
X30905Y-24559D03*
X31905Y-24559D03*
X30905Y-25559D03*
X31905Y-25559D03*
X30905Y-26559D03*
X31905Y-26559D03*
X30905Y-27559D03*
X31905Y-27559D03*
X30905Y-28559D03*
X31905Y-28559D03*
X30905Y-29559D03*
X31905Y-29559D03*
X30905Y-30559D03*
X31905Y-30559D03*
G54D23*
X36371Y-34046D03*
X38339Y-33062D03*
X38339Y-35030D03*
G54D14*
X29855Y-19496D03*
G54D12*
X29855Y-20496D03*
X28855Y-19496D03*
X28855Y-20496D03*
X27855Y-19496D03*
X27855Y-20496D03*
X26855Y-19496D03*
X26855Y-20496D03*
G54D24*
X29448Y-1574D03*
G54D25*
X30826Y-1574D03*
X32204Y-1574D03*
X33582Y-1574D03*
X34960Y-1574D03*
G54D24*
X21456Y-1574D03*
G54D25*
X22834Y-1574D03*
X24212Y-1574D03*
X25590Y-1574D03*
X26968Y-1574D03*
G54D24*
X13385Y-1574D03*
G54D25*
X14763Y-1574D03*
X16141Y-1574D03*
X17519Y-1574D03*
X18897Y-1574D03*
G54D24*
X5275Y-1574D03*
G54D25*
X6653Y-1574D03*
X8031Y-1574D03*
X9409Y-1574D03*
X10787Y-1574D03*
G54D26*
X35554Y-37159D03*
G54D25*
X34176Y-37159D03*
G54D26*
X30054Y-37159D03*
G54D25*
X28676Y-37159D03*
G54D26*
X24534Y-37159D03*
G54D25*
X23156Y-37159D03*
G54D26*
X21794Y-37159D03*
G54D25*
X20416Y-37159D03*
G54D26*
X32794Y-37159D03*
G54D25*
X31416Y-37159D03*
G54D26*
X27294Y-37159D03*
G54D25*
X25916Y-37159D03*
G54D14*
X38105Y-11496D03*
G54D12*
X38105Y-12496D03*
X38105Y-13496D03*
G54D27*
X18905Y-34096D03*
X18205Y-19659D03*
X25305Y-34146D03*
X18605Y-19959D03*
X20205Y-28959D03*
X26405Y-23109D03*
X16095Y-29036D03*
X3405Y-35246D03*
X11655Y-35896D03*
X28255Y-23496D03*
X28605Y-17821D03*
X11105Y-29196D03*
X16105Y-28359D03*
X12305Y-26846D03*
X12305Y-23596D03*
X34155Y-34746D03*
X34155Y-33696D03*
X31505Y-33646D03*
X31405Y-34696D03*
X28905Y-34996D03*
X28505Y-33546D03*
X26555Y-33546D03*
X6005Y-32546D03*
X8355Y-31546D03*
X14155Y-31446D03*
X25705Y-34996D03*
X21555Y-35246D03*
X12855Y-14459D03*
X28705Y-15009D03*
X27355Y-10909D03*
X19405Y-11009D03*
X11455Y-10959D03*
X18255Y-28659D03*
X21055Y-30209D03*
X21455Y-30209D03*
X24405Y-30359D03*
X16405Y-15159D03*
X20505Y-17559D03*
X21705Y-17559D03*
X21705Y-16259D03*
X20505Y-16259D03*
X28005Y-29259D03*
X35305Y-23359D03*
X35305Y-24859D03*
X33605Y-31059D03*
X35405Y-29459D03*
X32605Y-31359D03*
X11805Y-22359D03*
X30305Y-14559D03*
X22305Y-14459D03*
X14405Y-14459D03*
X11405Y-14459D03*
X14705Y-21159D03*
X13905Y-20659D03*
G54D28*
X21905Y-26059D03*
X22905Y-25059D03*
X23905Y-24059D03*
X22905Y-23059D03*
X21905Y-24059D03*
X19905Y-24059D03*
X20905Y-23059D03*
X19905Y-22059D03*
X21905Y-22059D03*
X20905Y-21059D03*
X20905Y-25059D03*
X19905Y-26059D03*
X18905Y-25059D03*
X20905Y-27059D03*
G54D27*
X11155Y-18446D03*
X10205Y-16459D03*
X24405Y-21459D03*
X14055Y-19959D03*
X24705Y-21059D03*
X14105Y-19459D03*
X17605Y-30059D03*
X16905Y-32259D03*
X33505Y-32559D03*
X16605Y-29859D03*
X16705Y-31859D03*
X24655Y-20009D03*
X27755Y-16209D03*
X21905Y-19559D03*
X23505Y-20959D03*
X29705Y-27859D03*
X29605Y-27259D03*
X29605Y-26659D03*
X28755Y-25946D03*
X28755Y-25396D03*
X18655Y-28309D03*
X25905Y-23459D03*
X26905Y-22859D03*
X21905Y-29459D03*
X12655Y-15759D03*
X12605Y-17159D03*
X15705Y-20159D03*
X25605Y-24059D03*
X24705Y-20509D03*
X13805Y-19059D03*
X20905Y-30659D03*
X19305Y-30659D03*
X36505Y-28359D03*
X17105Y-29859D03*
X16805Y-30959D03*
X14155Y-23896D03*
X15105Y-20759D03*
X15805Y-33459D03*
X35505Y-27059D03*
X26005Y-31259D03*
X19205Y-31659D03*
X11505Y-16559D03*
X18305Y-17659D03*
X17005Y-22759D03*
X19205Y-20259D03*
X35505Y-26359D03*
X35705Y-28259D03*
X34305Y-32146D03*
G54D29*
X18405Y-32196D02*
X18405Y-33596D01*
X18405Y-33596D02*
X18905Y-34096D01*
X18405Y-30459D02*
X18405Y-30359D01*
X16705Y-28659D02*
X16705Y-28259D01*
X18405Y-30359D02*
X16705Y-28659D01*
X16205Y-21959D02*
X16205Y-27059D01*
X18005Y-20159D02*
X16405Y-21759D01*
X18205Y-19659D02*
X18005Y-19859D01*
X18005Y-19859D02*
X18005Y-20159D01*
X16405Y-21759D02*
X16205Y-21959D01*
X16205Y-27059D02*
X16705Y-27559D01*
X16705Y-27559D02*
X16705Y-28259D01*
X18405Y-32196D02*
X18405Y-30459D01*
X18605Y-31696D02*
X18605Y-33196D01*
X19555Y-34146D02*
X25305Y-34146D01*
X18605Y-33196D02*
X19555Y-34146D01*
X18605Y-31496D02*
X18605Y-31696D01*
X18605Y-30409D02*
X18605Y-30259D01*
X16455Y-27009D02*
X16455Y-22709D01*
X16905Y-27459D02*
X16455Y-27009D01*
X16905Y-28559D02*
X16905Y-27459D01*
X18605Y-30259D02*
X16905Y-28559D01*
X16455Y-22009D02*
X16455Y-22709D01*
X16455Y-22009D02*
X17755Y-20709D01*
X18305Y-20159D02*
X18405Y-20159D01*
X18405Y-20159D02*
X18605Y-19959D01*
X17755Y-20709D02*
X18305Y-20159D01*
X18605Y-30409D02*
X18605Y-31496D01*
X20205Y-27909D02*
X20205Y-28959D01*
X20475Y-27639D02*
X20205Y-27909D01*
X21525Y-27639D02*
X20475Y-27639D01*
X24605Y-24559D02*
X21525Y-27639D01*
X25205Y-24559D02*
X24605Y-24559D01*
X25355Y-24709D02*
X25205Y-24559D01*
X25805Y-24709D02*
X25355Y-24709D01*
X26555Y-23959D02*
X25805Y-24709D01*
X26555Y-23259D02*
X26555Y-23959D01*
X26405Y-23109D02*
X26555Y-23259D01*
G54D30*
X13658Y-7059D02*
X13658Y-3149D01*
X13658Y-3149D02*
X13385Y-2876D01*
X13385Y-2876D02*
X13385Y-1574D01*
X5461Y-7059D02*
X5461Y-2652D01*
X5461Y-2652D02*
X5275Y-2466D01*
X5275Y-2466D02*
X5275Y-1574D01*
X36052Y-7059D02*
X37142Y-7059D01*
X37142Y-7059D02*
X37795Y-6406D01*
X37795Y-6406D02*
X37795Y-1574D01*
X30052Y-7059D02*
X30052Y-4242D01*
X30052Y-4242D02*
X29448Y-3639D01*
X29448Y-3639D02*
X29448Y-1574D01*
G54D29*
X20237Y-12627D02*
X20237Y-11427D01*
X20237Y-11427D02*
X19818Y-11009D01*
X19818Y-11009D02*
X19405Y-11009D01*
X12355Y-13446D02*
X12355Y-12696D01*
X12355Y-12696D02*
X12055Y-12396D01*
X12055Y-12396D02*
X12055Y-11559D01*
X12055Y-11559D02*
X11455Y-10959D01*
G54D31*
X16105Y-28359D02*
X16105Y-29026D01*
X16105Y-29026D02*
X16095Y-29036D01*
X3405Y-34796D02*
X3255Y-34646D01*
X3405Y-35246D02*
X3405Y-34796D01*
X9767Y-37796D02*
X11655Y-35908D01*
X11655Y-35908D02*
X11655Y-35896D01*
G54D32*
X5275Y-1574D02*
X1574Y-1574D01*
X21855Y-7059D02*
X21855Y-4246D01*
X21456Y-3847D02*
X21456Y-1574D01*
X21855Y-4246D02*
X21456Y-3847D01*
G54D29*
X29630Y-24059D02*
X29443Y-24059D01*
X29443Y-24059D02*
X28255Y-23496D01*
X33205Y-19659D02*
X31868Y-19659D01*
X30030Y-17821D02*
X28605Y-17821D01*
X31868Y-19659D02*
X30030Y-17821D01*
X11105Y-30696D02*
X11105Y-29196D01*
X9805Y-31996D02*
X11105Y-30696D01*
X8805Y-31996D02*
X9805Y-31996D01*
X8355Y-31546D02*
X8805Y-31996D01*
X11155Y-18446D02*
X11155Y-16796D01*
X10818Y-16459D02*
X10205Y-16459D01*
X11155Y-16796D02*
X10818Y-16459D01*
X11805Y-22359D02*
X11805Y-23096D01*
X11205Y-29196D02*
X11105Y-29196D01*
X12305Y-28096D02*
X11205Y-29196D01*
X12305Y-26846D02*
X12305Y-28096D01*
X11805Y-23096D02*
X12305Y-23596D01*
X34805Y-36530D02*
X34176Y-37159D01*
X34805Y-35396D02*
X34805Y-36530D01*
X34155Y-34746D02*
X34805Y-35396D01*
X33805Y-33346D02*
X34155Y-33696D01*
X31805Y-33346D02*
X33805Y-33346D01*
X31505Y-33646D02*
X31805Y-33346D01*
X31255Y-34696D02*
X31405Y-34696D01*
X30955Y-34996D02*
X31255Y-34696D01*
X28905Y-34996D02*
X30955Y-34996D01*
X28105Y-33146D02*
X28505Y-33546D01*
X26955Y-33146D02*
X28105Y-33146D01*
X26555Y-33546D02*
X26955Y-33146D01*
X8355Y-31546D02*
X7405Y-32496D01*
X6055Y-32496D02*
X6005Y-32546D01*
X7405Y-32496D02*
X6055Y-32496D01*
X11105Y-29196D02*
X13355Y-31446D01*
X13355Y-31446D02*
X14155Y-31446D01*
X9767Y-37796D02*
X8455Y-37796D01*
X7905Y-37246D02*
X7905Y-36733D01*
X8455Y-37796D02*
X7905Y-37246D01*
X5043Y-37796D02*
X1575Y-37796D01*
X1575Y-37796D02*
X1574Y-37795D01*
X25005Y-35696D02*
X25705Y-34996D01*
X22005Y-35696D02*
X25005Y-35696D01*
X21555Y-35246D02*
X22005Y-35696D01*
X14405Y-14459D02*
X12855Y-14459D01*
X30305Y-14559D02*
X29155Y-14559D01*
X29155Y-14559D02*
X28705Y-15009D01*
X30305Y-14559D02*
X30105Y-14559D01*
X27605Y-10909D02*
X27355Y-10909D01*
X28355Y-11659D02*
X27605Y-10909D01*
X28355Y-12809D02*
X28355Y-11659D01*
X30105Y-14559D02*
X28355Y-12809D01*
X16405Y-15159D02*
X17705Y-15159D01*
X17705Y-15159D02*
X20237Y-12627D01*
X11405Y-14459D02*
X12355Y-13509D01*
X12355Y-13509D02*
X12355Y-13446D01*
X2705Y-22374D02*
X6221Y-22374D01*
X6221Y-22374D02*
X6905Y-23059D01*
X18105Y-29259D02*
X18105Y-28809D01*
X18105Y-28809D02*
X18255Y-28659D01*
X19005Y-30159D02*
X18105Y-29259D01*
X21005Y-30159D02*
X19005Y-30159D01*
X21055Y-30209D02*
X21005Y-30159D01*
X22055Y-30809D02*
X21455Y-30209D01*
X24305Y-30809D02*
X22055Y-30809D01*
X24405Y-30359D02*
X24305Y-30809D01*
X22305Y-14459D02*
X20805Y-14559D01*
X17105Y-15859D02*
X16405Y-15159D01*
X18805Y-15859D02*
X17105Y-15859D01*
X20505Y-17559D02*
X18805Y-15859D01*
X21705Y-16259D02*
X21705Y-17559D01*
X20505Y-14859D02*
X20505Y-16259D01*
X20805Y-14559D02*
X20505Y-14859D01*
X28005Y-29259D02*
X28005Y-24559D01*
X31405Y-24059D02*
X31905Y-24559D01*
X28505Y-24059D02*
X29630Y-24059D01*
X29630Y-24059D02*
X31405Y-24059D01*
X28005Y-24559D02*
X28505Y-24059D01*
X32605Y-31359D02*
X27205Y-31359D01*
X26805Y-30459D02*
X28005Y-29259D01*
X26805Y-30959D02*
X26805Y-30459D01*
X27205Y-31359D02*
X26805Y-30959D01*
X35305Y-24859D02*
X35305Y-23359D01*
X30905Y-27559D02*
X31205Y-27559D01*
X32305Y-30559D02*
X31905Y-30559D01*
X32605Y-30259D02*
X32305Y-30559D01*
X32605Y-28459D02*
X32605Y-30259D01*
X32205Y-28059D02*
X32605Y-28459D01*
X31705Y-28059D02*
X32205Y-28059D01*
X31205Y-27559D02*
X31705Y-28059D01*
X34205Y-29859D02*
X35005Y-29859D01*
X35005Y-29859D02*
X35405Y-29459D01*
X33605Y-31059D02*
X33905Y-31059D01*
X33905Y-31059D02*
X33905Y-30059D01*
X33905Y-30059D02*
X34105Y-29859D01*
X34105Y-29859D02*
X34205Y-29859D01*
X35005Y-29859D02*
X35405Y-29459D01*
X31905Y-30559D02*
X31905Y-30659D01*
X33905Y-30059D02*
X34105Y-29859D01*
X33905Y-31059D02*
X33905Y-30059D01*
X31905Y-30659D02*
X32605Y-31359D01*
X11805Y-22359D02*
X7605Y-22359D01*
X7605Y-22359D02*
X6905Y-23059D01*
X22305Y-14459D02*
X30305Y-14559D01*
X14405Y-14459D02*
X22305Y-14459D01*
X11405Y-14459D02*
X14405Y-14459D01*
X14705Y-21159D02*
X14155Y-20659D01*
X14155Y-20659D02*
X13905Y-20659D01*
G54D33*
X22905Y-25059D02*
X21905Y-26059D01*
X22905Y-23059D02*
X23905Y-24059D01*
X19905Y-24059D02*
X21905Y-24059D01*
X19905Y-22059D02*
X20905Y-23059D01*
X20905Y-21059D02*
X21905Y-22059D01*
X20905Y-25059D02*
X19905Y-26059D01*
X18905Y-25059D02*
X20905Y-27059D01*
G54D29*
X11405Y-14459D02*
X5705Y-14559D01*
X5705Y-14559D02*
X5521Y-14374D01*
X5521Y-14374D02*
X2705Y-14374D01*
X21005Y-18489D02*
X21348Y-18489D01*
X21348Y-18489D02*
X23455Y-20596D01*
X23455Y-20596D02*
X23605Y-20596D01*
X23605Y-20596D02*
X24405Y-21396D01*
X24405Y-21396D02*
X24405Y-21459D01*
X14055Y-19959D02*
X15392Y-19959D01*
X15392Y-19959D02*
X15555Y-19796D01*
X15555Y-19796D02*
X16955Y-19796D01*
X16955Y-19796D02*
X17205Y-19546D01*
X17205Y-19546D02*
X17205Y-18996D01*
X17205Y-18996D02*
X17712Y-18489D01*
X17712Y-18489D02*
X21005Y-18489D01*
X21405Y-18309D02*
X21468Y-18309D01*
X21468Y-18309D02*
X23555Y-20396D01*
X23555Y-20396D02*
X23755Y-20396D01*
X23755Y-20396D02*
X24418Y-21059D01*
X24418Y-21059D02*
X24705Y-21059D01*
X14105Y-19459D02*
X14168Y-19459D01*
X14168Y-19459D02*
X14405Y-19696D01*
X14405Y-19696D02*
X15255Y-19696D01*
X15255Y-19696D02*
X15405Y-19546D01*
X15405Y-19546D02*
X16855Y-19546D01*
X16855Y-19546D02*
X16955Y-19446D01*
X16955Y-19446D02*
X16955Y-18896D01*
X16955Y-18896D02*
X17542Y-18309D01*
X17542Y-18309D02*
X21405Y-18309D01*
X17405Y-31759D02*
X17405Y-30259D01*
X16905Y-32259D02*
X17405Y-31759D01*
X17405Y-30259D02*
X17605Y-30059D01*
G54D30*
X32052Y-7059D02*
X32052Y-1727D01*
X32052Y-1727D02*
X32204Y-1574D01*
X15658Y-7059D02*
X15658Y-2892D01*
X15658Y-2892D02*
X16141Y-2409D01*
X16141Y-2409D02*
X16141Y-1574D01*
X14658Y-7059D02*
X14658Y-1679D01*
X14658Y-1679D02*
X14763Y-1574D01*
X34052Y-7059D02*
X34052Y-3349D01*
X34052Y-3349D02*
X34960Y-2440D01*
X34960Y-2440D02*
X34960Y-1574D01*
X33052Y-7059D02*
X33052Y-2749D01*
X33052Y-2749D02*
X33582Y-2218D01*
X33582Y-2218D02*
X33582Y-1574D01*
X9461Y-7059D02*
X9461Y-4139D01*
X9461Y-4139D02*
X10787Y-2814D01*
X10787Y-2814D02*
X10787Y-1574D01*
X8461Y-7059D02*
X8461Y-3589D01*
X8461Y-3589D02*
X9409Y-2642D01*
X9409Y-2642D02*
X9409Y-1574D01*
X7461Y-7059D02*
X7461Y-2789D01*
X7461Y-2789D02*
X8031Y-2220D01*
X8031Y-2220D02*
X8031Y-1574D01*
X6461Y-7059D02*
X6461Y-1766D01*
X6461Y-1766D02*
X6653Y-1574D01*
G54D34*
X2705Y-30374D02*
X5076Y-30374D01*
X5076Y-30374D02*
X4948Y-30246D01*
X4948Y-30246D02*
X4555Y-30246D01*
X4555Y-30246D02*
X4555Y-30896D01*
X6105Y-29559D02*
X5892Y-29559D01*
X5892Y-29559D02*
X4555Y-30896D01*
X4555Y-30896D02*
X4305Y-31146D01*
X4305Y-31146D02*
X3476Y-31146D01*
X3476Y-31146D02*
X2705Y-30374D01*
X6205Y-29559D02*
X6105Y-29559D01*
X6105Y-29559D02*
X6092Y-29559D01*
X6092Y-29559D02*
X4505Y-31146D01*
X4505Y-31146D02*
X2705Y-30374D01*
X2705Y-30374D02*
X2705Y-30096D01*
X2705Y-30096D02*
X3242Y-29559D01*
X3242Y-29559D02*
X6205Y-29559D01*
X6205Y-29559D02*
X6905Y-29559D01*
X2705Y-18374D02*
X2705Y-18696D01*
X2705Y-18696D02*
X3205Y-19196D01*
X3205Y-19196D02*
X5281Y-19196D01*
X5281Y-19196D02*
X5918Y-18559D01*
X2705Y-18374D02*
X2776Y-18374D01*
X2776Y-18374D02*
X3405Y-17746D01*
X3405Y-17746D02*
X5105Y-17746D01*
X5105Y-17746D02*
X5918Y-18559D01*
X6905Y-18559D02*
X5918Y-18559D01*
X5918Y-18559D02*
X2889Y-18559D01*
X2889Y-18559D02*
X2705Y-18374D01*
X2705Y-26374D02*
X4426Y-26374D01*
X4426Y-26374D02*
X5205Y-25596D01*
X5205Y-25596D02*
X5205Y-24846D01*
X5205Y-24846D02*
X5992Y-24059D01*
X2705Y-26374D02*
X2776Y-26374D01*
X2776Y-26374D02*
X5092Y-24059D01*
X5092Y-24059D02*
X5992Y-24059D01*
X5992Y-24059D02*
X6905Y-24059D01*
G54D29*
X30905Y-26359D02*
X30905Y-26559D01*
X31205Y-26059D02*
X30905Y-26359D01*
X32505Y-26059D02*
X31205Y-26059D01*
X33105Y-26659D02*
X32505Y-26059D01*
X33105Y-32159D02*
X33105Y-26659D01*
X33505Y-32559D02*
X33105Y-32159D01*
G54D35*
X38105Y-13496D02*
X38105Y-13996D01*
X37905Y-17824D02*
X37155Y-18574D01*
X37905Y-14196D02*
X37905Y-17824D01*
X38105Y-13996D02*
X37905Y-14196D01*
G54D30*
X16658Y-7059D02*
X16658Y-3592D01*
X16658Y-3592D02*
X17519Y-2731D01*
X17519Y-2731D02*
X17519Y-1574D01*
X31052Y-7059D02*
X31052Y-1800D01*
X31052Y-1800D02*
X30826Y-1574D01*
G54D32*
X25855Y-4246D02*
X26968Y-3133D01*
X26968Y-3133D02*
X26968Y-1574D01*
G54D30*
X25855Y-7059D02*
X25855Y-4246D01*
G54D32*
X24855Y-3646D02*
X25590Y-2911D01*
X25590Y-2911D02*
X25590Y-1574D01*
G54D30*
X24855Y-7059D02*
X24855Y-3646D01*
X25590Y-1711D02*
X25590Y-1574D01*
X25590Y-1574D02*
X25590Y-1711D01*
G54D32*
X23855Y-2846D02*
X24212Y-2488D01*
X24212Y-2488D02*
X24212Y-1574D01*
G54D30*
X23855Y-7059D02*
X23855Y-2846D01*
X22855Y-7059D02*
X22855Y-1595D01*
X22855Y-1595D02*
X22834Y-1574D01*
X17658Y-7059D02*
X17658Y-4192D01*
X17658Y-4192D02*
X18897Y-2953D01*
X18897Y-2953D02*
X18897Y-1574D01*
G54D29*
X16305Y-30159D02*
X16605Y-29859D01*
X16305Y-31459D02*
X16305Y-30159D01*
X16705Y-31859D02*
X16305Y-31459D01*
X24105Y-16759D02*
X24105Y-19459D01*
X24105Y-19459D02*
X24655Y-20009D01*
X24105Y-16759D02*
X24655Y-16209D01*
X24655Y-16209D02*
X27755Y-16209D01*
X23305Y-20959D02*
X23505Y-20959D01*
X21905Y-19559D02*
X23305Y-20959D01*
X31405Y-28059D02*
X31905Y-28559D01*
X29905Y-28059D02*
X31405Y-28059D01*
X29705Y-27859D02*
X29905Y-28059D01*
X31405Y-27059D02*
X31905Y-27559D01*
X29805Y-27059D02*
X31405Y-27059D01*
X29605Y-27259D02*
X29805Y-27059D01*
X30905Y-29559D02*
X29205Y-27859D01*
X29205Y-27859D02*
X29205Y-27059D01*
X29605Y-26659D02*
X29205Y-27059D01*
X28905Y-27196D02*
X28905Y-26096D01*
X28905Y-26096D02*
X28755Y-25946D01*
X31405Y-30059D02*
X31905Y-29559D01*
X28905Y-27196D02*
X28905Y-27659D01*
X28905Y-28509D02*
X28905Y-27659D01*
X30455Y-30059D02*
X28905Y-28509D01*
X30455Y-30059D02*
X31405Y-30059D01*
X30905Y-24559D02*
X29142Y-24559D01*
X28755Y-24946D02*
X28755Y-25396D01*
X29142Y-24559D02*
X28755Y-24946D01*
X18655Y-28309D02*
X18655Y-27959D01*
X19155Y-27459D02*
X20805Y-27459D01*
X18655Y-27959D02*
X19155Y-27459D01*
X26205Y-23759D02*
X25905Y-23459D01*
X26205Y-24009D02*
X26205Y-23759D01*
X25705Y-24509D02*
X26205Y-24009D01*
X25505Y-24509D02*
X25705Y-24509D01*
X25355Y-24359D02*
X25505Y-24509D01*
X24505Y-24359D02*
X25355Y-24359D01*
X21405Y-27459D02*
X24505Y-24359D01*
X20805Y-27459D02*
X21405Y-27459D01*
X21905Y-29459D02*
X20905Y-28459D01*
X20905Y-28459D02*
X20905Y-28009D01*
X20905Y-28009D02*
X21055Y-27859D01*
X21055Y-27859D02*
X21605Y-27859D01*
X21605Y-27859D02*
X24555Y-24909D01*
X24555Y-24909D02*
X25905Y-24909D01*
X25905Y-24909D02*
X26905Y-23909D01*
X26905Y-23909D02*
X26905Y-22859D01*
X12605Y-17159D02*
X12605Y-15809D01*
X12605Y-15809D02*
X12655Y-15759D01*
X15705Y-20159D02*
X17092Y-20159D01*
X17092Y-20159D02*
X17405Y-19846D01*
X17405Y-19846D02*
X17405Y-19196D01*
X17405Y-19196D02*
X17842Y-18759D01*
X17842Y-18759D02*
X17855Y-18746D01*
X17855Y-18746D02*
X17855Y-18759D01*
X21505Y-19959D02*
X21505Y-18959D01*
X21305Y-18759D02*
X17855Y-18759D01*
X21505Y-18959D02*
X21305Y-18759D01*
X25605Y-24059D02*
X21505Y-19959D01*
X21505Y-18109D02*
X21568Y-18109D01*
X21568Y-18109D02*
X23655Y-20196D01*
X23655Y-20196D02*
X23855Y-20196D01*
X23855Y-20196D02*
X24168Y-20509D01*
X24168Y-20509D02*
X24705Y-20509D01*
X13805Y-19059D02*
X14218Y-19059D01*
X14218Y-19059D02*
X14605Y-19446D01*
X14605Y-19446D02*
X15105Y-19446D01*
X15105Y-19446D02*
X15205Y-19346D01*
X15205Y-19346D02*
X16605Y-19346D01*
X16605Y-19346D02*
X16755Y-19196D01*
X16755Y-19196D02*
X16755Y-18796D01*
X16755Y-18796D02*
X17442Y-18109D01*
X17442Y-18109D02*
X21505Y-18109D01*
X36770Y-25489D02*
X36770Y-23129D01*
X19305Y-30659D02*
X20905Y-30659D01*
X36770Y-25489D02*
X36770Y-25894D01*
X36505Y-26159D02*
X36505Y-28359D01*
X36770Y-25894D02*
X36505Y-26159D01*
X17105Y-29859D02*
X17105Y-30659D01*
X17105Y-30659D02*
X16805Y-30959D01*
G54D36*
X15205Y-25946D02*
X14155Y-24896D01*
X14155Y-24896D02*
X14155Y-23896D01*
X14955Y-22696D02*
X14955Y-22709D01*
X14955Y-22709D02*
X15505Y-22159D01*
X14155Y-23896D02*
X14155Y-23496D01*
X14155Y-23496D02*
X14955Y-22696D01*
X15205Y-30076D02*
X15205Y-25946D01*
X15205Y-30809D02*
X15205Y-30076D01*
X15205Y-32859D02*
X15205Y-30809D01*
X15505Y-22159D02*
X17705Y-19959D01*
X17705Y-19959D02*
X17705Y-19359D01*
X17705Y-19359D02*
X17805Y-19259D01*
X19205Y-19659D02*
X19205Y-20259D01*
X18805Y-19259D02*
X19205Y-19659D01*
X17805Y-19259D02*
X18805Y-19259D01*
X15605Y-21259D02*
X15105Y-20759D01*
X15605Y-22059D02*
X15605Y-21259D01*
X15505Y-22159D02*
X15605Y-22059D01*
X11505Y-16559D02*
X11505Y-16146D01*
X11505Y-16146D02*
X12255Y-15396D01*
X12255Y-15396D02*
X12855Y-15396D01*
X12855Y-15396D02*
X13155Y-15696D01*
X13155Y-15696D02*
X13155Y-16396D01*
X13155Y-16396D02*
X13455Y-16696D01*
X13455Y-16696D02*
X18005Y-16696D01*
X18005Y-16696D02*
X18305Y-16996D01*
X34805Y-32196D02*
X35355Y-32196D01*
X36892Y-30659D02*
X38205Y-30659D01*
X35355Y-32196D02*
X36892Y-30659D01*
X34005Y-32996D02*
X33342Y-32996D01*
X34805Y-32196D02*
X34005Y-32996D01*
X17405Y-37796D02*
X18405Y-37796D01*
X17168Y-33459D02*
X15805Y-33459D01*
X18905Y-35196D02*
X17168Y-33459D01*
X18905Y-37296D02*
X18905Y-35196D01*
X18405Y-37796D02*
X18905Y-37296D01*
X15805Y-33459D02*
X15205Y-32859D01*
X32005Y-31659D02*
X26405Y-31659D01*
X26405Y-31659D02*
X26005Y-31259D01*
X32005Y-31659D02*
X33342Y-32996D01*
X31905Y-25559D02*
X32505Y-25559D01*
X34005Y-27059D02*
X35505Y-27059D01*
X32505Y-25559D02*
X34005Y-27059D01*
X25905Y-31159D02*
X26005Y-31259D01*
X25005Y-31159D02*
X25905Y-31159D01*
X19705Y-31159D02*
X25005Y-31159D01*
X19205Y-31659D02*
X19705Y-31159D01*
X18305Y-16996D02*
X18305Y-17659D01*
G54D29*
X17405Y-21359D02*
X18205Y-20559D01*
X16682Y-22081D02*
X17405Y-21359D01*
X16682Y-22436D02*
X16682Y-22081D01*
X17005Y-22759D02*
X16682Y-22436D01*
X18205Y-20559D02*
X18905Y-20559D01*
X18905Y-20559D02*
X19205Y-20259D01*
G54D36*
X33205Y-20659D02*
X33205Y-24046D01*
X33955Y-24796D02*
X33955Y-24809D01*
X33205Y-24046D02*
X33955Y-24796D01*
X38205Y-29659D02*
X37105Y-29659D01*
X33955Y-24809D02*
X35505Y-26359D01*
X35705Y-28259D02*
X36805Y-29359D01*
X37105Y-29659D02*
X36805Y-29359D01*
X37130Y-36421D02*
X37130Y-35171D01*
X37505Y-32359D02*
X38205Y-31659D01*
X37505Y-34796D02*
X37505Y-32359D01*
X37130Y-35171D02*
X37505Y-34796D01*
X6355Y-34496D02*
X6355Y-37596D01*
X36605Y-36946D02*
X37130Y-36421D01*
X36605Y-38196D02*
X36605Y-36946D01*
X35905Y-38896D02*
X36605Y-38196D01*
X7655Y-38896D02*
X35905Y-38896D01*
X6355Y-37596D02*
X7655Y-38896D01*
X6355Y-34046D02*
X6355Y-34496D01*
X6355Y-34496D02*
X6355Y-34646D01*
X7905Y-35246D02*
X7905Y-35946D01*
X7655Y-34996D02*
X7905Y-35246D01*
X6705Y-34996D02*
X7655Y-34996D01*
X6355Y-34646D02*
X6705Y-34996D01*
G54D35*
X38105Y-12496D02*
X37405Y-12496D01*
X35342Y-18659D02*
X33205Y-18659D01*
X37105Y-16896D02*
X35342Y-18659D01*
X37105Y-12796D02*
X37105Y-16896D01*
X37405Y-12496D02*
X37105Y-12796D01*
G54D36*
X36005Y-23046D02*
X35855Y-23046D01*
X34118Y-18659D02*
X33205Y-18659D01*
X34505Y-19046D02*
X34118Y-18659D01*
X34505Y-21696D02*
X34505Y-19046D01*
X35855Y-23046D02*
X34505Y-21696D01*
X36005Y-23696D02*
X36005Y-23046D01*
X35824Y-29077D02*
X35824Y-31227D01*
X35824Y-31227D02*
X35555Y-31496D01*
X35555Y-31496D02*
X34955Y-31496D01*
X34955Y-31496D02*
X34305Y-32146D01*
X35305Y-28059D02*
X35805Y-27559D01*
X35305Y-28559D02*
X35305Y-28059D01*
X36005Y-26259D02*
X36005Y-27359D01*
X36005Y-27359D02*
X35805Y-27559D01*
X36005Y-26259D02*
X36005Y-23696D01*
X35605Y-28859D02*
X35305Y-28559D01*
X35605Y-28859D02*
X35824Y-29077D01*
G54D30*
X1405Y-11246D02*
X1655Y-11246D01*
X1655Y-11246D02*
X3005Y-9896D01*
X3005Y-9896D02*
X28655Y-9896D01*
X28655Y-9896D02*
X29255Y-9296D01*
X28005Y-9296D02*
X29255Y-9296D01*
X29255Y-9296D02*
X36555Y-9296D01*
X36555Y-9296D02*
X38105Y-10846D01*
X38105Y-10846D02*
X38105Y-11496D01*
X12658Y-8696D02*
X28305Y-8696D01*
X28305Y-8696D02*
X29052Y-7949D01*
X19705Y-8146D02*
X28155Y-8146D01*
X28155Y-8146D02*
X29052Y-7249D01*
X29052Y-7249D02*
X29052Y-7059D01*
X10805Y-8146D02*
X19705Y-8146D01*
X19705Y-8146D02*
X20355Y-8146D01*
X20355Y-8146D02*
X20855Y-7646D01*
X20855Y-7646D02*
X20855Y-7059D01*
X11205Y-9296D02*
X28005Y-9296D01*
X28005Y-9296D02*
X28555Y-9296D01*
X28555Y-9296D02*
X29052Y-8799D01*
X29052Y-8799D02*
X29052Y-7949D01*
X29052Y-7949D02*
X29052Y-7059D01*
X2755Y-7896D02*
X3505Y-7896D01*
X3505Y-7896D02*
X3855Y-7546D01*
X2462Y-7589D02*
X2462Y-7602D01*
X2462Y-7602D02*
X2755Y-7896D01*
X2755Y-7896D02*
X3005Y-8146D01*
X3005Y-8146D02*
X4805Y-8146D01*
X1005Y-9846D02*
X1405Y-9846D01*
X1405Y-9846D02*
X2555Y-8696D01*
X2555Y-8696D02*
X12005Y-8696D01*
X12005Y-8696D02*
X12658Y-8042D01*
X4461Y-7059D02*
X4461Y-7802D01*
X4461Y-7802D02*
X4805Y-8146D01*
X4805Y-8146D02*
X10805Y-8146D01*
X10805Y-8146D02*
X11955Y-8146D01*
X11955Y-8146D02*
X12658Y-7442D01*
X12658Y-7059D02*
X12658Y-7442D01*
X12658Y-7442D02*
X12658Y-8042D01*
X12658Y-8042D02*
X12658Y-8696D01*
X12658Y-8696D02*
X12658Y-8892D01*
X12658Y-8892D02*
X12255Y-9296D01*
X12255Y-9296D02*
X11205Y-9296D01*
X11205Y-9296D02*
X2655Y-9296D01*
X2655Y-9296D02*
X1405Y-10546D01*
X1305Y-16446D02*
X1305Y-15496D01*
X1305Y-15496D02*
X1005Y-15196D01*
X1005Y-15196D02*
X1005Y-9846D01*
X1005Y-9846D02*
X1005Y-9559D01*
X1005Y-9559D02*
X1005Y-9246D01*
X605Y-8696D02*
X605Y-8096D01*
X605Y-8096D02*
X1642Y-7059D01*
X1642Y-7059D02*
X2392Y-7059D01*
X2705Y-16343D02*
X2189Y-16343D01*
X2189Y-16343D02*
X1405Y-15559D01*
X1405Y-15559D02*
X1405Y-11246D01*
X1405Y-11246D02*
X1405Y-10546D01*
X1405Y-10546D02*
X1405Y-8046D01*
X1405Y-8046D02*
X2392Y-7059D01*
X2392Y-7059D02*
X4461Y-7059D01*
X605Y-9246D02*
X1005Y-9246D01*
X1005Y-9246D02*
X805Y-9246D01*
X805Y-9246D02*
X2462Y-7589D01*
X2462Y-7589D02*
X2505Y-7546D01*
X605Y-9246D02*
X605Y-8696D01*
X605Y-8696D02*
X1755Y-7546D01*
X1755Y-7546D02*
X2505Y-7546D01*
X2505Y-7546D02*
X3018Y-7546D01*
X2705Y-20343D02*
X952Y-20343D01*
X952Y-20343D02*
X605Y-19996D01*
X605Y-19996D02*
X605Y-9246D01*
X2705Y-16343D02*
X2308Y-16343D01*
X2308Y-16343D02*
X1455Y-17196D01*
X1455Y-17196D02*
X1455Y-19093D01*
X1455Y-19093D02*
X2705Y-20343D01*
X605Y-9959D02*
X3018Y-7546D01*
X2705Y-20343D02*
X1389Y-20343D01*
X1389Y-20343D02*
X605Y-19559D01*
X605Y-19559D02*
X605Y-9959D01*
X2705Y-16343D02*
X2189Y-16343D01*
X2189Y-16343D02*
X1305Y-15459D01*
X1305Y-15459D02*
X1305Y-16446D01*
X1305Y-16446D02*
X1305Y-19859D01*
X1305Y-19859D02*
X1789Y-20343D01*
X1789Y-20343D02*
X2705Y-20343D01*
X605Y-24696D02*
X605Y-24146D01*
X605Y-24146D02*
X1005Y-23746D01*
X1005Y-23746D02*
X1555Y-23746D01*
X2705Y-32343D02*
X852Y-32343D01*
X852Y-32343D02*
X605Y-32096D01*
X605Y-32096D02*
X605Y-24696D01*
X605Y-24696D02*
X1555Y-23746D01*
X1555Y-23746D02*
X2108Y-23746D01*
X2108Y-23746D02*
X2705Y-24343D01*
X2705Y-24343D02*
X1521Y-24343D01*
X1389Y-32343D02*
X2705Y-32343D01*
X855Y-31809D02*
X1389Y-32343D01*
X855Y-25009D02*
X855Y-31809D01*
X1521Y-24343D02*
X855Y-25009D01*
X1555Y-29559D02*
X1555Y-24859D01*
X2071Y-24343D02*
X2705Y-24343D01*
X1555Y-24859D02*
X2071Y-24343D01*
X2705Y-32343D02*
X2339Y-32343D01*
X2339Y-32343D02*
X1555Y-31559D01*
X1555Y-31559D02*
X1555Y-29559D01*
X2221Y-28343D02*
X2705Y-28343D01*
X1555Y-29009D02*
X2221Y-28343D01*
X1555Y-29559D02*
X1555Y-29009D01*
G54D10*
G36*
X5568Y-7157D02*
X5560Y-7157D01*
X5560Y-7165D01*
X5363Y-7165D01*
X5363Y-7157D01*
X5355Y-7157D01*
X5355Y-6960D01*
X5363Y-6960D01*
X5363Y-6952D01*
X5560Y-6952D01*
X5560Y-6960D01*
X5568Y-6960D01*
X5568Y-7157D01*
X5568Y-7157D01*
G37*
G54D36*
X5568Y-7157D02*
X5560Y-7157D01*
X5560Y-7165D01*
X5363Y-7165D01*
X5363Y-7157D01*
X5355Y-7157D01*
X5355Y-6960D01*
X5363Y-6960D01*
X5363Y-6952D01*
X5560Y-6952D01*
X5560Y-6960D01*
X5568Y-6960D01*
X5568Y-7157D01*
G54D10*
G36*
X11568Y-7157D02*
X11560Y-7157D01*
X11560Y-7165D01*
X11363Y-7165D01*
X11363Y-7157D01*
X11355Y-7157D01*
X11355Y-6960D01*
X11363Y-6960D01*
X11363Y-6952D01*
X11560Y-6952D01*
X11560Y-6960D01*
X11568Y-6960D01*
X11568Y-7157D01*
X11568Y-7157D01*
G37*
G54D36*
X11568Y-7157D02*
X11560Y-7157D01*
X11560Y-7165D01*
X11363Y-7165D01*
X11363Y-7157D01*
X11355Y-7157D01*
X11355Y-6960D01*
X11363Y-6960D01*
X11363Y-6952D01*
X11560Y-6952D01*
X11560Y-6960D01*
X11568Y-6960D01*
X11568Y-7157D01*
G54D10*
G36*
X13764Y-7157D02*
X13757Y-7157D01*
X13757Y-7165D01*
X13560Y-7165D01*
X13560Y-7157D01*
X13552Y-7157D01*
X13552Y-6960D01*
X13560Y-6960D01*
X13560Y-6952D01*
X13757Y-6952D01*
X13757Y-6960D01*
X13764Y-6960D01*
X13764Y-7157D01*
X13764Y-7157D01*
G37*
G54D36*
X13764Y-7157D02*
X13757Y-7157D01*
X13757Y-7165D01*
X13560Y-7165D01*
X13560Y-7157D01*
X13552Y-7157D01*
X13552Y-6960D01*
X13560Y-6960D01*
X13560Y-6952D01*
X13757Y-6952D01*
X13757Y-6960D01*
X13764Y-6960D01*
X13764Y-7157D01*
G54D10*
G36*
X18476Y-34238D02*
X17432Y-33194D01*
X17311Y-33113D01*
X17287Y-33108D01*
X17168Y-33085D01*
X16068Y-33085D01*
X16061Y-33077D01*
X15895Y-33008D01*
X15883Y-33008D01*
X15579Y-32704D01*
X15579Y-30809D01*
X15579Y-30076D01*
X15579Y-25946D01*
X15551Y-25802D01*
X15469Y-25681D01*
X14529Y-24741D01*
X14529Y-24159D01*
X14537Y-24151D01*
X14606Y-23986D01*
X14606Y-23806D01*
X14538Y-23642D01*
X15180Y-22999D01*
X15219Y-22973D01*
X15769Y-22423D01*
X15769Y-22423D01*
X15769Y-22423D01*
X15869Y-22323D01*
X15869Y-22323D01*
X15869Y-22323D01*
X15879Y-22313D01*
X15879Y-27059D01*
X15904Y-27183D01*
X15975Y-27289D01*
X16379Y-27693D01*
X16379Y-28259D01*
X16379Y-28659D01*
X16404Y-28783D01*
X16475Y-28889D01*
X17000Y-29414D01*
X16855Y-29474D01*
X16695Y-29408D01*
X16516Y-29408D01*
X16350Y-29476D01*
X16223Y-29603D01*
X16154Y-29769D01*
X16154Y-29849D01*
X16075Y-29928D01*
X16004Y-30034D01*
X15979Y-30159D01*
X15979Y-31459D01*
X16004Y-31583D01*
X16075Y-31689D01*
X16254Y-31868D01*
X16254Y-31948D01*
X16323Y-32113D01*
X16449Y-32240D01*
X16454Y-32242D01*
X16454Y-32348D01*
X16523Y-32513D01*
X16649Y-32640D01*
X16815Y-32709D01*
X16994Y-32709D01*
X17160Y-32641D01*
X17287Y-32514D01*
X17356Y-32349D01*
X17356Y-32268D01*
X17635Y-31989D01*
X17706Y-31883D01*
X17731Y-31759D01*
X17731Y-31759D01*
X17731Y-30494D01*
X17860Y-30441D01*
X17943Y-30357D01*
X18079Y-30493D01*
X18079Y-32196D01*
X18079Y-33596D01*
X18104Y-33720D01*
X18175Y-33826D01*
X18454Y-34105D01*
X18454Y-34185D01*
X18476Y-34238D01*
X18476Y-34238D01*
G37*
G54D36*
X18476Y-34238D02*
X17432Y-33194D01*
X17311Y-33113D01*
X17287Y-33108D01*
X17168Y-33085D01*
X16068Y-33085D01*
X16061Y-33077D01*
X15895Y-33008D01*
X15883Y-33008D01*
X15579Y-32704D01*
X15579Y-30809D01*
X15579Y-30076D01*
X15579Y-25946D01*
X15551Y-25802D01*
X15469Y-25681D01*
X14529Y-24741D01*
X14529Y-24159D01*
X14537Y-24151D01*
X14606Y-23986D01*
X14606Y-23806D01*
X14538Y-23642D01*
X15180Y-22999D01*
X15219Y-22973D01*
X15769Y-22423D01*
X15769Y-22423D01*
X15769Y-22423D01*
X15869Y-22323D01*
X15869Y-22323D01*
X15869Y-22323D01*
X15879Y-22313D01*
X15879Y-27059D01*
X15904Y-27183D01*
X15975Y-27289D01*
X16379Y-27693D01*
X16379Y-28259D01*
X16379Y-28659D01*
X16404Y-28783D01*
X16475Y-28889D01*
X17000Y-29414D01*
X16855Y-29474D01*
X16695Y-29408D01*
X16516Y-29408D01*
X16350Y-29476D01*
X16223Y-29603D01*
X16154Y-29769D01*
X16154Y-29849D01*
X16075Y-29928D01*
X16004Y-30034D01*
X15979Y-30159D01*
X15979Y-31459D01*
X16004Y-31583D01*
X16075Y-31689D01*
X16254Y-31868D01*
X16254Y-31948D01*
X16323Y-32113D01*
X16449Y-32240D01*
X16454Y-32242D01*
X16454Y-32348D01*
X16523Y-32513D01*
X16649Y-32640D01*
X16815Y-32709D01*
X16994Y-32709D01*
X17160Y-32641D01*
X17287Y-32514D01*
X17356Y-32349D01*
X17356Y-32268D01*
X17635Y-31989D01*
X17706Y-31883D01*
X17731Y-31759D01*
X17731Y-31759D01*
X17731Y-30494D01*
X17860Y-30441D01*
X17943Y-30357D01*
X18079Y-30493D01*
X18079Y-32196D01*
X18079Y-33596D01*
X18104Y-33720D01*
X18175Y-33826D01*
X18454Y-34105D01*
X18454Y-34185D01*
X18476Y-34238D01*
G54D10*
G36*
X19764Y-7157D02*
X19757Y-7157D01*
X19757Y-7165D01*
X19560Y-7165D01*
X19560Y-7157D01*
X19552Y-7157D01*
X19552Y-6960D01*
X19560Y-6960D01*
X19560Y-6952D01*
X19757Y-6952D01*
X19757Y-6960D01*
X19764Y-6960D01*
X19764Y-7157D01*
X19764Y-7157D01*
G37*
G54D36*
X19764Y-7157D02*
X19757Y-7157D01*
X19757Y-7165D01*
X19560Y-7165D01*
X19560Y-7157D01*
X19552Y-7157D01*
X19552Y-6960D01*
X19560Y-6960D01*
X19560Y-6952D01*
X19757Y-6952D01*
X19757Y-6960D01*
X19764Y-6960D01*
X19764Y-7157D01*
G54D10*
G36*
X21961Y-7157D02*
X21953Y-7157D01*
X21953Y-7165D01*
X21757Y-7165D01*
X21757Y-7157D01*
X21749Y-7157D01*
X21749Y-6960D01*
X21757Y-6960D01*
X21757Y-6952D01*
X21953Y-6952D01*
X21953Y-6960D01*
X21961Y-6960D01*
X21961Y-7157D01*
X21961Y-7157D01*
G37*
G54D36*
X21961Y-7157D02*
X21953Y-7157D01*
X21953Y-7165D01*
X21757Y-7165D01*
X21757Y-7157D01*
X21749Y-7157D01*
X21749Y-6960D01*
X21757Y-6960D01*
X21757Y-6952D01*
X21953Y-6952D01*
X21953Y-6960D01*
X21961Y-6960D01*
X21961Y-7157D01*
G54D10*
G36*
X27961Y-7157D02*
X27953Y-7157D01*
X27953Y-7165D01*
X27757Y-7165D01*
X27757Y-7157D01*
X27749Y-7157D01*
X27749Y-6960D01*
X27757Y-6960D01*
X27757Y-6952D01*
X27953Y-6952D01*
X27953Y-6960D01*
X27961Y-6960D01*
X27961Y-7157D01*
X27961Y-7157D01*
G37*
G54D36*
X27961Y-7157D02*
X27953Y-7157D01*
X27953Y-7165D01*
X27757Y-7165D01*
X27757Y-7157D01*
X27749Y-7157D01*
X27749Y-6960D01*
X27757Y-6960D01*
X27757Y-6952D01*
X27953Y-6952D01*
X27953Y-6960D01*
X27961Y-6960D01*
X27961Y-7157D01*
G54D10*
G36*
X31050Y-27564D02*
X30911Y-27703D01*
X30905Y-27698D01*
X30899Y-27703D01*
X30760Y-27564D01*
X30766Y-27559D01*
X30760Y-27553D01*
X30899Y-27414D01*
X30905Y-27419D01*
X30911Y-27414D01*
X31050Y-27553D01*
X31044Y-27559D01*
X31050Y-27564D01*
X31050Y-27564D01*
G37*
G54D36*
X31050Y-27564D02*
X30911Y-27703D01*
X30905Y-27698D01*
X30899Y-27703D01*
X30760Y-27564D01*
X30766Y-27559D01*
X30760Y-27553D01*
X30899Y-27414D01*
X30905Y-27419D01*
X30911Y-27414D01*
X31050Y-27553D01*
X31044Y-27559D01*
X31050Y-27564D01*
G54D10*
G36*
X35450Y-31072D02*
X35400Y-31122D01*
X34955Y-31122D01*
X34812Y-31150D01*
X34691Y-31231D01*
X34227Y-31695D01*
X34216Y-31695D01*
X34050Y-31763D01*
X33923Y-31890D01*
X33854Y-32056D01*
X33854Y-32235D01*
X33880Y-32296D01*
X33761Y-32177D01*
X33595Y-32108D01*
X33515Y-32108D01*
X33431Y-32024D01*
X33431Y-27013D01*
X33741Y-27323D01*
X33862Y-27404D01*
X33862Y-27404D01*
X34005Y-27433D01*
X35242Y-27433D01*
X35249Y-27440D01*
X35352Y-27483D01*
X35041Y-27794D01*
X34959Y-27915D01*
X34955Y-27939D01*
X34931Y-28059D01*
X34931Y-28559D01*
X34955Y-28678D01*
X34959Y-28702D01*
X35041Y-28823D01*
X35341Y-29123D01*
X35341Y-29123D01*
X35450Y-29232D01*
X35450Y-31072D01*
X35450Y-31072D01*
G37*
G54D36*
X35450Y-31072D02*
X35400Y-31122D01*
X34955Y-31122D01*
X34812Y-31150D01*
X34691Y-31231D01*
X34227Y-31695D01*
X34216Y-31695D01*
X34050Y-31763D01*
X33923Y-31890D01*
X33854Y-32056D01*
X33854Y-32235D01*
X33880Y-32296D01*
X33761Y-32177D01*
X33595Y-32108D01*
X33515Y-32108D01*
X33431Y-32024D01*
X33431Y-27013D01*
X33741Y-27323D01*
X33862Y-27404D01*
X33862Y-27404D01*
X34005Y-27433D01*
X35242Y-27433D01*
X35249Y-27440D01*
X35352Y-27483D01*
X35041Y-27794D01*
X34959Y-27915D01*
X34955Y-27939D01*
X34931Y-28059D01*
X34931Y-28559D01*
X34955Y-28678D01*
X34959Y-28702D01*
X35041Y-28823D01*
X35341Y-29123D01*
X35341Y-29123D01*
X35450Y-29232D01*
X35450Y-31072D01*
G54D10*
G36*
X37826Y-31093D02*
X37749Y-31125D01*
X37671Y-31202D01*
X37629Y-31304D01*
X37629Y-31413D01*
X37629Y-31705D01*
X37241Y-32094D01*
X37159Y-32215D01*
X37155Y-32239D01*
X37131Y-32359D01*
X37131Y-33875D01*
X37022Y-33611D01*
X36806Y-33395D01*
X36524Y-33278D01*
X36219Y-33278D01*
X35937Y-33394D01*
X35720Y-33610D01*
X35603Y-33892D01*
X35603Y-34198D01*
X35720Y-34480D01*
X35935Y-34696D01*
X36217Y-34813D01*
X36523Y-34813D01*
X36805Y-34697D01*
X37021Y-34481D01*
X37131Y-34216D01*
X37131Y-34641D01*
X36866Y-34906D01*
X36784Y-35027D01*
X36780Y-35051D01*
X36756Y-35171D01*
X36756Y-36266D01*
X36341Y-36681D01*
X36322Y-36709D01*
X36322Y-36513D01*
X36280Y-36412D01*
X36202Y-36334D01*
X36101Y-36292D01*
X35991Y-36292D01*
X35007Y-36292D01*
X34906Y-36334D01*
X34828Y-36412D01*
X34796Y-36489D01*
X34663Y-36335D01*
X34395Y-36205D01*
X34274Y-36280D01*
X34274Y-37060D01*
X34282Y-37060D01*
X34282Y-37257D01*
X34274Y-37257D01*
X34274Y-38037D01*
X34395Y-38112D01*
X34663Y-37982D01*
X34796Y-37828D01*
X34828Y-37905D01*
X34906Y-37983D01*
X35007Y-38025D01*
X35117Y-38025D01*
X36101Y-38025D01*
X36202Y-37983D01*
X36231Y-37954D01*
X36231Y-38041D01*
X35750Y-38522D01*
X34078Y-38522D01*
X34078Y-38037D01*
X34078Y-37257D01*
X34070Y-37257D01*
X34070Y-37060D01*
X34078Y-37060D01*
X34078Y-36280D01*
X33957Y-36205D01*
X33689Y-36335D01*
X33553Y-36492D01*
X33520Y-36412D01*
X33442Y-36334D01*
X33341Y-36292D01*
X33231Y-36292D01*
X32247Y-36292D01*
X32146Y-36334D01*
X32068Y-36412D01*
X32036Y-36489D01*
X31903Y-36335D01*
X31635Y-36205D01*
X31514Y-36280D01*
X31514Y-37060D01*
X31522Y-37060D01*
X31522Y-37257D01*
X31514Y-37257D01*
X31514Y-38037D01*
X31635Y-38112D01*
X31903Y-37982D01*
X32036Y-37828D01*
X32068Y-37905D01*
X32146Y-37983D01*
X32247Y-38025D01*
X32357Y-38025D01*
X33341Y-38025D01*
X33442Y-37983D01*
X33520Y-37905D01*
X33553Y-37825D01*
X33689Y-37982D01*
X33957Y-38112D01*
X34078Y-38037D01*
X34078Y-38522D01*
X31318Y-38522D01*
X31318Y-38037D01*
X31318Y-37257D01*
X31310Y-37257D01*
X31310Y-37060D01*
X31318Y-37060D01*
X31318Y-36280D01*
X31197Y-36205D01*
X30929Y-36335D01*
X30807Y-36477D01*
X30780Y-36412D01*
X30702Y-36334D01*
X30601Y-36292D01*
X30491Y-36292D01*
X29507Y-36292D01*
X29406Y-36334D01*
X29328Y-36412D01*
X29296Y-36489D01*
X29163Y-36335D01*
X28895Y-36205D01*
X28774Y-36280D01*
X28774Y-37060D01*
X28782Y-37060D01*
X28782Y-37257D01*
X28774Y-37257D01*
X28774Y-38037D01*
X28895Y-38112D01*
X29163Y-37982D01*
X29296Y-37828D01*
X29328Y-37905D01*
X29406Y-37983D01*
X29507Y-38025D01*
X29617Y-38025D01*
X30601Y-38025D01*
X30702Y-37983D01*
X30780Y-37905D01*
X30807Y-37840D01*
X30929Y-37982D01*
X31197Y-38112D01*
X31318Y-38037D01*
X31318Y-38522D01*
X28578Y-38522D01*
X28578Y-38037D01*
X28578Y-37257D01*
X28570Y-37257D01*
X28570Y-37060D01*
X28578Y-37060D01*
X28578Y-36280D01*
X28457Y-36205D01*
X28189Y-36335D01*
X28053Y-36492D01*
X28020Y-36412D01*
X27942Y-36334D01*
X27841Y-36292D01*
X27731Y-36292D01*
X26747Y-36292D01*
X26646Y-36334D01*
X26568Y-36412D01*
X26536Y-36489D01*
X26403Y-36335D01*
X26135Y-36205D01*
X26014Y-36280D01*
X26014Y-37060D01*
X26022Y-37060D01*
X26022Y-37257D01*
X26014Y-37257D01*
X26014Y-38037D01*
X26135Y-38112D01*
X26403Y-37982D01*
X26536Y-37828D01*
X26568Y-37905D01*
X26646Y-37983D01*
X26747Y-38025D01*
X26857Y-38025D01*
X27841Y-38025D01*
X27942Y-37983D01*
X28020Y-37905D01*
X28053Y-37825D01*
X28189Y-37982D01*
X28457Y-38112D01*
X28578Y-38037D01*
X28578Y-38522D01*
X25818Y-38522D01*
X25818Y-38037D01*
X25818Y-37257D01*
X25810Y-37257D01*
X25810Y-37060D01*
X25818Y-37060D01*
X25818Y-36280D01*
X25697Y-36205D01*
X25429Y-36335D01*
X25293Y-36492D01*
X25260Y-36412D01*
X25182Y-36334D01*
X25081Y-36292D01*
X24971Y-36292D01*
X23987Y-36292D01*
X23886Y-36334D01*
X23808Y-36412D01*
X23776Y-36489D01*
X23643Y-36335D01*
X23375Y-36205D01*
X23254Y-36280D01*
X23254Y-37060D01*
X23262Y-37060D01*
X23262Y-37257D01*
X23254Y-37257D01*
X23254Y-38037D01*
X23375Y-38112D01*
X23643Y-37982D01*
X23776Y-37828D01*
X23808Y-37905D01*
X23886Y-37983D01*
X23987Y-38025D01*
X24097Y-38025D01*
X25081Y-38025D01*
X25182Y-37983D01*
X25260Y-37905D01*
X25293Y-37825D01*
X25429Y-37982D01*
X25697Y-38112D01*
X25818Y-38037D01*
X25818Y-38522D01*
X23058Y-38522D01*
X23058Y-38037D01*
X23058Y-37257D01*
X23050Y-37257D01*
X23050Y-37060D01*
X23058Y-37060D01*
X23058Y-36280D01*
X22937Y-36205D01*
X22669Y-36335D01*
X22547Y-36477D01*
X22520Y-36412D01*
X22442Y-36334D01*
X22341Y-36292D01*
X22231Y-36292D01*
X21247Y-36292D01*
X21146Y-36334D01*
X21068Y-36412D01*
X21036Y-36489D01*
X20903Y-36335D01*
X20635Y-36205D01*
X20514Y-36280D01*
X20514Y-37060D01*
X20522Y-37060D01*
X20522Y-37257D01*
X20514Y-37257D01*
X20514Y-38037D01*
X20635Y-38112D01*
X20903Y-37982D01*
X21036Y-37828D01*
X21068Y-37905D01*
X21146Y-37983D01*
X21247Y-38025D01*
X21357Y-38025D01*
X22341Y-38025D01*
X22442Y-37983D01*
X22520Y-37905D01*
X22547Y-37840D01*
X22669Y-37982D01*
X22937Y-38112D01*
X23058Y-38037D01*
X23058Y-38522D01*
X20318Y-38522D01*
X20318Y-38037D01*
X20318Y-37257D01*
X20318Y-37060D01*
X20318Y-36280D01*
X20197Y-36205D01*
X19929Y-36335D01*
X19726Y-36569D01*
X19629Y-36863D01*
X19629Y-37060D01*
X20318Y-37060D01*
X20318Y-37257D01*
X19629Y-37257D01*
X19629Y-37454D01*
X19726Y-37748D01*
X19929Y-37982D01*
X20197Y-38112D01*
X20318Y-38037D01*
X20318Y-38522D01*
X16760Y-38522D01*
X16760Y-38290D01*
X16405Y-37935D01*
X16266Y-38074D01*
X16266Y-37796D01*
X16084Y-37614D01*
X16081Y-37589D01*
X16030Y-37464D01*
X15913Y-37443D01*
X15911Y-37440D01*
X15905Y-37441D01*
X15899Y-37440D01*
X15897Y-37443D01*
X15781Y-37464D01*
X15739Y-37600D01*
X15544Y-37796D01*
X15726Y-37977D01*
X15729Y-38002D01*
X15781Y-38128D01*
X15897Y-38148D01*
X15899Y-38151D01*
X15905Y-38150D01*
X15911Y-38151D01*
X15913Y-38148D01*
X16030Y-38128D01*
X16071Y-37991D01*
X16266Y-37796D01*
X16266Y-38074D01*
X16050Y-38290D01*
X16073Y-38420D01*
X16337Y-38500D01*
X16612Y-38472D01*
X16737Y-38420D01*
X16760Y-38290D01*
X16760Y-38522D01*
X15760Y-38522D01*
X15760Y-38290D01*
X15405Y-37935D01*
X15266Y-38074D01*
X15266Y-37796D01*
X15084Y-37614D01*
X15081Y-37589D01*
X15030Y-37464D01*
X14913Y-37443D01*
X14911Y-37440D01*
X14905Y-37441D01*
X14899Y-37440D01*
X14897Y-37443D01*
X14781Y-37464D01*
X14739Y-37600D01*
X14544Y-37796D01*
X14726Y-37977D01*
X14729Y-38002D01*
X14781Y-38128D01*
X14897Y-38148D01*
X14899Y-38151D01*
X14905Y-38150D01*
X14911Y-38151D01*
X14913Y-38148D01*
X15030Y-38128D01*
X15071Y-37991D01*
X15266Y-37796D01*
X15266Y-38074D01*
X15050Y-38290D01*
X15073Y-38420D01*
X15337Y-38500D01*
X15612Y-38472D01*
X15737Y-38420D01*
X15760Y-38290D01*
X15760Y-38522D01*
X14760Y-38522D01*
X14760Y-38290D01*
X14405Y-37935D01*
X14266Y-38074D01*
X14266Y-37796D01*
X14084Y-37614D01*
X14081Y-37589D01*
X14030Y-37464D01*
X13913Y-37443D01*
X13911Y-37440D01*
X13905Y-37441D01*
X13899Y-37440D01*
X13897Y-37443D01*
X13781Y-37464D01*
X13739Y-37600D01*
X13544Y-37796D01*
X13726Y-37977D01*
X13729Y-38002D01*
X13781Y-38128D01*
X13897Y-38148D01*
X13899Y-38151D01*
X13905Y-38150D01*
X13911Y-38151D01*
X13913Y-38148D01*
X14030Y-38128D01*
X14071Y-37991D01*
X14266Y-37796D01*
X14266Y-38074D01*
X14050Y-38290D01*
X14073Y-38420D01*
X14337Y-38500D01*
X14612Y-38472D01*
X14737Y-38420D01*
X14760Y-38290D01*
X14760Y-38522D01*
X13760Y-38522D01*
X13760Y-38290D01*
X13405Y-37935D01*
X13266Y-38074D01*
X13266Y-37796D01*
X12911Y-37440D01*
X12781Y-37464D01*
X12701Y-37728D01*
X12729Y-38002D01*
X12781Y-38128D01*
X12911Y-38151D01*
X13266Y-37796D01*
X13266Y-38074D01*
X13050Y-38290D01*
X13073Y-38420D01*
X13337Y-38500D01*
X13612Y-38472D01*
X13737Y-38420D01*
X13760Y-38290D01*
X13760Y-38522D01*
X11059Y-38522D01*
X11059Y-34113D01*
X11031Y-33839D01*
X10980Y-33714D01*
X10849Y-33690D01*
X10710Y-33829D01*
X10710Y-33551D01*
X10687Y-33421D01*
X10423Y-33342D01*
X10148Y-33369D01*
X10023Y-33421D01*
X10000Y-33551D01*
X10355Y-33906D01*
X10710Y-33551D01*
X10710Y-33829D01*
X10494Y-34046D01*
X10849Y-34401D01*
X10980Y-34378D01*
X11059Y-34113D01*
X11059Y-38522D01*
X10710Y-38522D01*
X10710Y-34540D01*
X10355Y-34185D01*
X10216Y-34324D01*
X10216Y-34046D01*
X10034Y-33864D01*
X10031Y-33839D01*
X9980Y-33714D01*
X9863Y-33693D01*
X9861Y-33690D01*
X9855Y-33691D01*
X9849Y-33690D01*
X9847Y-33693D01*
X9731Y-33714D01*
X9710Y-33781D01*
X9710Y-33551D01*
X9687Y-33421D01*
X9423Y-33342D01*
X9148Y-33369D01*
X9023Y-33421D01*
X9000Y-33551D01*
X9355Y-33906D01*
X9710Y-33551D01*
X9710Y-33781D01*
X9689Y-33850D01*
X9494Y-34046D01*
X9676Y-34227D01*
X9679Y-34252D01*
X9731Y-34378D01*
X9847Y-34398D01*
X9849Y-34401D01*
X9855Y-34400D01*
X9861Y-34401D01*
X9863Y-34398D01*
X9980Y-34378D01*
X10021Y-34241D01*
X10216Y-34046D01*
X10216Y-34324D01*
X10000Y-34540D01*
X10023Y-34670D01*
X10287Y-34750D01*
X10562Y-34722D01*
X10687Y-34670D01*
X10710Y-34540D01*
X10710Y-38522D01*
X10702Y-38522D01*
X10702Y-37919D01*
X10678Y-37552D01*
X10584Y-37324D01*
X10430Y-37272D01*
X10291Y-37411D01*
X10291Y-37133D01*
X10239Y-36979D01*
X9890Y-36860D01*
X9710Y-36872D01*
X9710Y-34540D01*
X9355Y-34185D01*
X9000Y-34540D01*
X9023Y-34670D01*
X9287Y-34750D01*
X9562Y-34722D01*
X9687Y-34670D01*
X9710Y-34540D01*
X9710Y-36872D01*
X9523Y-36884D01*
X9295Y-36979D01*
X9243Y-37133D01*
X9767Y-37656D01*
X10291Y-37133D01*
X10291Y-37411D01*
X9906Y-37796D01*
X10430Y-38319D01*
X10584Y-38267D01*
X10702Y-37919D01*
X10702Y-38522D01*
X10270Y-38522D01*
X10291Y-38459D01*
X9767Y-37935D01*
X9628Y-38074D01*
X9628Y-37796D01*
X9104Y-37272D01*
X8950Y-37324D01*
X8832Y-37672D01*
X8856Y-38040D01*
X8950Y-38267D01*
X9104Y-38319D01*
X9628Y-37796D01*
X9628Y-38074D01*
X9243Y-38459D01*
X9265Y-38522D01*
X8609Y-38522D01*
X8260Y-38522D01*
X8260Y-37227D01*
X7905Y-36872D01*
X7550Y-37227D01*
X7573Y-37357D01*
X7837Y-37437D01*
X8112Y-37409D01*
X8237Y-37357D01*
X8260Y-37227D01*
X8260Y-38522D01*
X7810Y-38522D01*
X6729Y-37441D01*
X6729Y-37283D01*
X6790Y-37308D01*
X7019Y-37308D01*
X7231Y-37221D01*
X7371Y-37081D01*
X7411Y-37088D01*
X7766Y-36733D01*
X7760Y-36727D01*
X7899Y-36588D01*
X7905Y-36593D01*
X7911Y-36588D01*
X8050Y-36727D01*
X8044Y-36733D01*
X8399Y-37088D01*
X8530Y-37065D01*
X8609Y-36800D01*
X8581Y-36526D01*
X8530Y-36401D01*
X8399Y-36377D01*
X8473Y-36303D01*
X8407Y-36237D01*
X8481Y-36061D01*
X8481Y-35832D01*
X8393Y-35620D01*
X8279Y-35506D01*
X8279Y-35246D01*
X8251Y-35102D01*
X8169Y-34981D01*
X7919Y-34731D01*
X7798Y-34650D01*
X7774Y-34645D01*
X7655Y-34622D01*
X6860Y-34622D01*
X6814Y-34576D01*
X6889Y-34502D01*
X6920Y-34425D01*
X7029Y-34533D01*
X7240Y-34621D01*
X7469Y-34621D01*
X7681Y-34534D01*
X7843Y-34372D01*
X7855Y-34343D01*
X7867Y-34371D01*
X8029Y-34533D01*
X8240Y-34621D01*
X8469Y-34621D01*
X8681Y-34534D01*
X8821Y-34394D01*
X8861Y-34401D01*
X9216Y-34046D01*
X8861Y-33690D01*
X8821Y-33697D01*
X8681Y-33558D01*
X8470Y-33470D01*
X8241Y-33470D01*
X8029Y-33557D01*
X7867Y-33719D01*
X7855Y-33749D01*
X7843Y-33720D01*
X7681Y-33558D01*
X7470Y-33470D01*
X7241Y-33470D01*
X7029Y-33557D01*
X6920Y-33666D01*
X6889Y-33589D01*
X6811Y-33512D01*
X6710Y-33470D01*
X6600Y-33470D01*
X6000Y-33470D01*
X5899Y-33512D01*
X5821Y-33589D01*
X5779Y-33691D01*
X5779Y-33800D01*
X5779Y-34400D01*
X5821Y-34502D01*
X5899Y-34579D01*
X5981Y-34613D01*
X5981Y-34646D01*
X5981Y-37596D01*
X6005Y-37715D01*
X6009Y-37739D01*
X6091Y-37860D01*
X7303Y-39072D01*
X5978Y-39072D01*
X5978Y-37919D01*
X5954Y-37552D01*
X5860Y-37324D01*
X5706Y-37272D01*
X5567Y-37411D01*
X5567Y-37133D01*
X5515Y-36979D01*
X5166Y-36860D01*
X4799Y-36884D01*
X4571Y-36979D01*
X4519Y-37133D01*
X5043Y-37656D01*
X5567Y-37133D01*
X5567Y-37411D01*
X5182Y-37796D01*
X5706Y-38319D01*
X5860Y-38267D01*
X5978Y-37919D01*
X5978Y-39072D01*
X5567Y-39072D01*
X5567Y-38459D01*
X5043Y-37935D01*
X4904Y-38074D01*
X4904Y-37796D01*
X4380Y-37272D01*
X4226Y-37324D01*
X4108Y-37672D01*
X4132Y-38040D01*
X4226Y-38267D01*
X4380Y-38319D01*
X4904Y-37796D01*
X4904Y-38074D01*
X4519Y-38459D01*
X4571Y-38612D01*
X4920Y-38731D01*
X5287Y-38707D01*
X5515Y-38612D01*
X5567Y-38459D01*
X5567Y-39072D01*
X2777Y-39072D01*
X2777Y-37982D01*
X2757Y-37508D01*
X2614Y-37161D01*
X2432Y-37076D01*
X2293Y-37216D01*
X2293Y-36937D01*
X2208Y-36756D01*
X1762Y-36592D01*
X1287Y-36612D01*
X941Y-36756D01*
X856Y-36937D01*
X1574Y-37656D01*
X2293Y-36937D01*
X2293Y-37216D01*
X1713Y-37795D01*
X2432Y-38513D01*
X2614Y-38428D01*
X2777Y-37982D01*
X2777Y-39072D01*
X2293Y-39072D01*
X2293Y-38652D01*
X1574Y-37934D01*
X1435Y-38073D01*
X1435Y-37795D01*
X717Y-37076D01*
X535Y-37161D01*
X372Y-37607D01*
X392Y-38082D01*
X535Y-38428D01*
X717Y-38513D01*
X1435Y-37795D01*
X1435Y-38073D01*
X856Y-38652D01*
X941Y-38834D01*
X1387Y-38997D01*
X1861Y-38978D01*
X2208Y-38834D01*
X2293Y-38652D01*
X2293Y-39072D01*
X328Y-39072D01*
X328Y-32765D01*
X379Y-32816D01*
X379Y-32816D01*
X596Y-32961D01*
X852Y-33012D01*
X852Y-33012D01*
X852Y-33012D01*
X1389Y-33012D01*
X1389Y-33012D01*
X1389Y-33012D01*
X1389Y-33012D01*
X2339Y-33012D01*
X2491Y-33012D01*
X2705Y-33012D01*
X2919Y-33012D01*
X3175Y-32961D01*
X3392Y-32816D01*
X3537Y-32599D01*
X3588Y-32343D01*
X3537Y-32087D01*
X3487Y-32012D01*
X4305Y-32012D01*
X4403Y-31992D01*
X4495Y-32012D01*
X4500Y-32011D01*
X4505Y-32012D01*
X4666Y-31980D01*
X4827Y-31950D01*
X4831Y-31947D01*
X4836Y-31946D01*
X4973Y-31855D01*
X5110Y-31765D01*
X5113Y-31761D01*
X5117Y-31758D01*
X6155Y-30721D01*
X6166Y-30777D01*
X6290Y-30962D01*
X6475Y-31086D01*
X6693Y-31130D01*
X7117Y-31130D01*
X7335Y-31086D01*
X7520Y-30962D01*
X7644Y-30777D01*
X7688Y-30559D01*
X7644Y-30340D01*
X7524Y-30161D01*
X7705Y-29890D01*
X7771Y-29559D01*
X7705Y-29227D01*
X7592Y-29058D01*
X7607Y-29047D01*
X7756Y-28816D01*
X7760Y-28762D01*
X7760Y-28355D01*
X7756Y-28301D01*
X7607Y-28070D01*
X7382Y-27914D01*
X7114Y-27856D01*
X7003Y-27961D01*
X7003Y-28460D01*
X7684Y-28460D01*
X7760Y-28355D01*
X7760Y-28762D01*
X7684Y-28657D01*
X7003Y-28657D01*
X7003Y-28665D01*
X6807Y-28665D01*
X6807Y-28657D01*
X6807Y-28460D01*
X6807Y-27961D01*
X6696Y-27856D01*
X6428Y-27914D01*
X6203Y-28070D01*
X6054Y-28301D01*
X6050Y-28355D01*
X6126Y-28460D01*
X6807Y-28460D01*
X6807Y-28657D01*
X6126Y-28657D01*
X6101Y-28692D01*
X6092Y-28692D01*
X5892Y-28692D01*
X3475Y-28692D01*
X3537Y-28599D01*
X3588Y-28343D01*
X3537Y-28087D01*
X3392Y-27870D01*
X3175Y-27724D01*
X2919Y-27674D01*
X2705Y-27674D01*
X2491Y-27674D01*
X2224Y-27674D01*
X2224Y-27075D01*
X2374Y-27175D01*
X2705Y-27240D01*
X2776Y-27240D01*
X4426Y-27240D01*
X4758Y-27175D01*
X4758Y-27175D01*
X5039Y-26987D01*
X5817Y-26208D01*
X6005Y-25927D01*
X6071Y-25596D01*
X6071Y-25204D01*
X6138Y-25137D01*
X6166Y-25277D01*
X6290Y-25462D01*
X6475Y-25586D01*
X6693Y-25630D01*
X7117Y-25630D01*
X7335Y-25586D01*
X7520Y-25462D01*
X7644Y-25277D01*
X7688Y-25059D01*
X7644Y-24840D01*
X7524Y-24661D01*
X7705Y-24390D01*
X7771Y-24059D01*
X7705Y-23727D01*
X7592Y-23558D01*
X7607Y-23547D01*
X7756Y-23316D01*
X7760Y-23262D01*
X7760Y-22855D01*
X7756Y-22801D01*
X7607Y-22570D01*
X7382Y-22414D01*
X7114Y-22356D01*
X7003Y-22461D01*
X7003Y-22960D01*
X7684Y-22960D01*
X7760Y-22855D01*
X7760Y-23262D01*
X7684Y-23157D01*
X7003Y-23157D01*
X7003Y-23165D01*
X6807Y-23165D01*
X6807Y-23157D01*
X6807Y-22960D01*
X6807Y-22461D01*
X6696Y-22356D01*
X6428Y-22414D01*
X6203Y-22570D01*
X6054Y-22801D01*
X6050Y-22855D01*
X6126Y-22960D01*
X6807Y-22960D01*
X6807Y-23157D01*
X6126Y-23157D01*
X6101Y-23192D01*
X5992Y-23192D01*
X5092Y-23192D01*
X4761Y-23258D01*
X4480Y-23446D01*
X3658Y-24268D01*
X3658Y-22594D01*
X3658Y-22155D01*
X3528Y-21887D01*
X3294Y-21685D01*
X3000Y-21587D01*
X2803Y-21587D01*
X2803Y-22276D01*
X3584Y-22276D01*
X3658Y-22155D01*
X3658Y-22594D01*
X3584Y-22473D01*
X2803Y-22473D01*
X2803Y-23162D01*
X3000Y-23162D01*
X3294Y-23064D01*
X3528Y-22861D01*
X3658Y-22594D01*
X3658Y-24268D01*
X3587Y-24338D01*
X3537Y-24087D01*
X3392Y-23870D01*
X3175Y-23724D01*
X2998Y-23689D01*
X2581Y-23272D01*
X2416Y-23162D01*
X2607Y-23162D01*
X2607Y-22473D01*
X2607Y-22276D01*
X2607Y-21587D01*
X2410Y-21587D01*
X2116Y-21685D01*
X1882Y-21887D01*
X1752Y-22155D01*
X1826Y-22276D01*
X2607Y-22276D01*
X2607Y-22473D01*
X1826Y-22473D01*
X1752Y-22594D01*
X1882Y-22861D01*
X2116Y-23064D01*
X2219Y-23098D01*
X2108Y-23076D01*
X2108Y-23076D01*
X1555Y-23076D01*
X1005Y-23076D01*
X1005Y-23076D01*
X749Y-23127D01*
X532Y-23272D01*
X328Y-23476D01*
X328Y-20665D01*
X479Y-20816D01*
X479Y-20816D01*
X696Y-20961D01*
X952Y-21012D01*
X1389Y-21012D01*
X1789Y-21012D01*
X1789Y-21012D01*
X1789Y-21012D01*
X1789Y-21012D01*
X2491Y-21012D01*
X2705Y-21012D01*
X2705Y-21012D01*
X2705Y-21012D01*
X2705Y-21012D01*
X2919Y-21012D01*
X3175Y-20961D01*
X3392Y-20816D01*
X3537Y-20599D01*
X3588Y-20343D01*
X3537Y-20087D01*
X3520Y-20062D01*
X5281Y-20062D01*
X5612Y-19996D01*
X5612Y-19996D01*
X5893Y-19808D01*
X6126Y-19576D01*
X6166Y-19777D01*
X6290Y-19962D01*
X6475Y-20086D01*
X6693Y-20130D01*
X7117Y-20130D01*
X7335Y-20086D01*
X7520Y-19962D01*
X7644Y-19777D01*
X7688Y-19559D01*
X7644Y-19340D01*
X7524Y-19161D01*
X7705Y-18890D01*
X7771Y-18559D01*
X7705Y-18227D01*
X7592Y-18058D01*
X7607Y-18047D01*
X7756Y-17816D01*
X7760Y-17762D01*
X7760Y-17355D01*
X7756Y-17301D01*
X7607Y-17070D01*
X7382Y-16914D01*
X7114Y-16856D01*
X7003Y-16961D01*
X7003Y-17460D01*
X7684Y-17460D01*
X7760Y-17355D01*
X7760Y-17762D01*
X7684Y-17657D01*
X7003Y-17657D01*
X7003Y-17665D01*
X6807Y-17665D01*
X6807Y-17657D01*
X6799Y-17657D01*
X6799Y-17460D01*
X6807Y-17460D01*
X6807Y-16961D01*
X6696Y-16856D01*
X6428Y-16914D01*
X6203Y-17070D01*
X6054Y-17301D01*
X6050Y-17355D01*
X6126Y-17460D01*
X6044Y-17460D01*
X5717Y-17133D01*
X5436Y-16945D01*
X5105Y-16879D01*
X3658Y-16879D01*
X3658Y-14594D01*
X3658Y-14155D01*
X3528Y-13887D01*
X3294Y-13685D01*
X3000Y-13587D01*
X2803Y-13587D01*
X2803Y-14276D01*
X3584Y-14276D01*
X3658Y-14155D01*
X3658Y-14594D01*
X3584Y-14473D01*
X2803Y-14473D01*
X2803Y-15162D01*
X3000Y-15162D01*
X3294Y-15064D01*
X3528Y-14861D01*
X3658Y-14594D01*
X3658Y-16879D01*
X3405Y-16879D01*
X3252Y-16910D01*
X3392Y-16816D01*
X3537Y-16599D01*
X3588Y-16343D01*
X3537Y-16087D01*
X3392Y-15870D01*
X3175Y-15724D01*
X2919Y-15674D01*
X2705Y-15674D01*
X2491Y-15674D01*
X2466Y-15674D01*
X2074Y-15281D01*
X2074Y-15028D01*
X2116Y-15064D01*
X2410Y-15162D01*
X2607Y-15162D01*
X2607Y-14473D01*
X2599Y-14473D01*
X2599Y-14276D01*
X2607Y-14276D01*
X2607Y-13587D01*
X2410Y-13587D01*
X2116Y-13685D01*
X2074Y-13721D01*
X2074Y-11755D01*
X2128Y-11719D01*
X3282Y-10565D01*
X4224Y-10565D01*
X4221Y-10568D01*
X4116Y-10821D01*
X4116Y-11095D01*
X4221Y-11348D01*
X4355Y-11483D01*
X4347Y-11483D01*
X4136Y-11570D01*
X3974Y-11732D01*
X3886Y-11944D01*
X3886Y-12173D01*
X3973Y-12384D01*
X4135Y-12546D01*
X4346Y-12634D01*
X4575Y-12634D01*
X4787Y-12547D01*
X4949Y-12385D01*
X4961Y-12356D01*
X4973Y-12384D01*
X5135Y-12546D01*
X5346Y-12634D01*
X5575Y-12634D01*
X5787Y-12547D01*
X5949Y-12385D01*
X5961Y-12356D01*
X5973Y-12384D01*
X6135Y-12546D01*
X6346Y-12634D01*
X6575Y-12634D01*
X6787Y-12547D01*
X6949Y-12385D01*
X6961Y-12356D01*
X6973Y-12384D01*
X7135Y-12546D01*
X7346Y-12634D01*
X7575Y-12634D01*
X7787Y-12547D01*
X7949Y-12385D01*
X7961Y-12356D01*
X7973Y-12384D01*
X8135Y-12546D01*
X8346Y-12634D01*
X8575Y-12634D01*
X8787Y-12547D01*
X8949Y-12385D01*
X8961Y-12356D01*
X8973Y-12384D01*
X9135Y-12546D01*
X9346Y-12634D01*
X9575Y-12634D01*
X9787Y-12547D01*
X9949Y-12385D01*
X9961Y-12356D01*
X9973Y-12384D01*
X10135Y-12546D01*
X10346Y-12634D01*
X10575Y-12634D01*
X10787Y-12547D01*
X10949Y-12385D01*
X10961Y-12356D01*
X10973Y-12384D01*
X11135Y-12546D01*
X11346Y-12634D01*
X11575Y-12634D01*
X11787Y-12547D01*
X11949Y-12385D01*
X12037Y-12174D01*
X12037Y-11945D01*
X11950Y-11733D01*
X11788Y-11571D01*
X11576Y-11483D01*
X11347Y-11483D01*
X11136Y-11570D01*
X10974Y-11732D01*
X10961Y-11762D01*
X10950Y-11733D01*
X10788Y-11571D01*
X10576Y-11483D01*
X10347Y-11483D01*
X10136Y-11570D01*
X9974Y-11732D01*
X9961Y-11762D01*
X9950Y-11733D01*
X9864Y-11648D01*
X9941Y-11648D01*
X10195Y-11543D01*
X10389Y-11349D01*
X10494Y-11096D01*
X10494Y-10822D01*
X10389Y-10569D01*
X10386Y-10565D01*
X12224Y-10565D01*
X12221Y-10568D01*
X12116Y-10821D01*
X12116Y-11095D01*
X12221Y-11348D01*
X12410Y-11538D01*
X12333Y-11570D01*
X12170Y-11732D01*
X12083Y-11944D01*
X12082Y-12173D01*
X12170Y-12384D01*
X12332Y-12546D01*
X12543Y-12634D01*
X12772Y-12634D01*
X12984Y-12547D01*
X13146Y-12385D01*
X13158Y-12356D01*
X13170Y-12384D01*
X13332Y-12546D01*
X13543Y-12634D01*
X13772Y-12634D01*
X13984Y-12547D01*
X14146Y-12385D01*
X14158Y-12356D01*
X14170Y-12384D01*
X14332Y-12546D01*
X14543Y-12634D01*
X14772Y-12634D01*
X14984Y-12547D01*
X15146Y-12385D01*
X15158Y-12356D01*
X15170Y-12384D01*
X15332Y-12546D01*
X15543Y-12634D01*
X15772Y-12634D01*
X15984Y-12547D01*
X16146Y-12385D01*
X16158Y-12356D01*
X16170Y-12384D01*
X16332Y-12546D01*
X16543Y-12634D01*
X16772Y-12634D01*
X16984Y-12547D01*
X17146Y-12385D01*
X17158Y-12356D01*
X17170Y-12384D01*
X17332Y-12546D01*
X17543Y-12634D01*
X17772Y-12634D01*
X17984Y-12547D01*
X18146Y-12385D01*
X18158Y-12356D01*
X18170Y-12384D01*
X18332Y-12546D01*
X18543Y-12634D01*
X18772Y-12634D01*
X18984Y-12547D01*
X19146Y-12385D01*
X19158Y-12356D01*
X19170Y-12384D01*
X19332Y-12546D01*
X19543Y-12634D01*
X19772Y-12634D01*
X19984Y-12547D01*
X20146Y-12385D01*
X20234Y-12174D01*
X20234Y-11945D01*
X20146Y-11733D01*
X19985Y-11571D01*
X19773Y-11483D01*
X19544Y-11483D01*
X19333Y-11570D01*
X19170Y-11732D01*
X19158Y-11762D01*
X19146Y-11733D01*
X18985Y-11571D01*
X18773Y-11483D01*
X18544Y-11483D01*
X18333Y-11570D01*
X18170Y-11732D01*
X18158Y-11762D01*
X18146Y-11733D01*
X18026Y-11613D01*
X18195Y-11543D01*
X18389Y-11349D01*
X18494Y-11096D01*
X18494Y-10822D01*
X18389Y-10569D01*
X18386Y-10565D01*
X20224Y-10565D01*
X20221Y-10568D01*
X20116Y-10821D01*
X20116Y-11095D01*
X20221Y-11348D01*
X20414Y-11542D01*
X20515Y-11584D01*
X20367Y-11732D01*
X20280Y-11944D01*
X20279Y-12173D01*
X20367Y-12384D01*
X20529Y-12546D01*
X20740Y-12634D01*
X20969Y-12634D01*
X21181Y-12547D01*
X21343Y-12385D01*
X21355Y-12356D01*
X21367Y-12384D01*
X21529Y-12546D01*
X21740Y-12634D01*
X21969Y-12634D01*
X22181Y-12547D01*
X22343Y-12385D01*
X22355Y-12356D01*
X22367Y-12384D01*
X22529Y-12546D01*
X22740Y-12634D01*
X22969Y-12634D01*
X23181Y-12547D01*
X23343Y-12385D01*
X23355Y-12356D01*
X23367Y-12384D01*
X23529Y-12546D01*
X23740Y-12634D01*
X23969Y-12634D01*
X24181Y-12547D01*
X24343Y-12385D01*
X24355Y-12356D01*
X24367Y-12384D01*
X24529Y-12546D01*
X24740Y-12634D01*
X24969Y-12634D01*
X25181Y-12547D01*
X25343Y-12385D01*
X25355Y-12356D01*
X25367Y-12384D01*
X25529Y-12546D01*
X25740Y-12634D01*
X25969Y-12634D01*
X26181Y-12547D01*
X26343Y-12385D01*
X26355Y-12356D01*
X26367Y-12384D01*
X26529Y-12546D01*
X26740Y-12634D01*
X26969Y-12634D01*
X27181Y-12547D01*
X27343Y-12385D01*
X27355Y-12356D01*
X27367Y-12384D01*
X27529Y-12546D01*
X27740Y-12634D01*
X27969Y-12634D01*
X28181Y-12547D01*
X28343Y-12385D01*
X28431Y-12174D01*
X28431Y-11945D01*
X28343Y-11733D01*
X28181Y-11571D01*
X27970Y-11483D01*
X27741Y-11483D01*
X27529Y-11570D01*
X27367Y-11732D01*
X27355Y-11762D01*
X27343Y-11733D01*
X27181Y-11571D01*
X26970Y-11483D01*
X26741Y-11483D01*
X26529Y-11570D01*
X26367Y-11732D01*
X26355Y-11762D01*
X26343Y-11733D01*
X26181Y-11571D01*
X26154Y-11560D01*
X26195Y-11543D01*
X26389Y-11349D01*
X26494Y-11096D01*
X26494Y-10822D01*
X26389Y-10569D01*
X26386Y-10565D01*
X28224Y-10565D01*
X28221Y-10568D01*
X28116Y-10821D01*
X28116Y-11095D01*
X28221Y-11348D01*
X28414Y-11542D01*
X28654Y-11642D01*
X28564Y-11732D01*
X28476Y-11944D01*
X28476Y-12173D01*
X28564Y-12384D01*
X28725Y-12546D01*
X28937Y-12634D01*
X29166Y-12634D01*
X29377Y-12547D01*
X29540Y-12385D01*
X29552Y-12356D01*
X29564Y-12384D01*
X29725Y-12546D01*
X29937Y-12634D01*
X30166Y-12634D01*
X30377Y-12547D01*
X30540Y-12385D01*
X30552Y-12356D01*
X30564Y-12384D01*
X30725Y-12546D01*
X30937Y-12634D01*
X31166Y-12634D01*
X31377Y-12547D01*
X31540Y-12385D01*
X31552Y-12356D01*
X31564Y-12384D01*
X31725Y-12546D01*
X31937Y-12634D01*
X32166Y-12634D01*
X32377Y-12547D01*
X32540Y-12385D01*
X32552Y-12356D01*
X32564Y-12384D01*
X32725Y-12546D01*
X32937Y-12634D01*
X33166Y-12634D01*
X33377Y-12547D01*
X33540Y-12385D01*
X33552Y-12356D01*
X33564Y-12384D01*
X33725Y-12546D01*
X33937Y-12634D01*
X34166Y-12634D01*
X34377Y-12547D01*
X34540Y-12385D01*
X34552Y-12356D01*
X34564Y-12384D01*
X34725Y-12546D01*
X34937Y-12634D01*
X35166Y-12634D01*
X35377Y-12547D01*
X35540Y-12385D01*
X35552Y-12356D01*
X35564Y-12384D01*
X35725Y-12546D01*
X35937Y-12634D01*
X36166Y-12634D01*
X36377Y-12547D01*
X36540Y-12385D01*
X36627Y-12174D01*
X36628Y-11945D01*
X36540Y-11733D01*
X36378Y-11571D01*
X36167Y-11483D01*
X35938Y-11483D01*
X35726Y-11570D01*
X35564Y-11732D01*
X35552Y-11762D01*
X35540Y-11733D01*
X35378Y-11571D01*
X35167Y-11483D01*
X34938Y-11483D01*
X34726Y-11570D01*
X34564Y-11732D01*
X34552Y-11762D01*
X34540Y-11733D01*
X34378Y-11571D01*
X34229Y-11509D01*
X34389Y-11349D01*
X34494Y-11096D01*
X34494Y-10822D01*
X34389Y-10569D01*
X34196Y-10375D01*
X33943Y-10270D01*
X33669Y-10269D01*
X33415Y-10374D01*
X33311Y-10479D01*
X33306Y-10471D01*
X33082Y-10322D01*
X32819Y-10270D01*
X32792Y-10270D01*
X32528Y-10322D01*
X32304Y-10471D01*
X32299Y-10479D01*
X32196Y-10375D01*
X31943Y-10270D01*
X31669Y-10269D01*
X31415Y-10374D01*
X31311Y-10479D01*
X31306Y-10471D01*
X31082Y-10322D01*
X30819Y-10270D01*
X30792Y-10270D01*
X30528Y-10322D01*
X30305Y-10471D01*
X30082Y-10322D01*
X29819Y-10270D01*
X29792Y-10270D01*
X29528Y-10322D01*
X29304Y-10471D01*
X29299Y-10479D01*
X29196Y-10375D01*
X29144Y-10353D01*
X29532Y-9965D01*
X36278Y-9965D01*
X37436Y-11123D01*
X37436Y-11496D01*
X37487Y-11752D01*
X37529Y-11816D01*
X37529Y-11850D01*
X37560Y-11925D01*
X37405Y-11925D01*
X37187Y-11968D01*
X37001Y-12092D01*
X36701Y-12392D01*
X36578Y-12577D01*
X36534Y-12796D01*
X36534Y-16659D01*
X35106Y-18088D01*
X33659Y-18088D01*
X33579Y-18034D01*
X33320Y-17983D01*
X33090Y-17983D01*
X32831Y-18034D01*
X32612Y-18181D01*
X32466Y-18400D01*
X32414Y-18659D01*
X32466Y-18917D01*
X32578Y-19085D01*
X32464Y-19191D01*
X32343Y-19438D01*
X32417Y-19560D01*
X33107Y-19560D01*
X33107Y-19552D01*
X33303Y-19552D01*
X33303Y-19560D01*
X33993Y-19560D01*
X34067Y-19438D01*
X33965Y-19229D01*
X34131Y-19229D01*
X34131Y-21696D01*
X34155Y-21815D01*
X34159Y-21839D01*
X34241Y-21960D01*
X35591Y-23310D01*
X35591Y-23310D01*
X35631Y-23337D01*
X35631Y-23696D01*
X35631Y-25923D01*
X35595Y-25908D01*
X35583Y-25908D01*
X34246Y-24570D01*
X34246Y-24570D01*
X34219Y-24531D01*
X33579Y-23891D01*
X33579Y-21283D01*
X33798Y-21136D01*
X33944Y-20917D01*
X33996Y-20659D01*
X33944Y-20400D01*
X33832Y-20232D01*
X33946Y-20126D01*
X34067Y-19879D01*
X33993Y-19757D01*
X33303Y-19757D01*
X33303Y-19765D01*
X33107Y-19765D01*
X33107Y-19757D01*
X32417Y-19757D01*
X32343Y-19879D01*
X32464Y-20126D01*
X32578Y-20232D01*
X32466Y-20400D01*
X32414Y-20659D01*
X32466Y-20917D01*
X32612Y-21136D01*
X32831Y-21283D01*
X32831Y-24046D01*
X32855Y-24165D01*
X32859Y-24189D01*
X32941Y-24310D01*
X33664Y-25034D01*
X33691Y-25073D01*
X35054Y-26437D01*
X35054Y-26448D01*
X35123Y-26613D01*
X35194Y-26685D01*
X34160Y-26685D01*
X32769Y-25294D01*
X32648Y-25213D01*
X32624Y-25208D01*
X32609Y-25205D01*
X32609Y-24626D01*
X32581Y-24352D01*
X32530Y-24226D01*
X32399Y-24203D01*
X32044Y-24559D01*
X32399Y-24914D01*
X32530Y-24891D01*
X32609Y-24626D01*
X32609Y-25205D01*
X32505Y-25185D01*
X32345Y-25185D01*
X32253Y-25093D01*
X32260Y-25053D01*
X31905Y-24698D01*
X31550Y-25053D01*
X31557Y-25093D01*
X31439Y-25210D01*
X31399Y-25203D01*
X31044Y-25559D01*
X31050Y-25564D01*
X30911Y-25703D01*
X30905Y-25698D01*
X30766Y-25837D01*
X30766Y-25559D01*
X30411Y-25203D01*
X30281Y-25226D01*
X30201Y-25491D01*
X30229Y-25765D01*
X30281Y-25891D01*
X30411Y-25914D01*
X30766Y-25559D01*
X30766Y-25837D01*
X30550Y-26053D01*
X30557Y-26093D01*
X30417Y-26232D01*
X30330Y-26444D01*
X30329Y-26673D01*
X30354Y-26733D01*
X30056Y-26733D01*
X30056Y-26569D01*
X29987Y-26404D01*
X29861Y-26277D01*
X29695Y-26208D01*
X29516Y-26208D01*
X29350Y-26276D01*
X29231Y-26396D01*
X29231Y-26096D01*
X29206Y-25971D01*
X29206Y-25971D01*
X29206Y-25856D01*
X29137Y-25691D01*
X29117Y-25671D01*
X29137Y-25651D01*
X29206Y-25486D01*
X29206Y-25306D01*
X29137Y-25141D01*
X29081Y-25084D01*
X29081Y-25080D01*
X29277Y-24884D01*
X30417Y-24884D01*
X30417Y-24884D01*
X30557Y-25024D01*
X30550Y-25064D01*
X30905Y-25419D01*
X31260Y-25064D01*
X31253Y-25024D01*
X31371Y-24907D01*
X31411Y-24914D01*
X31766Y-24559D01*
X31411Y-24203D01*
X31371Y-24210D01*
X31284Y-24124D01*
X31361Y-24092D01*
X31439Y-24015D01*
X31470Y-23938D01*
X31557Y-24024D01*
X31550Y-24064D01*
X31905Y-24419D01*
X32260Y-24064D01*
X32253Y-24024D01*
X32393Y-23885D01*
X32481Y-23674D01*
X32481Y-23445D01*
X32393Y-23233D01*
X32231Y-23071D01*
X32020Y-22983D01*
X31791Y-22983D01*
X31579Y-23070D01*
X31470Y-23179D01*
X31439Y-23102D01*
X31361Y-23025D01*
X31260Y-22983D01*
X31150Y-22983D01*
X30550Y-22983D01*
X30449Y-23025D01*
X30431Y-23043D01*
X30431Y-20382D01*
X30343Y-20170D01*
X30234Y-20061D01*
X30311Y-20029D01*
X30389Y-19952D01*
X30431Y-19850D01*
X30431Y-19741D01*
X30431Y-19141D01*
X30389Y-19039D01*
X30311Y-18962D01*
X30210Y-18920D01*
X30100Y-18920D01*
X29500Y-18920D01*
X29399Y-18962D01*
X29321Y-19039D01*
X29290Y-19116D01*
X29181Y-19008D01*
X28970Y-18920D01*
X28741Y-18920D01*
X28529Y-19007D01*
X28367Y-19169D01*
X28355Y-19199D01*
X28343Y-19170D01*
X28181Y-19008D01*
X27970Y-18920D01*
X27741Y-18920D01*
X27529Y-19007D01*
X27367Y-19169D01*
X27355Y-19199D01*
X27343Y-19170D01*
X27181Y-19008D01*
X26970Y-18920D01*
X26741Y-18920D01*
X26529Y-19007D01*
X26367Y-19169D01*
X26280Y-19381D01*
X26279Y-19610D01*
X26367Y-19821D01*
X26529Y-19983D01*
X26558Y-19995D01*
X26529Y-20007D01*
X26367Y-20169D01*
X26280Y-20381D01*
X26279Y-20610D01*
X26367Y-20821D01*
X26529Y-20983D01*
X26740Y-21071D01*
X26969Y-21071D01*
X27181Y-20984D01*
X27343Y-20822D01*
X27355Y-20793D01*
X27367Y-20821D01*
X27529Y-20983D01*
X27740Y-21071D01*
X27969Y-21071D01*
X28181Y-20984D01*
X28343Y-20822D01*
X28355Y-20793D01*
X28367Y-20821D01*
X28529Y-20983D01*
X28740Y-21071D01*
X28969Y-21071D01*
X29181Y-20984D01*
X29343Y-20822D01*
X29355Y-20793D01*
X29367Y-20821D01*
X29529Y-20983D01*
X29740Y-21071D01*
X29969Y-21071D01*
X30181Y-20984D01*
X30343Y-20822D01*
X30431Y-20611D01*
X30431Y-20382D01*
X30431Y-23043D01*
X30371Y-23102D01*
X30329Y-23204D01*
X30329Y-23313D01*
X30329Y-23913D01*
X30371Y-24015D01*
X30449Y-24092D01*
X30526Y-24124D01*
X30417Y-24232D01*
X30417Y-24233D01*
X29142Y-24233D01*
X29017Y-24258D01*
X28912Y-24328D01*
X28525Y-24715D01*
X28454Y-24821D01*
X28429Y-24946D01*
X28429Y-25084D01*
X28373Y-25140D01*
X28304Y-25306D01*
X28304Y-25485D01*
X28373Y-25650D01*
X28393Y-25670D01*
X28373Y-25690D01*
X28304Y-25856D01*
X28304Y-26035D01*
X28373Y-26200D01*
X28499Y-26327D01*
X28579Y-26361D01*
X28579Y-27196D01*
X28579Y-27659D01*
X28579Y-28509D01*
X28604Y-28633D01*
X28675Y-28739D01*
X30225Y-30289D01*
X30330Y-30359D01*
X30362Y-30366D01*
X30330Y-30444D01*
X30329Y-30673D01*
X30417Y-30884D01*
X30579Y-31046D01*
X30790Y-31134D01*
X31019Y-31134D01*
X31231Y-31047D01*
X31371Y-30907D01*
X31411Y-30914D01*
X31766Y-30559D01*
X31760Y-30553D01*
X31899Y-30414D01*
X31905Y-30419D01*
X32260Y-30064D01*
X32253Y-30024D01*
X32393Y-29885D01*
X32481Y-29674D01*
X32481Y-29445D01*
X32393Y-29233D01*
X32231Y-29071D01*
X32202Y-29059D01*
X32231Y-29047D01*
X32393Y-28885D01*
X32481Y-28674D01*
X32481Y-28445D01*
X32393Y-28233D01*
X32231Y-28071D01*
X32202Y-28059D01*
X32231Y-28047D01*
X32393Y-27885D01*
X32481Y-27674D01*
X32481Y-27445D01*
X32393Y-27233D01*
X32231Y-27071D01*
X32202Y-27059D01*
X32231Y-27047D01*
X32393Y-26885D01*
X32481Y-26674D01*
X32481Y-26495D01*
X32779Y-26793D01*
X32779Y-31904D01*
X32609Y-31734D01*
X32609Y-30626D01*
X32581Y-30352D01*
X32530Y-30226D01*
X32399Y-30203D01*
X32044Y-30559D01*
X32399Y-30914D01*
X32530Y-30891D01*
X32609Y-30626D01*
X32609Y-31734D01*
X32269Y-31394D01*
X32260Y-31388D01*
X32260Y-31053D01*
X31905Y-30698D01*
X31550Y-31053D01*
X31573Y-31183D01*
X31837Y-31263D01*
X32112Y-31235D01*
X32237Y-31183D01*
X32260Y-31053D01*
X32260Y-31388D01*
X32148Y-31313D01*
X32124Y-31308D01*
X32005Y-31285D01*
X26668Y-31285D01*
X26668Y-27241D01*
X26583Y-27037D01*
X26427Y-26881D01*
X26223Y-26796D01*
X26002Y-26796D01*
X25798Y-26880D01*
X25641Y-27036D01*
X25557Y-27240D01*
X25556Y-27461D01*
X25641Y-27666D01*
X25797Y-27822D01*
X26001Y-27907D01*
X26222Y-27907D01*
X26426Y-27823D01*
X26583Y-27667D01*
X26668Y-27462D01*
X26668Y-27241D01*
X26668Y-31285D01*
X26560Y-31285D01*
X26456Y-31180D01*
X26456Y-31169D01*
X26387Y-31004D01*
X26261Y-30877D01*
X26095Y-30808D01*
X26023Y-30808D01*
X25905Y-30785D01*
X25254Y-30785D01*
X25254Y-28656D01*
X25169Y-28451D01*
X25013Y-28295D01*
X24809Y-28210D01*
X24588Y-28210D01*
X24384Y-28294D01*
X24227Y-28451D01*
X24142Y-28655D01*
X24142Y-28876D01*
X24227Y-29080D01*
X24383Y-29236D01*
X24587Y-29321D01*
X24808Y-29321D01*
X25012Y-29237D01*
X25169Y-29081D01*
X25253Y-28877D01*
X25254Y-28656D01*
X25254Y-30785D01*
X25005Y-30785D01*
X21341Y-30785D01*
X21356Y-30749D01*
X21356Y-30569D01*
X21287Y-30404D01*
X21161Y-30277D01*
X20995Y-30208D01*
X20816Y-30208D01*
X20650Y-30276D01*
X20593Y-30333D01*
X19617Y-30333D01*
X19561Y-30277D01*
X19395Y-30208D01*
X19216Y-30208D01*
X19050Y-30276D01*
X18931Y-30396D01*
X18931Y-30259D01*
X18906Y-30134D01*
X18835Y-30028D01*
X17231Y-28424D01*
X17231Y-27459D01*
X17206Y-27334D01*
X17135Y-27228D01*
X16781Y-26874D01*
X16781Y-23153D01*
X16915Y-23209D01*
X17094Y-23209D01*
X17260Y-23141D01*
X17387Y-23014D01*
X17456Y-22849D01*
X17456Y-22669D01*
X17387Y-22504D01*
X17261Y-22377D01*
X17095Y-22308D01*
X17015Y-22308D01*
X17008Y-22301D01*
X17008Y-22216D01*
X17635Y-21589D01*
X17635Y-21589D01*
X17635Y-21589D01*
X18340Y-20884D01*
X18905Y-20884D01*
X19030Y-20859D01*
X19135Y-20789D01*
X19215Y-20709D01*
X19294Y-20709D01*
X19460Y-20641D01*
X19587Y-20514D01*
X19656Y-20349D01*
X19656Y-20169D01*
X19587Y-20004D01*
X19579Y-19995D01*
X19579Y-19659D01*
X19555Y-19539D01*
X19551Y-19515D01*
X19551Y-19515D01*
X19469Y-19394D01*
X19160Y-19084D01*
X21170Y-19084D01*
X21179Y-19093D01*
X21179Y-19959D01*
X21204Y-20083D01*
X21275Y-20189D01*
X25119Y-24033D01*
X24505Y-24033D01*
X24380Y-24058D01*
X24275Y-24128D01*
X21270Y-27133D01*
X20805Y-27133D01*
X19155Y-27133D01*
X19030Y-27158D01*
X18925Y-27228D01*
X18425Y-27728D01*
X18354Y-27834D01*
X18329Y-27959D01*
X18329Y-27997D01*
X18273Y-28053D01*
X18204Y-28219D01*
X18204Y-28398D01*
X18273Y-28563D01*
X18399Y-28690D01*
X18565Y-28759D01*
X18744Y-28759D01*
X18910Y-28691D01*
X19037Y-28564D01*
X19106Y-28399D01*
X19106Y-28219D01*
X19037Y-28054D01*
X19029Y-28045D01*
X19290Y-27784D01*
X19904Y-27784D01*
X19879Y-27909D01*
X19879Y-28647D01*
X19823Y-28703D01*
X19754Y-28869D01*
X19754Y-29048D01*
X19823Y-29213D01*
X19949Y-29340D01*
X20115Y-29409D01*
X20294Y-29409D01*
X20460Y-29341D01*
X20587Y-29214D01*
X20656Y-29049D01*
X20656Y-28869D01*
X20587Y-28704D01*
X20531Y-28647D01*
X20531Y-28043D01*
X20583Y-27991D01*
X20579Y-28009D01*
X20579Y-28459D01*
X20604Y-28583D01*
X20675Y-28689D01*
X21454Y-29468D01*
X21454Y-29548D01*
X21523Y-29713D01*
X21649Y-29840D01*
X21815Y-29909D01*
X21994Y-29909D01*
X22160Y-29841D01*
X22287Y-29714D01*
X22356Y-29549D01*
X22356Y-29369D01*
X22287Y-29204D01*
X22161Y-29077D01*
X21995Y-29008D01*
X21915Y-29008D01*
X21231Y-28324D01*
X21231Y-28184D01*
X21605Y-28184D01*
X21730Y-28159D01*
X21835Y-28089D01*
X24690Y-25234D01*
X25905Y-25234D01*
X26030Y-25209D01*
X26135Y-25139D01*
X27135Y-24139D01*
X27135Y-24139D01*
X27206Y-24033D01*
X27231Y-23909D01*
X27231Y-23909D01*
X27231Y-23170D01*
X27287Y-23114D01*
X27356Y-22949D01*
X27356Y-22769D01*
X27287Y-22604D01*
X27161Y-22477D01*
X26995Y-22408D01*
X26816Y-22408D01*
X26650Y-22476D01*
X26523Y-22603D01*
X26500Y-22660D01*
X26495Y-22658D01*
X26316Y-22658D01*
X26150Y-22726D01*
X26023Y-22853D01*
X25959Y-23008D01*
X25816Y-23008D01*
X25650Y-23076D01*
X25523Y-23203D01*
X25454Y-23369D01*
X25454Y-23448D01*
X23416Y-21409D01*
X23594Y-21409D01*
X23760Y-21341D01*
X23825Y-21276D01*
X23954Y-21405D01*
X23954Y-21548D01*
X24023Y-21713D01*
X24149Y-21840D01*
X24315Y-21909D01*
X24494Y-21909D01*
X24660Y-21841D01*
X24787Y-21714D01*
X24856Y-21549D01*
X24856Y-21484D01*
X24960Y-21441D01*
X25087Y-21314D01*
X25156Y-21149D01*
X25156Y-20969D01*
X25087Y-20804D01*
X25067Y-20784D01*
X25087Y-20764D01*
X25156Y-20599D01*
X25156Y-20419D01*
X25087Y-20254D01*
X25055Y-20221D01*
X25106Y-20099D01*
X25106Y-19919D01*
X25037Y-19754D01*
X24911Y-19627D01*
X24745Y-19558D01*
X24665Y-19558D01*
X24431Y-19324D01*
X24431Y-16893D01*
X24790Y-16534D01*
X27443Y-16534D01*
X27499Y-16590D01*
X27665Y-16659D01*
X27844Y-16659D01*
X28010Y-16591D01*
X28137Y-16464D01*
X28206Y-16299D01*
X28206Y-16119D01*
X28137Y-15954D01*
X28011Y-15827D01*
X27845Y-15758D01*
X27666Y-15758D01*
X27500Y-15826D01*
X27443Y-15883D01*
X24655Y-15883D01*
X24530Y-15908D01*
X24425Y-15978D01*
X23875Y-16528D01*
X23804Y-16634D01*
X23779Y-16759D01*
X23779Y-19459D01*
X23804Y-19583D01*
X23875Y-19689D01*
X24204Y-20018D01*
X24204Y-20084D01*
X24085Y-19965D01*
X23980Y-19895D01*
X23855Y-19870D01*
X23790Y-19870D01*
X21798Y-17878D01*
X21693Y-17808D01*
X21568Y-17783D01*
X21505Y-17783D01*
X18741Y-17783D01*
X18756Y-17749D01*
X18756Y-17569D01*
X18687Y-17404D01*
X18679Y-17395D01*
X18679Y-16996D01*
X18651Y-16852D01*
X18651Y-16852D01*
X18569Y-16731D01*
X18269Y-16431D01*
X18148Y-16350D01*
X18124Y-16345D01*
X18005Y-16322D01*
X13610Y-16322D01*
X13529Y-16241D01*
X13529Y-15696D01*
X13501Y-15552D01*
X13501Y-15552D01*
X13419Y-15431D01*
X13119Y-15131D01*
X12998Y-15050D01*
X12974Y-15045D01*
X12855Y-15022D01*
X12255Y-15022D01*
X12136Y-15045D01*
X12112Y-15050D01*
X11991Y-15131D01*
X11241Y-15881D01*
X11159Y-16002D01*
X11155Y-16026D01*
X11131Y-16146D01*
X11131Y-16295D01*
X11123Y-16303D01*
X11054Y-16469D01*
X11054Y-16648D01*
X11123Y-16813D01*
X11249Y-16940D01*
X11415Y-17009D01*
X11594Y-17009D01*
X11760Y-16941D01*
X11887Y-16814D01*
X11956Y-16649D01*
X11956Y-16469D01*
X11887Y-16304D01*
X11882Y-16298D01*
X12242Y-15938D01*
X12273Y-16013D01*
X12279Y-16020D01*
X12279Y-16847D01*
X12223Y-16903D01*
X12154Y-17069D01*
X12154Y-17248D01*
X12223Y-17413D01*
X12349Y-17540D01*
X12515Y-17609D01*
X12694Y-17609D01*
X12858Y-17542D01*
X12917Y-17684D01*
X13079Y-17846D01*
X13290Y-17934D01*
X13519Y-17934D01*
X13731Y-17847D01*
X13893Y-17685D01*
X13905Y-17656D01*
X13917Y-17684D01*
X14079Y-17846D01*
X14290Y-17934D01*
X14519Y-17934D01*
X14731Y-17847D01*
X14893Y-17685D01*
X14905Y-17656D01*
X14917Y-17684D01*
X15079Y-17846D01*
X15290Y-17934D01*
X15519Y-17934D01*
X15731Y-17847D01*
X15893Y-17685D01*
X15905Y-17656D01*
X15917Y-17684D01*
X16079Y-17846D01*
X16290Y-17934D01*
X16519Y-17934D01*
X16731Y-17847D01*
X16840Y-17738D01*
X16871Y-17815D01*
X16949Y-17892D01*
X17050Y-17934D01*
X17156Y-17934D01*
X16525Y-18565D01*
X16454Y-18671D01*
X16429Y-18796D01*
X16429Y-19020D01*
X15205Y-19020D01*
X15080Y-19045D01*
X14975Y-19115D01*
X14970Y-19120D01*
X14740Y-19120D01*
X14448Y-18828D01*
X14343Y-18758D01*
X14218Y-18733D01*
X14117Y-18733D01*
X14061Y-18677D01*
X13895Y-18608D01*
X13716Y-18608D01*
X13550Y-18676D01*
X13423Y-18803D01*
X13354Y-18969D01*
X13354Y-19148D01*
X13423Y-19313D01*
X13549Y-19440D01*
X13654Y-19484D01*
X13654Y-19548D01*
X13705Y-19671D01*
X13673Y-19703D01*
X13604Y-19869D01*
X13604Y-20048D01*
X13673Y-20213D01*
X13799Y-20340D01*
X13965Y-20409D01*
X14144Y-20409D01*
X14310Y-20341D01*
X14367Y-20284D01*
X15269Y-20284D01*
X15297Y-20350D01*
X15195Y-20308D01*
X15016Y-20308D01*
X14850Y-20376D01*
X14723Y-20503D01*
X14654Y-20669D01*
X14654Y-20848D01*
X14723Y-21013D01*
X14849Y-21140D01*
X15015Y-21209D01*
X15027Y-21209D01*
X15231Y-21413D01*
X15231Y-21904D01*
X14730Y-22405D01*
X14730Y-22405D01*
X14691Y-22431D01*
X13891Y-23231D01*
X13809Y-23352D01*
X13805Y-23376D01*
X13781Y-23496D01*
X13781Y-23632D01*
X13773Y-23640D01*
X13704Y-23806D01*
X13704Y-23985D01*
X13773Y-24150D01*
X13781Y-24159D01*
X13781Y-24896D01*
X13805Y-25015D01*
X13809Y-25039D01*
X13891Y-25160D01*
X14831Y-26100D01*
X14831Y-30076D01*
X14831Y-30809D01*
X14831Y-32859D01*
X14855Y-32978D01*
X14859Y-33002D01*
X14941Y-33123D01*
X15354Y-33537D01*
X15354Y-33548D01*
X15423Y-33713D01*
X15549Y-33840D01*
X15715Y-33909D01*
X15894Y-33909D01*
X16060Y-33841D01*
X16068Y-33833D01*
X17013Y-33833D01*
X18531Y-35350D01*
X18531Y-37141D01*
X18250Y-37422D01*
X17845Y-37422D01*
X17784Y-37361D01*
X17861Y-37329D01*
X17939Y-37252D01*
X17981Y-37150D01*
X17981Y-37041D01*
X17981Y-36441D01*
X17939Y-36339D01*
X17861Y-36262D01*
X17760Y-36220D01*
X17650Y-36220D01*
X17050Y-36220D01*
X16949Y-36262D01*
X16871Y-36339D01*
X16840Y-36416D01*
X16731Y-36308D01*
X16520Y-36220D01*
X16291Y-36220D01*
X16079Y-36307D01*
X15917Y-36469D01*
X15905Y-36499D01*
X15893Y-36470D01*
X15731Y-36308D01*
X15520Y-36220D01*
X15291Y-36220D01*
X15079Y-36307D01*
X14917Y-36469D01*
X14905Y-36499D01*
X14893Y-36470D01*
X14731Y-36308D01*
X14520Y-36220D01*
X14291Y-36220D01*
X14079Y-36307D01*
X13917Y-36469D01*
X13905Y-36499D01*
X13893Y-36470D01*
X13731Y-36308D01*
X13520Y-36220D01*
X13291Y-36220D01*
X13079Y-36307D01*
X12917Y-36469D01*
X12830Y-36681D01*
X12829Y-36910D01*
X12917Y-37121D01*
X13057Y-37261D01*
X13050Y-37301D01*
X13405Y-37656D01*
X13760Y-37301D01*
X13753Y-37261D01*
X13893Y-37122D01*
X13905Y-37093D01*
X13917Y-37121D01*
X14057Y-37261D01*
X14050Y-37301D01*
X14405Y-37656D01*
X14760Y-37301D01*
X14753Y-37261D01*
X14893Y-37122D01*
X14905Y-37093D01*
X14917Y-37121D01*
X15057Y-37261D01*
X15050Y-37301D01*
X15405Y-37656D01*
X15760Y-37301D01*
X15753Y-37261D01*
X15893Y-37122D01*
X15905Y-37093D01*
X15917Y-37121D01*
X16057Y-37261D01*
X16050Y-37301D01*
X16405Y-37656D01*
X16760Y-37301D01*
X16753Y-37261D01*
X16840Y-37175D01*
X16871Y-37252D01*
X16949Y-37329D01*
X17026Y-37361D01*
X16939Y-37447D01*
X16899Y-37440D01*
X16544Y-37796D01*
X16899Y-38151D01*
X16939Y-38144D01*
X17079Y-38283D01*
X17290Y-38371D01*
X17519Y-38371D01*
X17731Y-38284D01*
X17845Y-38170D01*
X18405Y-38170D01*
X18405Y-38170D01*
X18524Y-38146D01*
X18548Y-38141D01*
X18548Y-38141D01*
X18669Y-38060D01*
X19169Y-37560D01*
X19169Y-37560D01*
X19251Y-37439D01*
X19251Y-37439D01*
X19255Y-37415D01*
X19279Y-37296D01*
X19279Y-37296D01*
X19279Y-35196D01*
X19255Y-35076D01*
X19251Y-35052D01*
X19251Y-35052D01*
X19169Y-34931D01*
X19169Y-34931D01*
X18763Y-34524D01*
X18815Y-34546D01*
X18994Y-34546D01*
X19160Y-34478D01*
X19287Y-34351D01*
X19291Y-34342D01*
X19325Y-34376D01*
X19325Y-34376D01*
X19430Y-34446D01*
X19555Y-34471D01*
X24993Y-34471D01*
X25049Y-34527D01*
X25215Y-34596D01*
X25394Y-34596D01*
X25560Y-34528D01*
X25687Y-34401D01*
X25756Y-34236D01*
X25756Y-34056D01*
X25687Y-33891D01*
X25561Y-33764D01*
X25395Y-33695D01*
X25216Y-33695D01*
X25050Y-33763D01*
X24993Y-33820D01*
X19690Y-33820D01*
X18931Y-33061D01*
X18931Y-32021D01*
X18949Y-32040D01*
X19115Y-32109D01*
X19294Y-32109D01*
X19460Y-32041D01*
X19587Y-31914D01*
X19656Y-31749D01*
X19656Y-31737D01*
X19860Y-31533D01*
X25005Y-31533D01*
X25642Y-31533D01*
X25749Y-31640D01*
X25915Y-31709D01*
X25927Y-31709D01*
X26141Y-31923D01*
X26262Y-32004D01*
X26262Y-32004D01*
X26286Y-32009D01*
X26405Y-32033D01*
X31850Y-32033D01*
X33078Y-33260D01*
X33078Y-33260D01*
X33199Y-33341D01*
X33199Y-33341D01*
X33223Y-33346D01*
X33342Y-33370D01*
X34005Y-33370D01*
X34005Y-33370D01*
X34124Y-33346D01*
X34148Y-33341D01*
X34148Y-33341D01*
X34269Y-33260D01*
X34960Y-32570D01*
X35355Y-32570D01*
X35355Y-32570D01*
X35474Y-32546D01*
X35498Y-32541D01*
X35498Y-32541D01*
X35619Y-32460D01*
X37047Y-31033D01*
X37765Y-31033D01*
X37826Y-31093D01*
X37826Y-31093D01*
G37*
G54D36*
X37826Y-31093D02*
X37749Y-31125D01*
X37671Y-31202D01*
X37629Y-31304D01*
X37629Y-31413D01*
X37629Y-31705D01*
X37241Y-32094D01*
X37159Y-32215D01*
X37155Y-32239D01*
X37131Y-32359D01*
X37131Y-33875D01*
X37022Y-33611D01*
X36806Y-33395D01*
X36524Y-33278D01*
X36219Y-33278D01*
X35937Y-33394D01*
X35720Y-33610D01*
X35603Y-33892D01*
X35603Y-34198D01*
X35720Y-34480D01*
X35935Y-34696D01*
X36217Y-34813D01*
X36523Y-34813D01*
X36805Y-34697D01*
X37021Y-34481D01*
X37131Y-34216D01*
X37131Y-34641D01*
X36866Y-34906D01*
X36784Y-35027D01*
X36780Y-35051D01*
X36756Y-35171D01*
X36756Y-36266D01*
X36341Y-36681D01*
X36322Y-36709D01*
X36322Y-36513D01*
X36280Y-36412D01*
X36202Y-36334D01*
X36101Y-36292D01*
X35991Y-36292D01*
X35007Y-36292D01*
X34906Y-36334D01*
X34828Y-36412D01*
X34796Y-36489D01*
X34663Y-36335D01*
X34395Y-36205D01*
X34274Y-36280D01*
X34274Y-37060D01*
X34282Y-37060D01*
X34282Y-37257D01*
X34274Y-37257D01*
X34274Y-38037D01*
X34395Y-38112D01*
X34663Y-37982D01*
X34796Y-37828D01*
X34828Y-37905D01*
X34906Y-37983D01*
X35007Y-38025D01*
X35117Y-38025D01*
X36101Y-38025D01*
X36202Y-37983D01*
X36231Y-37954D01*
X36231Y-38041D01*
X35750Y-38522D01*
X34078Y-38522D01*
X34078Y-38037D01*
X34078Y-37257D01*
X34070Y-37257D01*
X34070Y-37060D01*
X34078Y-37060D01*
X34078Y-36280D01*
X33957Y-36205D01*
X33689Y-36335D01*
X33553Y-36492D01*
X33520Y-36412D01*
X33442Y-36334D01*
X33341Y-36292D01*
X33231Y-36292D01*
X32247Y-36292D01*
X32146Y-36334D01*
X32068Y-36412D01*
X32036Y-36489D01*
X31903Y-36335D01*
X31635Y-36205D01*
X31514Y-36280D01*
X31514Y-37060D01*
X31522Y-37060D01*
X31522Y-37257D01*
X31514Y-37257D01*
X31514Y-38037D01*
X31635Y-38112D01*
X31903Y-37982D01*
X32036Y-37828D01*
X32068Y-37905D01*
X32146Y-37983D01*
X32247Y-38025D01*
X32357Y-38025D01*
X33341Y-38025D01*
X33442Y-37983D01*
X33520Y-37905D01*
X33553Y-37825D01*
X33689Y-37982D01*
X33957Y-38112D01*
X34078Y-38037D01*
X34078Y-38522D01*
X31318Y-38522D01*
X31318Y-38037D01*
X31318Y-37257D01*
X31310Y-37257D01*
X31310Y-37060D01*
X31318Y-37060D01*
X31318Y-36280D01*
X31197Y-36205D01*
X30929Y-36335D01*
X30807Y-36477D01*
X30780Y-36412D01*
X30702Y-36334D01*
X30601Y-36292D01*
X30491Y-36292D01*
X29507Y-36292D01*
X29406Y-36334D01*
X29328Y-36412D01*
X29296Y-36489D01*
X29163Y-36335D01*
X28895Y-36205D01*
X28774Y-36280D01*
X28774Y-37060D01*
X28782Y-37060D01*
X28782Y-37257D01*
X28774Y-37257D01*
X28774Y-38037D01*
X28895Y-38112D01*
X29163Y-37982D01*
X29296Y-37828D01*
X29328Y-37905D01*
X29406Y-37983D01*
X29507Y-38025D01*
X29617Y-38025D01*
X30601Y-38025D01*
X30702Y-37983D01*
X30780Y-37905D01*
X30807Y-37840D01*
X30929Y-37982D01*
X31197Y-38112D01*
X31318Y-38037D01*
X31318Y-38522D01*
X28578Y-38522D01*
X28578Y-38037D01*
X28578Y-37257D01*
X28570Y-37257D01*
X28570Y-37060D01*
X28578Y-37060D01*
X28578Y-36280D01*
X28457Y-36205D01*
X28189Y-36335D01*
X28053Y-36492D01*
X28020Y-36412D01*
X27942Y-36334D01*
X27841Y-36292D01*
X27731Y-36292D01*
X26747Y-36292D01*
X26646Y-36334D01*
X26568Y-36412D01*
X26536Y-36489D01*
X26403Y-36335D01*
X26135Y-36205D01*
X26014Y-36280D01*
X26014Y-37060D01*
X26022Y-37060D01*
X26022Y-37257D01*
X26014Y-37257D01*
X26014Y-38037D01*
X26135Y-38112D01*
X26403Y-37982D01*
X26536Y-37828D01*
X26568Y-37905D01*
X26646Y-37983D01*
X26747Y-38025D01*
X26857Y-38025D01*
X27841Y-38025D01*
X27942Y-37983D01*
X28020Y-37905D01*
X28053Y-37825D01*
X28189Y-37982D01*
X28457Y-38112D01*
X28578Y-38037D01*
X28578Y-38522D01*
X25818Y-38522D01*
X25818Y-38037D01*
X25818Y-37257D01*
X25810Y-37257D01*
X25810Y-37060D01*
X25818Y-37060D01*
X25818Y-36280D01*
X25697Y-36205D01*
X25429Y-36335D01*
X25293Y-36492D01*
X25260Y-36412D01*
X25182Y-36334D01*
X25081Y-36292D01*
X24971Y-36292D01*
X23987Y-36292D01*
X23886Y-36334D01*
X23808Y-36412D01*
X23776Y-36489D01*
X23643Y-36335D01*
X23375Y-36205D01*
X23254Y-36280D01*
X23254Y-37060D01*
X23262Y-37060D01*
X23262Y-37257D01*
X23254Y-37257D01*
X23254Y-38037D01*
X23375Y-38112D01*
X23643Y-37982D01*
X23776Y-37828D01*
X23808Y-37905D01*
X23886Y-37983D01*
X23987Y-38025D01*
X24097Y-38025D01*
X25081Y-38025D01*
X25182Y-37983D01*
X25260Y-37905D01*
X25293Y-37825D01*
X25429Y-37982D01*
X25697Y-38112D01*
X25818Y-38037D01*
X25818Y-38522D01*
X23058Y-38522D01*
X23058Y-38037D01*
X23058Y-37257D01*
X23050Y-37257D01*
X23050Y-37060D01*
X23058Y-37060D01*
X23058Y-36280D01*
X22937Y-36205D01*
X22669Y-36335D01*
X22547Y-36477D01*
X22520Y-36412D01*
X22442Y-36334D01*
X22341Y-36292D01*
X22231Y-36292D01*
X21247Y-36292D01*
X21146Y-36334D01*
X21068Y-36412D01*
X21036Y-36489D01*
X20903Y-36335D01*
X20635Y-36205D01*
X20514Y-36280D01*
X20514Y-37060D01*
X20522Y-37060D01*
X20522Y-37257D01*
X20514Y-37257D01*
X20514Y-38037D01*
X20635Y-38112D01*
X20903Y-37982D01*
X21036Y-37828D01*
X21068Y-37905D01*
X21146Y-37983D01*
X21247Y-38025D01*
X21357Y-38025D01*
X22341Y-38025D01*
X22442Y-37983D01*
X22520Y-37905D01*
X22547Y-37840D01*
X22669Y-37982D01*
X22937Y-38112D01*
X23058Y-38037D01*
X23058Y-38522D01*
X20318Y-38522D01*
X20318Y-38037D01*
X20318Y-37257D01*
X20318Y-37060D01*
X20318Y-36280D01*
X20197Y-36205D01*
X19929Y-36335D01*
X19726Y-36569D01*
X19629Y-36863D01*
X19629Y-37060D01*
X20318Y-37060D01*
X20318Y-37257D01*
X19629Y-37257D01*
X19629Y-37454D01*
X19726Y-37748D01*
X19929Y-37982D01*
X20197Y-38112D01*
X20318Y-38037D01*
X20318Y-38522D01*
X16760Y-38522D01*
X16760Y-38290D01*
X16405Y-37935D01*
X16266Y-38074D01*
X16266Y-37796D01*
X16084Y-37614D01*
X16081Y-37589D01*
X16030Y-37464D01*
X15913Y-37443D01*
X15911Y-37440D01*
X15905Y-37441D01*
X15899Y-37440D01*
X15897Y-37443D01*
X15781Y-37464D01*
X15739Y-37600D01*
X15544Y-37796D01*
X15726Y-37977D01*
X15729Y-38002D01*
X15781Y-38128D01*
X15897Y-38148D01*
X15899Y-38151D01*
X15905Y-38150D01*
X15911Y-38151D01*
X15913Y-38148D01*
X16030Y-38128D01*
X16071Y-37991D01*
X16266Y-37796D01*
X16266Y-38074D01*
X16050Y-38290D01*
X16073Y-38420D01*
X16337Y-38500D01*
X16612Y-38472D01*
X16737Y-38420D01*
X16760Y-38290D01*
X16760Y-38522D01*
X15760Y-38522D01*
X15760Y-38290D01*
X15405Y-37935D01*
X15266Y-38074D01*
X15266Y-37796D01*
X15084Y-37614D01*
X15081Y-37589D01*
X15030Y-37464D01*
X14913Y-37443D01*
X14911Y-37440D01*
X14905Y-37441D01*
X14899Y-37440D01*
X14897Y-37443D01*
X14781Y-37464D01*
X14739Y-37600D01*
X14544Y-37796D01*
X14726Y-37977D01*
X14729Y-38002D01*
X14781Y-38128D01*
X14897Y-38148D01*
X14899Y-38151D01*
X14905Y-38150D01*
X14911Y-38151D01*
X14913Y-38148D01*
X15030Y-38128D01*
X15071Y-37991D01*
X15266Y-37796D01*
X15266Y-38074D01*
X15050Y-38290D01*
X15073Y-38420D01*
X15337Y-38500D01*
X15612Y-38472D01*
X15737Y-38420D01*
X15760Y-38290D01*
X15760Y-38522D01*
X14760Y-38522D01*
X14760Y-38290D01*
X14405Y-37935D01*
X14266Y-38074D01*
X14266Y-37796D01*
X14084Y-37614D01*
X14081Y-37589D01*
X14030Y-37464D01*
X13913Y-37443D01*
X13911Y-37440D01*
X13905Y-37441D01*
X13899Y-37440D01*
X13897Y-37443D01*
X13781Y-37464D01*
X13739Y-37600D01*
X13544Y-37796D01*
X13726Y-37977D01*
X13729Y-38002D01*
X13781Y-38128D01*
X13897Y-38148D01*
X13899Y-38151D01*
X13905Y-38150D01*
X13911Y-38151D01*
X13913Y-38148D01*
X14030Y-38128D01*
X14071Y-37991D01*
X14266Y-37796D01*
X14266Y-38074D01*
X14050Y-38290D01*
X14073Y-38420D01*
X14337Y-38500D01*
X14612Y-38472D01*
X14737Y-38420D01*
X14760Y-38290D01*
X14760Y-38522D01*
X13760Y-38522D01*
X13760Y-38290D01*
X13405Y-37935D01*
X13266Y-38074D01*
X13266Y-37796D01*
X12911Y-37440D01*
X12781Y-37464D01*
X12701Y-37728D01*
X12729Y-38002D01*
X12781Y-38128D01*
X12911Y-38151D01*
X13266Y-37796D01*
X13266Y-38074D01*
X13050Y-38290D01*
X13073Y-38420D01*
X13337Y-38500D01*
X13612Y-38472D01*
X13737Y-38420D01*
X13760Y-38290D01*
X13760Y-38522D01*
X11059Y-38522D01*
X11059Y-34113D01*
X11031Y-33839D01*
X10980Y-33714D01*
X10849Y-33690D01*
X10710Y-33829D01*
X10710Y-33551D01*
X10687Y-33421D01*
X10423Y-33342D01*
X10148Y-33369D01*
X10023Y-33421D01*
X10000Y-33551D01*
X10355Y-33906D01*
X10710Y-33551D01*
X10710Y-33829D01*
X10494Y-34046D01*
X10849Y-34401D01*
X10980Y-34378D01*
X11059Y-34113D01*
X11059Y-38522D01*
X10710Y-38522D01*
X10710Y-34540D01*
X10355Y-34185D01*
X10216Y-34324D01*
X10216Y-34046D01*
X10034Y-33864D01*
X10031Y-33839D01*
X9980Y-33714D01*
X9863Y-33693D01*
X9861Y-33690D01*
X9855Y-33691D01*
X9849Y-33690D01*
X9847Y-33693D01*
X9731Y-33714D01*
X9710Y-33781D01*
X9710Y-33551D01*
X9687Y-33421D01*
X9423Y-33342D01*
X9148Y-33369D01*
X9023Y-33421D01*
X9000Y-33551D01*
X9355Y-33906D01*
X9710Y-33551D01*
X9710Y-33781D01*
X9689Y-33850D01*
X9494Y-34046D01*
X9676Y-34227D01*
X9679Y-34252D01*
X9731Y-34378D01*
X9847Y-34398D01*
X9849Y-34401D01*
X9855Y-34400D01*
X9861Y-34401D01*
X9863Y-34398D01*
X9980Y-34378D01*
X10021Y-34241D01*
X10216Y-34046D01*
X10216Y-34324D01*
X10000Y-34540D01*
X10023Y-34670D01*
X10287Y-34750D01*
X10562Y-34722D01*
X10687Y-34670D01*
X10710Y-34540D01*
X10710Y-38522D01*
X10702Y-38522D01*
X10702Y-37919D01*
X10678Y-37552D01*
X10584Y-37324D01*
X10430Y-37272D01*
X10291Y-37411D01*
X10291Y-37133D01*
X10239Y-36979D01*
X9890Y-36860D01*
X9710Y-36872D01*
X9710Y-34540D01*
X9355Y-34185D01*
X9000Y-34540D01*
X9023Y-34670D01*
X9287Y-34750D01*
X9562Y-34722D01*
X9687Y-34670D01*
X9710Y-34540D01*
X9710Y-36872D01*
X9523Y-36884D01*
X9295Y-36979D01*
X9243Y-37133D01*
X9767Y-37656D01*
X10291Y-37133D01*
X10291Y-37411D01*
X9906Y-37796D01*
X10430Y-38319D01*
X10584Y-38267D01*
X10702Y-37919D01*
X10702Y-38522D01*
X10270Y-38522D01*
X10291Y-38459D01*
X9767Y-37935D01*
X9628Y-38074D01*
X9628Y-37796D01*
X9104Y-37272D01*
X8950Y-37324D01*
X8832Y-37672D01*
X8856Y-38040D01*
X8950Y-38267D01*
X9104Y-38319D01*
X9628Y-37796D01*
X9628Y-38074D01*
X9243Y-38459D01*
X9265Y-38522D01*
X8609Y-38522D01*
X8260Y-38522D01*
X8260Y-37227D01*
X7905Y-36872D01*
X7550Y-37227D01*
X7573Y-37357D01*
X7837Y-37437D01*
X8112Y-37409D01*
X8237Y-37357D01*
X8260Y-37227D01*
X8260Y-38522D01*
X7810Y-38522D01*
X6729Y-37441D01*
X6729Y-37283D01*
X6790Y-37308D01*
X7019Y-37308D01*
X7231Y-37221D01*
X7371Y-37081D01*
X7411Y-37088D01*
X7766Y-36733D01*
X7760Y-36727D01*
X7899Y-36588D01*
X7905Y-36593D01*
X7911Y-36588D01*
X8050Y-36727D01*
X8044Y-36733D01*
X8399Y-37088D01*
X8530Y-37065D01*
X8609Y-36800D01*
X8581Y-36526D01*
X8530Y-36401D01*
X8399Y-36377D01*
X8473Y-36303D01*
X8407Y-36237D01*
X8481Y-36061D01*
X8481Y-35832D01*
X8393Y-35620D01*
X8279Y-35506D01*
X8279Y-35246D01*
X8251Y-35102D01*
X8169Y-34981D01*
X7919Y-34731D01*
X7798Y-34650D01*
X7774Y-34645D01*
X7655Y-34622D01*
X6860Y-34622D01*
X6814Y-34576D01*
X6889Y-34502D01*
X6920Y-34425D01*
X7029Y-34533D01*
X7240Y-34621D01*
X7469Y-34621D01*
X7681Y-34534D01*
X7843Y-34372D01*
X7855Y-34343D01*
X7867Y-34371D01*
X8029Y-34533D01*
X8240Y-34621D01*
X8469Y-34621D01*
X8681Y-34534D01*
X8821Y-34394D01*
X8861Y-34401D01*
X9216Y-34046D01*
X8861Y-33690D01*
X8821Y-33697D01*
X8681Y-33558D01*
X8470Y-33470D01*
X8241Y-33470D01*
X8029Y-33557D01*
X7867Y-33719D01*
X7855Y-33749D01*
X7843Y-33720D01*
X7681Y-33558D01*
X7470Y-33470D01*
X7241Y-33470D01*
X7029Y-33557D01*
X6920Y-33666D01*
X6889Y-33589D01*
X6811Y-33512D01*
X6710Y-33470D01*
X6600Y-33470D01*
X6000Y-33470D01*
X5899Y-33512D01*
X5821Y-33589D01*
X5779Y-33691D01*
X5779Y-33800D01*
X5779Y-34400D01*
X5821Y-34502D01*
X5899Y-34579D01*
X5981Y-34613D01*
X5981Y-34646D01*
X5981Y-37596D01*
X6005Y-37715D01*
X6009Y-37739D01*
X6091Y-37860D01*
X7303Y-39072D01*
X5978Y-39072D01*
X5978Y-37919D01*
X5954Y-37552D01*
X5860Y-37324D01*
X5706Y-37272D01*
X5567Y-37411D01*
X5567Y-37133D01*
X5515Y-36979D01*
X5166Y-36860D01*
X4799Y-36884D01*
X4571Y-36979D01*
X4519Y-37133D01*
X5043Y-37656D01*
X5567Y-37133D01*
X5567Y-37411D01*
X5182Y-37796D01*
X5706Y-38319D01*
X5860Y-38267D01*
X5978Y-37919D01*
X5978Y-39072D01*
X5567Y-39072D01*
X5567Y-38459D01*
X5043Y-37935D01*
X4904Y-38074D01*
X4904Y-37796D01*
X4380Y-37272D01*
X4226Y-37324D01*
X4108Y-37672D01*
X4132Y-38040D01*
X4226Y-38267D01*
X4380Y-38319D01*
X4904Y-37796D01*
X4904Y-38074D01*
X4519Y-38459D01*
X4571Y-38612D01*
X4920Y-38731D01*
X5287Y-38707D01*
X5515Y-38612D01*
X5567Y-38459D01*
X5567Y-39072D01*
X2777Y-39072D01*
X2777Y-37982D01*
X2757Y-37508D01*
X2614Y-37161D01*
X2432Y-37076D01*
X2293Y-37216D01*
X2293Y-36937D01*
X2208Y-36756D01*
X1762Y-36592D01*
X1287Y-36612D01*
X941Y-36756D01*
X856Y-36937D01*
X1574Y-37656D01*
X2293Y-36937D01*
X2293Y-37216D01*
X1713Y-37795D01*
X2432Y-38513D01*
X2614Y-38428D01*
X2777Y-37982D01*
X2777Y-39072D01*
X2293Y-39072D01*
X2293Y-38652D01*
X1574Y-37934D01*
X1435Y-38073D01*
X1435Y-37795D01*
X717Y-37076D01*
X535Y-37161D01*
X372Y-37607D01*
X392Y-38082D01*
X535Y-38428D01*
X717Y-38513D01*
X1435Y-37795D01*
X1435Y-38073D01*
X856Y-38652D01*
X941Y-38834D01*
X1387Y-38997D01*
X1861Y-38978D01*
X2208Y-38834D01*
X2293Y-38652D01*
X2293Y-39072D01*
X328Y-39072D01*
X328Y-32765D01*
X379Y-32816D01*
X379Y-32816D01*
X596Y-32961D01*
X852Y-33012D01*
X852Y-33012D01*
X852Y-33012D01*
X1389Y-33012D01*
X1389Y-33012D01*
X1389Y-33012D01*
X1389Y-33012D01*
X2339Y-33012D01*
X2491Y-33012D01*
X2705Y-33012D01*
X2919Y-33012D01*
X3175Y-32961D01*
X3392Y-32816D01*
X3537Y-32599D01*
X3588Y-32343D01*
X3537Y-32087D01*
X3487Y-32012D01*
X4305Y-32012D01*
X4403Y-31992D01*
X4495Y-32012D01*
X4500Y-32011D01*
X4505Y-32012D01*
X4666Y-31980D01*
X4827Y-31950D01*
X4831Y-31947D01*
X4836Y-31946D01*
X4973Y-31855D01*
X5110Y-31765D01*
X5113Y-31761D01*
X5117Y-31758D01*
X6155Y-30721D01*
X6166Y-30777D01*
X6290Y-30962D01*
X6475Y-31086D01*
X6693Y-31130D01*
X7117Y-31130D01*
X7335Y-31086D01*
X7520Y-30962D01*
X7644Y-30777D01*
X7688Y-30559D01*
X7644Y-30340D01*
X7524Y-30161D01*
X7705Y-29890D01*
X7771Y-29559D01*
X7705Y-29227D01*
X7592Y-29058D01*
X7607Y-29047D01*
X7756Y-28816D01*
X7760Y-28762D01*
X7760Y-28355D01*
X7756Y-28301D01*
X7607Y-28070D01*
X7382Y-27914D01*
X7114Y-27856D01*
X7003Y-27961D01*
X7003Y-28460D01*
X7684Y-28460D01*
X7760Y-28355D01*
X7760Y-28762D01*
X7684Y-28657D01*
X7003Y-28657D01*
X7003Y-28665D01*
X6807Y-28665D01*
X6807Y-28657D01*
X6807Y-28460D01*
X6807Y-27961D01*
X6696Y-27856D01*
X6428Y-27914D01*
X6203Y-28070D01*
X6054Y-28301D01*
X6050Y-28355D01*
X6126Y-28460D01*
X6807Y-28460D01*
X6807Y-28657D01*
X6126Y-28657D01*
X6101Y-28692D01*
X6092Y-28692D01*
X5892Y-28692D01*
X3475Y-28692D01*
X3537Y-28599D01*
X3588Y-28343D01*
X3537Y-28087D01*
X3392Y-27870D01*
X3175Y-27724D01*
X2919Y-27674D01*
X2705Y-27674D01*
X2491Y-27674D01*
X2224Y-27674D01*
X2224Y-27075D01*
X2374Y-27175D01*
X2705Y-27240D01*
X2776Y-27240D01*
X4426Y-27240D01*
X4758Y-27175D01*
X4758Y-27175D01*
X5039Y-26987D01*
X5817Y-26208D01*
X6005Y-25927D01*
X6071Y-25596D01*
X6071Y-25204D01*
X6138Y-25137D01*
X6166Y-25277D01*
X6290Y-25462D01*
X6475Y-25586D01*
X6693Y-25630D01*
X7117Y-25630D01*
X7335Y-25586D01*
X7520Y-25462D01*
X7644Y-25277D01*
X7688Y-25059D01*
X7644Y-24840D01*
X7524Y-24661D01*
X7705Y-24390D01*
X7771Y-24059D01*
X7705Y-23727D01*
X7592Y-23558D01*
X7607Y-23547D01*
X7756Y-23316D01*
X7760Y-23262D01*
X7760Y-22855D01*
X7756Y-22801D01*
X7607Y-22570D01*
X7382Y-22414D01*
X7114Y-22356D01*
X7003Y-22461D01*
X7003Y-22960D01*
X7684Y-22960D01*
X7760Y-22855D01*
X7760Y-23262D01*
X7684Y-23157D01*
X7003Y-23157D01*
X7003Y-23165D01*
X6807Y-23165D01*
X6807Y-23157D01*
X6807Y-22960D01*
X6807Y-22461D01*
X6696Y-22356D01*
X6428Y-22414D01*
X6203Y-22570D01*
X6054Y-22801D01*
X6050Y-22855D01*
X6126Y-22960D01*
X6807Y-22960D01*
X6807Y-23157D01*
X6126Y-23157D01*
X6101Y-23192D01*
X5992Y-23192D01*
X5092Y-23192D01*
X4761Y-23258D01*
X4480Y-23446D01*
X3658Y-24268D01*
X3658Y-22594D01*
X3658Y-22155D01*
X3528Y-21887D01*
X3294Y-21685D01*
X3000Y-21587D01*
X2803Y-21587D01*
X2803Y-22276D01*
X3584Y-22276D01*
X3658Y-22155D01*
X3658Y-22594D01*
X3584Y-22473D01*
X2803Y-22473D01*
X2803Y-23162D01*
X3000Y-23162D01*
X3294Y-23064D01*
X3528Y-22861D01*
X3658Y-22594D01*
X3658Y-24268D01*
X3587Y-24338D01*
X3537Y-24087D01*
X3392Y-23870D01*
X3175Y-23724D01*
X2998Y-23689D01*
X2581Y-23272D01*
X2416Y-23162D01*
X2607Y-23162D01*
X2607Y-22473D01*
X2607Y-22276D01*
X2607Y-21587D01*
X2410Y-21587D01*
X2116Y-21685D01*
X1882Y-21887D01*
X1752Y-22155D01*
X1826Y-22276D01*
X2607Y-22276D01*
X2607Y-22473D01*
X1826Y-22473D01*
X1752Y-22594D01*
X1882Y-22861D01*
X2116Y-23064D01*
X2219Y-23098D01*
X2108Y-23076D01*
X2108Y-23076D01*
X1555Y-23076D01*
X1005Y-23076D01*
X1005Y-23076D01*
X749Y-23127D01*
X532Y-23272D01*
X328Y-23476D01*
X328Y-20665D01*
X479Y-20816D01*
X479Y-20816D01*
X696Y-20961D01*
X952Y-21012D01*
X1389Y-21012D01*
X1789Y-21012D01*
X1789Y-21012D01*
X1789Y-21012D01*
X1789Y-21012D01*
X2491Y-21012D01*
X2705Y-21012D01*
X2705Y-21012D01*
X2705Y-21012D01*
X2705Y-21012D01*
X2919Y-21012D01*
X3175Y-20961D01*
X3392Y-20816D01*
X3537Y-20599D01*
X3588Y-20343D01*
X3537Y-20087D01*
X3520Y-20062D01*
X5281Y-20062D01*
X5612Y-19996D01*
X5612Y-19996D01*
X5893Y-19808D01*
X6126Y-19576D01*
X6166Y-19777D01*
X6290Y-19962D01*
X6475Y-20086D01*
X6693Y-20130D01*
X7117Y-20130D01*
X7335Y-20086D01*
X7520Y-19962D01*
X7644Y-19777D01*
X7688Y-19559D01*
X7644Y-19340D01*
X7524Y-19161D01*
X7705Y-18890D01*
X7771Y-18559D01*
X7705Y-18227D01*
X7592Y-18058D01*
X7607Y-18047D01*
X7756Y-17816D01*
X7760Y-17762D01*
X7760Y-17355D01*
X7756Y-17301D01*
X7607Y-17070D01*
X7382Y-16914D01*
X7114Y-16856D01*
X7003Y-16961D01*
X7003Y-17460D01*
X7684Y-17460D01*
X7760Y-17355D01*
X7760Y-17762D01*
X7684Y-17657D01*
X7003Y-17657D01*
X7003Y-17665D01*
X6807Y-17665D01*
X6807Y-17657D01*
X6799Y-17657D01*
X6799Y-17460D01*
X6807Y-17460D01*
X6807Y-16961D01*
X6696Y-16856D01*
X6428Y-16914D01*
X6203Y-17070D01*
X6054Y-17301D01*
X6050Y-17355D01*
X6126Y-17460D01*
X6044Y-17460D01*
X5717Y-17133D01*
X5436Y-16945D01*
X5105Y-16879D01*
X3658Y-16879D01*
X3658Y-14594D01*
X3658Y-14155D01*
X3528Y-13887D01*
X3294Y-13685D01*
X3000Y-13587D01*
X2803Y-13587D01*
X2803Y-14276D01*
X3584Y-14276D01*
X3658Y-14155D01*
X3658Y-14594D01*
X3584Y-14473D01*
X2803Y-14473D01*
X2803Y-15162D01*
X3000Y-15162D01*
X3294Y-15064D01*
X3528Y-14861D01*
X3658Y-14594D01*
X3658Y-16879D01*
X3405Y-16879D01*
X3252Y-16910D01*
X3392Y-16816D01*
X3537Y-16599D01*
X3588Y-16343D01*
X3537Y-16087D01*
X3392Y-15870D01*
X3175Y-15724D01*
X2919Y-15674D01*
X2705Y-15674D01*
X2491Y-15674D01*
X2466Y-15674D01*
X2074Y-15281D01*
X2074Y-15028D01*
X2116Y-15064D01*
X2410Y-15162D01*
X2607Y-15162D01*
X2607Y-14473D01*
X2599Y-14473D01*
X2599Y-14276D01*
X2607Y-14276D01*
X2607Y-13587D01*
X2410Y-13587D01*
X2116Y-13685D01*
X2074Y-13721D01*
X2074Y-11755D01*
X2128Y-11719D01*
X3282Y-10565D01*
X4224Y-10565D01*
X4221Y-10568D01*
X4116Y-10821D01*
X4116Y-11095D01*
X4221Y-11348D01*
X4355Y-11483D01*
X4347Y-11483D01*
X4136Y-11570D01*
X3974Y-11732D01*
X3886Y-11944D01*
X3886Y-12173D01*
X3973Y-12384D01*
X4135Y-12546D01*
X4346Y-12634D01*
X4575Y-12634D01*
X4787Y-12547D01*
X4949Y-12385D01*
X4961Y-12356D01*
X4973Y-12384D01*
X5135Y-12546D01*
X5346Y-12634D01*
X5575Y-12634D01*
X5787Y-12547D01*
X5949Y-12385D01*
X5961Y-12356D01*
X5973Y-12384D01*
X6135Y-12546D01*
X6346Y-12634D01*
X6575Y-12634D01*
X6787Y-12547D01*
X6949Y-12385D01*
X6961Y-12356D01*
X6973Y-12384D01*
X7135Y-12546D01*
X7346Y-12634D01*
X7575Y-12634D01*
X7787Y-12547D01*
X7949Y-12385D01*
X7961Y-12356D01*
X7973Y-12384D01*
X8135Y-12546D01*
X8346Y-12634D01*
X8575Y-12634D01*
X8787Y-12547D01*
X8949Y-12385D01*
X8961Y-12356D01*
X8973Y-12384D01*
X9135Y-12546D01*
X9346Y-12634D01*
X9575Y-12634D01*
X9787Y-12547D01*
X9949Y-12385D01*
X9961Y-12356D01*
X9973Y-12384D01*
X10135Y-12546D01*
X10346Y-12634D01*
X10575Y-12634D01*
X10787Y-12547D01*
X10949Y-12385D01*
X10961Y-12356D01*
X10973Y-12384D01*
X11135Y-12546D01*
X11346Y-12634D01*
X11575Y-12634D01*
X11787Y-12547D01*
X11949Y-12385D01*
X12037Y-12174D01*
X12037Y-11945D01*
X11950Y-11733D01*
X11788Y-11571D01*
X11576Y-11483D01*
X11347Y-11483D01*
X11136Y-11570D01*
X10974Y-11732D01*
X10961Y-11762D01*
X10950Y-11733D01*
X10788Y-11571D01*
X10576Y-11483D01*
X10347Y-11483D01*
X10136Y-11570D01*
X9974Y-11732D01*
X9961Y-11762D01*
X9950Y-11733D01*
X9864Y-11648D01*
X9941Y-11648D01*
X10195Y-11543D01*
X10389Y-11349D01*
X10494Y-11096D01*
X10494Y-10822D01*
X10389Y-10569D01*
X10386Y-10565D01*
X12224Y-10565D01*
X12221Y-10568D01*
X12116Y-10821D01*
X12116Y-11095D01*
X12221Y-11348D01*
X12410Y-11538D01*
X12333Y-11570D01*
X12170Y-11732D01*
X12083Y-11944D01*
X12082Y-12173D01*
X12170Y-12384D01*
X12332Y-12546D01*
X12543Y-12634D01*
X12772Y-12634D01*
X12984Y-12547D01*
X13146Y-12385D01*
X13158Y-12356D01*
X13170Y-12384D01*
X13332Y-12546D01*
X13543Y-12634D01*
X13772Y-12634D01*
X13984Y-12547D01*
X14146Y-12385D01*
X14158Y-12356D01*
X14170Y-12384D01*
X14332Y-12546D01*
X14543Y-12634D01*
X14772Y-12634D01*
X14984Y-12547D01*
X15146Y-12385D01*
X15158Y-12356D01*
X15170Y-12384D01*
X15332Y-12546D01*
X15543Y-12634D01*
X15772Y-12634D01*
X15984Y-12547D01*
X16146Y-12385D01*
X16158Y-12356D01*
X16170Y-12384D01*
X16332Y-12546D01*
X16543Y-12634D01*
X16772Y-12634D01*
X16984Y-12547D01*
X17146Y-12385D01*
X17158Y-12356D01*
X17170Y-12384D01*
X17332Y-12546D01*
X17543Y-12634D01*
X17772Y-12634D01*
X17984Y-12547D01*
X18146Y-12385D01*
X18158Y-12356D01*
X18170Y-12384D01*
X18332Y-12546D01*
X18543Y-12634D01*
X18772Y-12634D01*
X18984Y-12547D01*
X19146Y-12385D01*
X19158Y-12356D01*
X19170Y-12384D01*
X19332Y-12546D01*
X19543Y-12634D01*
X19772Y-12634D01*
X19984Y-12547D01*
X20146Y-12385D01*
X20234Y-12174D01*
X20234Y-11945D01*
X20146Y-11733D01*
X19985Y-11571D01*
X19773Y-11483D01*
X19544Y-11483D01*
X19333Y-11570D01*
X19170Y-11732D01*
X19158Y-11762D01*
X19146Y-11733D01*
X18985Y-11571D01*
X18773Y-11483D01*
X18544Y-11483D01*
X18333Y-11570D01*
X18170Y-11732D01*
X18158Y-11762D01*
X18146Y-11733D01*
X18026Y-11613D01*
X18195Y-11543D01*
X18389Y-11349D01*
X18494Y-11096D01*
X18494Y-10822D01*
X18389Y-10569D01*
X18386Y-10565D01*
X20224Y-10565D01*
X20221Y-10568D01*
X20116Y-10821D01*
X20116Y-11095D01*
X20221Y-11348D01*
X20414Y-11542D01*
X20515Y-11584D01*
X20367Y-11732D01*
X20280Y-11944D01*
X20279Y-12173D01*
X20367Y-12384D01*
X20529Y-12546D01*
X20740Y-12634D01*
X20969Y-12634D01*
X21181Y-12547D01*
X21343Y-12385D01*
X21355Y-12356D01*
X21367Y-12384D01*
X21529Y-12546D01*
X21740Y-12634D01*
X21969Y-12634D01*
X22181Y-12547D01*
X22343Y-12385D01*
X22355Y-12356D01*
X22367Y-12384D01*
X22529Y-12546D01*
X22740Y-12634D01*
X22969Y-12634D01*
X23181Y-12547D01*
X23343Y-12385D01*
X23355Y-12356D01*
X23367Y-12384D01*
X23529Y-12546D01*
X23740Y-12634D01*
X23969Y-12634D01*
X24181Y-12547D01*
X24343Y-12385D01*
X24355Y-12356D01*
X24367Y-12384D01*
X24529Y-12546D01*
X24740Y-12634D01*
X24969Y-12634D01*
X25181Y-12547D01*
X25343Y-12385D01*
X25355Y-12356D01*
X25367Y-12384D01*
X25529Y-12546D01*
X25740Y-12634D01*
X25969Y-12634D01*
X26181Y-12547D01*
X26343Y-12385D01*
X26355Y-12356D01*
X26367Y-12384D01*
X26529Y-12546D01*
X26740Y-12634D01*
X26969Y-12634D01*
X27181Y-12547D01*
X27343Y-12385D01*
X27355Y-12356D01*
X27367Y-12384D01*
X27529Y-12546D01*
X27740Y-12634D01*
X27969Y-12634D01*
X28181Y-12547D01*
X28343Y-12385D01*
X28431Y-12174D01*
X28431Y-11945D01*
X28343Y-11733D01*
X28181Y-11571D01*
X27970Y-11483D01*
X27741Y-11483D01*
X27529Y-11570D01*
X27367Y-11732D01*
X27355Y-11762D01*
X27343Y-11733D01*
X27181Y-11571D01*
X26970Y-11483D01*
X26741Y-11483D01*
X26529Y-11570D01*
X26367Y-11732D01*
X26355Y-11762D01*
X26343Y-11733D01*
X26181Y-11571D01*
X26154Y-11560D01*
X26195Y-11543D01*
X26389Y-11349D01*
X26494Y-11096D01*
X26494Y-10822D01*
X26389Y-10569D01*
X26386Y-10565D01*
X28224Y-10565D01*
X28221Y-10568D01*
X28116Y-10821D01*
X28116Y-11095D01*
X28221Y-11348D01*
X28414Y-11542D01*
X28654Y-11642D01*
X28564Y-11732D01*
X28476Y-11944D01*
X28476Y-12173D01*
X28564Y-12384D01*
X28725Y-12546D01*
X28937Y-12634D01*
X29166Y-12634D01*
X29377Y-12547D01*
X29540Y-12385D01*
X29552Y-12356D01*
X29564Y-12384D01*
X29725Y-12546D01*
X29937Y-12634D01*
X30166Y-12634D01*
X30377Y-12547D01*
X30540Y-12385D01*
X30552Y-12356D01*
X30564Y-12384D01*
X30725Y-12546D01*
X30937Y-12634D01*
X31166Y-12634D01*
X31377Y-12547D01*
X31540Y-12385D01*
X31552Y-12356D01*
X31564Y-12384D01*
X31725Y-12546D01*
X31937Y-12634D01*
X32166Y-12634D01*
X32377Y-12547D01*
X32540Y-12385D01*
X32552Y-12356D01*
X32564Y-12384D01*
X32725Y-12546D01*
X32937Y-12634D01*
X33166Y-12634D01*
X33377Y-12547D01*
X33540Y-12385D01*
X33552Y-12356D01*
X33564Y-12384D01*
X33725Y-12546D01*
X33937Y-12634D01*
X34166Y-12634D01*
X34377Y-12547D01*
X34540Y-12385D01*
X34552Y-12356D01*
X34564Y-12384D01*
X34725Y-12546D01*
X34937Y-12634D01*
X35166Y-12634D01*
X35377Y-12547D01*
X35540Y-12385D01*
X35552Y-12356D01*
X35564Y-12384D01*
X35725Y-12546D01*
X35937Y-12634D01*
X36166Y-12634D01*
X36377Y-12547D01*
X36540Y-12385D01*
X36627Y-12174D01*
X36628Y-11945D01*
X36540Y-11733D01*
X36378Y-11571D01*
X36167Y-11483D01*
X35938Y-11483D01*
X35726Y-11570D01*
X35564Y-11732D01*
X35552Y-11762D01*
X35540Y-11733D01*
X35378Y-11571D01*
X35167Y-11483D01*
X34938Y-11483D01*
X34726Y-11570D01*
X34564Y-11732D01*
X34552Y-11762D01*
X34540Y-11733D01*
X34378Y-11571D01*
X34229Y-11509D01*
X34389Y-11349D01*
X34494Y-11096D01*
X34494Y-10822D01*
X34389Y-10569D01*
X34196Y-10375D01*
X33943Y-10270D01*
X33669Y-10269D01*
X33415Y-10374D01*
X33311Y-10479D01*
X33306Y-10471D01*
X33082Y-10322D01*
X32819Y-10270D01*
X32792Y-10270D01*
X32528Y-10322D01*
X32304Y-10471D01*
X32299Y-10479D01*
X32196Y-10375D01*
X31943Y-10270D01*
X31669Y-10269D01*
X31415Y-10374D01*
X31311Y-10479D01*
X31306Y-10471D01*
X31082Y-10322D01*
X30819Y-10270D01*
X30792Y-10270D01*
X30528Y-10322D01*
X30305Y-10471D01*
X30082Y-10322D01*
X29819Y-10270D01*
X29792Y-10270D01*
X29528Y-10322D01*
X29304Y-10471D01*
X29299Y-10479D01*
X29196Y-10375D01*
X29144Y-10353D01*
X29532Y-9965D01*
X36278Y-9965D01*
X37436Y-11123D01*
X37436Y-11496D01*
X37487Y-11752D01*
X37529Y-11816D01*
X37529Y-11850D01*
X37560Y-11925D01*
X37405Y-11925D01*
X37187Y-11968D01*
X37001Y-12092D01*
X36701Y-12392D01*
X36578Y-12577D01*
X36534Y-12796D01*
X36534Y-16659D01*
X35106Y-18088D01*
X33659Y-18088D01*
X33579Y-18034D01*
X33320Y-17983D01*
X33090Y-17983D01*
X32831Y-18034D01*
X32612Y-18181D01*
X32466Y-18400D01*
X32414Y-18659D01*
X32466Y-18917D01*
X32578Y-19085D01*
X32464Y-19191D01*
X32343Y-19438D01*
X32417Y-19560D01*
X33107Y-19560D01*
X33107Y-19552D01*
X33303Y-19552D01*
X33303Y-19560D01*
X33993Y-19560D01*
X34067Y-19438D01*
X33965Y-19229D01*
X34131Y-19229D01*
X34131Y-21696D01*
X34155Y-21815D01*
X34159Y-21839D01*
X34241Y-21960D01*
X35591Y-23310D01*
X35591Y-23310D01*
X35631Y-23337D01*
X35631Y-23696D01*
X35631Y-25923D01*
X35595Y-25908D01*
X35583Y-25908D01*
X34246Y-24570D01*
X34246Y-24570D01*
X34219Y-24531D01*
X33579Y-23891D01*
X33579Y-21283D01*
X33798Y-21136D01*
X33944Y-20917D01*
X33996Y-20659D01*
X33944Y-20400D01*
X33832Y-20232D01*
X33946Y-20126D01*
X34067Y-19879D01*
X33993Y-19757D01*
X33303Y-19757D01*
X33303Y-19765D01*
X33107Y-19765D01*
X33107Y-19757D01*
X32417Y-19757D01*
X32343Y-19879D01*
X32464Y-20126D01*
X32578Y-20232D01*
X32466Y-20400D01*
X32414Y-20659D01*
X32466Y-20917D01*
X32612Y-21136D01*
X32831Y-21283D01*
X32831Y-24046D01*
X32855Y-24165D01*
X32859Y-24189D01*
X32941Y-24310D01*
X33664Y-25034D01*
X33691Y-25073D01*
X35054Y-26437D01*
X35054Y-26448D01*
X35123Y-26613D01*
X35194Y-26685D01*
X34160Y-26685D01*
X32769Y-25294D01*
X32648Y-25213D01*
X32624Y-25208D01*
X32609Y-25205D01*
X32609Y-24626D01*
X32581Y-24352D01*
X32530Y-24226D01*
X32399Y-24203D01*
X32044Y-24559D01*
X32399Y-24914D01*
X32530Y-24891D01*
X32609Y-24626D01*
X32609Y-25205D01*
X32505Y-25185D01*
X32345Y-25185D01*
X32253Y-25093D01*
X32260Y-25053D01*
X31905Y-24698D01*
X31550Y-25053D01*
X31557Y-25093D01*
X31439Y-25210D01*
X31399Y-25203D01*
X31044Y-25559D01*
X31050Y-25564D01*
X30911Y-25703D01*
X30905Y-25698D01*
X30766Y-25837D01*
X30766Y-25559D01*
X30411Y-25203D01*
X30281Y-25226D01*
X30201Y-25491D01*
X30229Y-25765D01*
X30281Y-25891D01*
X30411Y-25914D01*
X30766Y-25559D01*
X30766Y-25837D01*
X30550Y-26053D01*
X30557Y-26093D01*
X30417Y-26232D01*
X30330Y-26444D01*
X30329Y-26673D01*
X30354Y-26733D01*
X30056Y-26733D01*
X30056Y-26569D01*
X29987Y-26404D01*
X29861Y-26277D01*
X29695Y-26208D01*
X29516Y-26208D01*
X29350Y-26276D01*
X29231Y-26396D01*
X29231Y-26096D01*
X29206Y-25971D01*
X29206Y-25971D01*
X29206Y-25856D01*
X29137Y-25691D01*
X29117Y-25671D01*
X29137Y-25651D01*
X29206Y-25486D01*
X29206Y-25306D01*
X29137Y-25141D01*
X29081Y-25084D01*
X29081Y-25080D01*
X29277Y-24884D01*
X30417Y-24884D01*
X30417Y-24884D01*
X30557Y-25024D01*
X30550Y-25064D01*
X30905Y-25419D01*
X31260Y-25064D01*
X31253Y-25024D01*
X31371Y-24907D01*
X31411Y-24914D01*
X31766Y-24559D01*
X31411Y-24203D01*
X31371Y-24210D01*
X31284Y-24124D01*
X31361Y-24092D01*
X31439Y-24015D01*
X31470Y-23938D01*
X31557Y-24024D01*
X31550Y-24064D01*
X31905Y-24419D01*
X32260Y-24064D01*
X32253Y-24024D01*
X32393Y-23885D01*
X32481Y-23674D01*
X32481Y-23445D01*
X32393Y-23233D01*
X32231Y-23071D01*
X32020Y-22983D01*
X31791Y-22983D01*
X31579Y-23070D01*
X31470Y-23179D01*
X31439Y-23102D01*
X31361Y-23025D01*
X31260Y-22983D01*
X31150Y-22983D01*
X30550Y-22983D01*
X30449Y-23025D01*
X30431Y-23043D01*
X30431Y-20382D01*
X30343Y-20170D01*
X30234Y-20061D01*
X30311Y-20029D01*
X30389Y-19952D01*
X30431Y-19850D01*
X30431Y-19741D01*
X30431Y-19141D01*
X30389Y-19039D01*
X30311Y-18962D01*
X30210Y-18920D01*
X30100Y-18920D01*
X29500Y-18920D01*
X29399Y-18962D01*
X29321Y-19039D01*
X29290Y-19116D01*
X29181Y-19008D01*
X28970Y-18920D01*
X28741Y-18920D01*
X28529Y-19007D01*
X28367Y-19169D01*
X28355Y-19199D01*
X28343Y-19170D01*
X28181Y-19008D01*
X27970Y-18920D01*
X27741Y-18920D01*
X27529Y-19007D01*
X27367Y-19169D01*
X27355Y-19199D01*
X27343Y-19170D01*
X27181Y-19008D01*
X26970Y-18920D01*
X26741Y-18920D01*
X26529Y-19007D01*
X26367Y-19169D01*
X26280Y-19381D01*
X26279Y-19610D01*
X26367Y-19821D01*
X26529Y-19983D01*
X26558Y-19995D01*
X26529Y-20007D01*
X26367Y-20169D01*
X26280Y-20381D01*
X26279Y-20610D01*
X26367Y-20821D01*
X26529Y-20983D01*
X26740Y-21071D01*
X26969Y-21071D01*
X27181Y-20984D01*
X27343Y-20822D01*
X27355Y-20793D01*
X27367Y-20821D01*
X27529Y-20983D01*
X27740Y-21071D01*
X27969Y-21071D01*
X28181Y-20984D01*
X28343Y-20822D01*
X28355Y-20793D01*
X28367Y-20821D01*
X28529Y-20983D01*
X28740Y-21071D01*
X28969Y-21071D01*
X29181Y-20984D01*
X29343Y-20822D01*
X29355Y-20793D01*
X29367Y-20821D01*
X29529Y-20983D01*
X29740Y-21071D01*
X29969Y-21071D01*
X30181Y-20984D01*
X30343Y-20822D01*
X30431Y-20611D01*
X30431Y-20382D01*
X30431Y-23043D01*
X30371Y-23102D01*
X30329Y-23204D01*
X30329Y-23313D01*
X30329Y-23913D01*
X30371Y-24015D01*
X30449Y-24092D01*
X30526Y-24124D01*
X30417Y-24232D01*
X30417Y-24233D01*
X29142Y-24233D01*
X29017Y-24258D01*
X28912Y-24328D01*
X28525Y-24715D01*
X28454Y-24821D01*
X28429Y-24946D01*
X28429Y-25084D01*
X28373Y-25140D01*
X28304Y-25306D01*
X28304Y-25485D01*
X28373Y-25650D01*
X28393Y-25670D01*
X28373Y-25690D01*
X28304Y-25856D01*
X28304Y-26035D01*
X28373Y-26200D01*
X28499Y-26327D01*
X28579Y-26361D01*
X28579Y-27196D01*
X28579Y-27659D01*
X28579Y-28509D01*
X28604Y-28633D01*
X28675Y-28739D01*
X30225Y-30289D01*
X30330Y-30359D01*
X30362Y-30366D01*
X30330Y-30444D01*
X30329Y-30673D01*
X30417Y-30884D01*
X30579Y-31046D01*
X30790Y-31134D01*
X31019Y-31134D01*
X31231Y-31047D01*
X31371Y-30907D01*
X31411Y-30914D01*
X31766Y-30559D01*
X31760Y-30553D01*
X31899Y-30414D01*
X31905Y-30419D01*
X32260Y-30064D01*
X32253Y-30024D01*
X32393Y-29885D01*
X32481Y-29674D01*
X32481Y-29445D01*
X32393Y-29233D01*
X32231Y-29071D01*
X32202Y-29059D01*
X32231Y-29047D01*
X32393Y-28885D01*
X32481Y-28674D01*
X32481Y-28445D01*
X32393Y-28233D01*
X32231Y-28071D01*
X32202Y-28059D01*
X32231Y-28047D01*
X32393Y-27885D01*
X32481Y-27674D01*
X32481Y-27445D01*
X32393Y-27233D01*
X32231Y-27071D01*
X32202Y-27059D01*
X32231Y-27047D01*
X32393Y-26885D01*
X32481Y-26674D01*
X32481Y-26495D01*
X32779Y-26793D01*
X32779Y-31904D01*
X32609Y-31734D01*
X32609Y-30626D01*
X32581Y-30352D01*
X32530Y-30226D01*
X32399Y-30203D01*
X32044Y-30559D01*
X32399Y-30914D01*
X32530Y-30891D01*
X32609Y-30626D01*
X32609Y-31734D01*
X32269Y-31394D01*
X32260Y-31388D01*
X32260Y-31053D01*
X31905Y-30698D01*
X31550Y-31053D01*
X31573Y-31183D01*
X31837Y-31263D01*
X32112Y-31235D01*
X32237Y-31183D01*
X32260Y-31053D01*
X32260Y-31388D01*
X32148Y-31313D01*
X32124Y-31308D01*
X32005Y-31285D01*
X26668Y-31285D01*
X26668Y-27241D01*
X26583Y-27037D01*
X26427Y-26881D01*
X26223Y-26796D01*
X26002Y-26796D01*
X25798Y-26880D01*
X25641Y-27036D01*
X25557Y-27240D01*
X25556Y-27461D01*
X25641Y-27666D01*
X25797Y-27822D01*
X26001Y-27907D01*
X26222Y-27907D01*
X26426Y-27823D01*
X26583Y-27667D01*
X26668Y-27462D01*
X26668Y-27241D01*
X26668Y-31285D01*
X26560Y-31285D01*
X26456Y-31180D01*
X26456Y-31169D01*
X26387Y-31004D01*
X26261Y-30877D01*
X26095Y-30808D01*
X26023Y-30808D01*
X25905Y-30785D01*
X25254Y-30785D01*
X25254Y-28656D01*
X25169Y-28451D01*
X25013Y-28295D01*
X24809Y-28210D01*
X24588Y-28210D01*
X24384Y-28294D01*
X24227Y-28451D01*
X24142Y-28655D01*
X24142Y-28876D01*
X24227Y-29080D01*
X24383Y-29236D01*
X24587Y-29321D01*
X24808Y-29321D01*
X25012Y-29237D01*
X25169Y-29081D01*
X25253Y-28877D01*
X25254Y-28656D01*
X25254Y-30785D01*
X25005Y-30785D01*
X21341Y-30785D01*
X21356Y-30749D01*
X21356Y-30569D01*
X21287Y-30404D01*
X21161Y-30277D01*
X20995Y-30208D01*
X20816Y-30208D01*
X20650Y-30276D01*
X20593Y-30333D01*
X19617Y-30333D01*
X19561Y-30277D01*
X19395Y-30208D01*
X19216Y-30208D01*
X19050Y-30276D01*
X18931Y-30396D01*
X18931Y-30259D01*
X18906Y-30134D01*
X18835Y-30028D01*
X17231Y-28424D01*
X17231Y-27459D01*
X17206Y-27334D01*
X17135Y-27228D01*
X16781Y-26874D01*
X16781Y-23153D01*
X16915Y-23209D01*
X17094Y-23209D01*
X17260Y-23141D01*
X17387Y-23014D01*
X17456Y-22849D01*
X17456Y-22669D01*
X17387Y-22504D01*
X17261Y-22377D01*
X17095Y-22308D01*
X17015Y-22308D01*
X17008Y-22301D01*
X17008Y-22216D01*
X17635Y-21589D01*
X17635Y-21589D01*
X17635Y-21589D01*
X18340Y-20884D01*
X18905Y-20884D01*
X19030Y-20859D01*
X19135Y-20789D01*
X19215Y-20709D01*
X19294Y-20709D01*
X19460Y-20641D01*
X19587Y-20514D01*
X19656Y-20349D01*
X19656Y-20169D01*
X19587Y-20004D01*
X19579Y-19995D01*
X19579Y-19659D01*
X19555Y-19539D01*
X19551Y-19515D01*
X19551Y-19515D01*
X19469Y-19394D01*
X19160Y-19084D01*
X21170Y-19084D01*
X21179Y-19093D01*
X21179Y-19959D01*
X21204Y-20083D01*
X21275Y-20189D01*
X25119Y-24033D01*
X24505Y-24033D01*
X24380Y-24058D01*
X24275Y-24128D01*
X21270Y-27133D01*
X20805Y-27133D01*
X19155Y-27133D01*
X19030Y-27158D01*
X18925Y-27228D01*
X18425Y-27728D01*
X18354Y-27834D01*
X18329Y-27959D01*
X18329Y-27997D01*
X18273Y-28053D01*
X18204Y-28219D01*
X18204Y-28398D01*
X18273Y-28563D01*
X18399Y-28690D01*
X18565Y-28759D01*
X18744Y-28759D01*
X18910Y-28691D01*
X19037Y-28564D01*
X19106Y-28399D01*
X19106Y-28219D01*
X19037Y-28054D01*
X19029Y-28045D01*
X19290Y-27784D01*
X19904Y-27784D01*
X19879Y-27909D01*
X19879Y-28647D01*
X19823Y-28703D01*
X19754Y-28869D01*
X19754Y-29048D01*
X19823Y-29213D01*
X19949Y-29340D01*
X20115Y-29409D01*
X20294Y-29409D01*
X20460Y-29341D01*
X20587Y-29214D01*
X20656Y-29049D01*
X20656Y-28869D01*
X20587Y-28704D01*
X20531Y-28647D01*
X20531Y-28043D01*
X20583Y-27991D01*
X20579Y-28009D01*
X20579Y-28459D01*
X20604Y-28583D01*
X20675Y-28689D01*
X21454Y-29468D01*
X21454Y-29548D01*
X21523Y-29713D01*
X21649Y-29840D01*
X21815Y-29909D01*
X21994Y-29909D01*
X22160Y-29841D01*
X22287Y-29714D01*
X22356Y-29549D01*
X22356Y-29369D01*
X22287Y-29204D01*
X22161Y-29077D01*
X21995Y-29008D01*
X21915Y-29008D01*
X21231Y-28324D01*
X21231Y-28184D01*
X21605Y-28184D01*
X21730Y-28159D01*
X21835Y-28089D01*
X24690Y-25234D01*
X25905Y-25234D01*
X26030Y-25209D01*
X26135Y-25139D01*
X27135Y-24139D01*
X27135Y-24139D01*
X27206Y-24033D01*
X27231Y-23909D01*
X27231Y-23909D01*
X27231Y-23170D01*
X27287Y-23114D01*
X27356Y-22949D01*
X27356Y-22769D01*
X27287Y-22604D01*
X27161Y-22477D01*
X26995Y-22408D01*
X26816Y-22408D01*
X26650Y-22476D01*
X26523Y-22603D01*
X26500Y-22660D01*
X26495Y-22658D01*
X26316Y-22658D01*
X26150Y-22726D01*
X26023Y-22853D01*
X25959Y-23008D01*
X25816Y-23008D01*
X25650Y-23076D01*
X25523Y-23203D01*
X25454Y-23369D01*
X25454Y-23448D01*
X23416Y-21409D01*
X23594Y-21409D01*
X23760Y-21341D01*
X23825Y-21276D01*
X23954Y-21405D01*
X23954Y-21548D01*
X24023Y-21713D01*
X24149Y-21840D01*
X24315Y-21909D01*
X24494Y-21909D01*
X24660Y-21841D01*
X24787Y-21714D01*
X24856Y-21549D01*
X24856Y-21484D01*
X24960Y-21441D01*
X25087Y-21314D01*
X25156Y-21149D01*
X25156Y-20969D01*
X25087Y-20804D01*
X25067Y-20784D01*
X25087Y-20764D01*
X25156Y-20599D01*
X25156Y-20419D01*
X25087Y-20254D01*
X25055Y-20221D01*
X25106Y-20099D01*
X25106Y-19919D01*
X25037Y-19754D01*
X24911Y-19627D01*
X24745Y-19558D01*
X24665Y-19558D01*
X24431Y-19324D01*
X24431Y-16893D01*
X24790Y-16534D01*
X27443Y-16534D01*
X27499Y-16590D01*
X27665Y-16659D01*
X27844Y-16659D01*
X28010Y-16591D01*
X28137Y-16464D01*
X28206Y-16299D01*
X28206Y-16119D01*
X28137Y-15954D01*
X28011Y-15827D01*
X27845Y-15758D01*
X27666Y-15758D01*
X27500Y-15826D01*
X27443Y-15883D01*
X24655Y-15883D01*
X24530Y-15908D01*
X24425Y-15978D01*
X23875Y-16528D01*
X23804Y-16634D01*
X23779Y-16759D01*
X23779Y-19459D01*
X23804Y-19583D01*
X23875Y-19689D01*
X24204Y-20018D01*
X24204Y-20084D01*
X24085Y-19965D01*
X23980Y-19895D01*
X23855Y-19870D01*
X23790Y-19870D01*
X21798Y-17878D01*
X21693Y-17808D01*
X21568Y-17783D01*
X21505Y-17783D01*
X18741Y-17783D01*
X18756Y-17749D01*
X18756Y-17569D01*
X18687Y-17404D01*
X18679Y-17395D01*
X18679Y-16996D01*
X18651Y-16852D01*
X18651Y-16852D01*
X18569Y-16731D01*
X18269Y-16431D01*
X18148Y-16350D01*
X18124Y-16345D01*
X18005Y-16322D01*
X13610Y-16322D01*
X13529Y-16241D01*
X13529Y-15696D01*
X13501Y-15552D01*
X13501Y-15552D01*
X13419Y-15431D01*
X13119Y-15131D01*
X12998Y-15050D01*
X12974Y-15045D01*
X12855Y-15022D01*
X12255Y-15022D01*
X12136Y-15045D01*
X12112Y-15050D01*
X11991Y-15131D01*
X11241Y-15881D01*
X11159Y-16002D01*
X11155Y-16026D01*
X11131Y-16146D01*
X11131Y-16295D01*
X11123Y-16303D01*
X11054Y-16469D01*
X11054Y-16648D01*
X11123Y-16813D01*
X11249Y-16940D01*
X11415Y-17009D01*
X11594Y-17009D01*
X11760Y-16941D01*
X11887Y-16814D01*
X11956Y-16649D01*
X11956Y-16469D01*
X11887Y-16304D01*
X11882Y-16298D01*
X12242Y-15938D01*
X12273Y-16013D01*
X12279Y-16020D01*
X12279Y-16847D01*
X12223Y-16903D01*
X12154Y-17069D01*
X12154Y-17248D01*
X12223Y-17413D01*
X12349Y-17540D01*
X12515Y-17609D01*
X12694Y-17609D01*
X12858Y-17542D01*
X12917Y-17684D01*
X13079Y-17846D01*
X13290Y-17934D01*
X13519Y-17934D01*
X13731Y-17847D01*
X13893Y-17685D01*
X13905Y-17656D01*
X13917Y-17684D01*
X14079Y-17846D01*
X14290Y-17934D01*
X14519Y-17934D01*
X14731Y-17847D01*
X14893Y-17685D01*
X14905Y-17656D01*
X14917Y-17684D01*
X15079Y-17846D01*
X15290Y-17934D01*
X15519Y-17934D01*
X15731Y-17847D01*
X15893Y-17685D01*
X15905Y-17656D01*
X15917Y-17684D01*
X16079Y-17846D01*
X16290Y-17934D01*
X16519Y-17934D01*
X16731Y-17847D01*
X16840Y-17738D01*
X16871Y-17815D01*
X16949Y-17892D01*
X17050Y-17934D01*
X17156Y-17934D01*
X16525Y-18565D01*
X16454Y-18671D01*
X16429Y-18796D01*
X16429Y-19020D01*
X15205Y-19020D01*
X15080Y-19045D01*
X14975Y-19115D01*
X14970Y-19120D01*
X14740Y-19120D01*
X14448Y-18828D01*
X14343Y-18758D01*
X14218Y-18733D01*
X14117Y-18733D01*
X14061Y-18677D01*
X13895Y-18608D01*
X13716Y-18608D01*
X13550Y-18676D01*
X13423Y-18803D01*
X13354Y-18969D01*
X13354Y-19148D01*
X13423Y-19313D01*
X13549Y-19440D01*
X13654Y-19484D01*
X13654Y-19548D01*
X13705Y-19671D01*
X13673Y-19703D01*
X13604Y-19869D01*
X13604Y-20048D01*
X13673Y-20213D01*
X13799Y-20340D01*
X13965Y-20409D01*
X14144Y-20409D01*
X14310Y-20341D01*
X14367Y-20284D01*
X15269Y-20284D01*
X15297Y-20350D01*
X15195Y-20308D01*
X15016Y-20308D01*
X14850Y-20376D01*
X14723Y-20503D01*
X14654Y-20669D01*
X14654Y-20848D01*
X14723Y-21013D01*
X14849Y-21140D01*
X15015Y-21209D01*
X15027Y-21209D01*
X15231Y-21413D01*
X15231Y-21904D01*
X14730Y-22405D01*
X14730Y-22405D01*
X14691Y-22431D01*
X13891Y-23231D01*
X13809Y-23352D01*
X13805Y-23376D01*
X13781Y-23496D01*
X13781Y-23632D01*
X13773Y-23640D01*
X13704Y-23806D01*
X13704Y-23985D01*
X13773Y-24150D01*
X13781Y-24159D01*
X13781Y-24896D01*
X13805Y-25015D01*
X13809Y-25039D01*
X13891Y-25160D01*
X14831Y-26100D01*
X14831Y-30076D01*
X14831Y-30809D01*
X14831Y-32859D01*
X14855Y-32978D01*
X14859Y-33002D01*
X14941Y-33123D01*
X15354Y-33537D01*
X15354Y-33548D01*
X15423Y-33713D01*
X15549Y-33840D01*
X15715Y-33909D01*
X15894Y-33909D01*
X16060Y-33841D01*
X16068Y-33833D01*
X17013Y-33833D01*
X18531Y-35350D01*
X18531Y-37141D01*
X18250Y-37422D01*
X17845Y-37422D01*
X17784Y-37361D01*
X17861Y-37329D01*
X17939Y-37252D01*
X17981Y-37150D01*
X17981Y-37041D01*
X17981Y-36441D01*
X17939Y-36339D01*
X17861Y-36262D01*
X17760Y-36220D01*
X17650Y-36220D01*
X17050Y-36220D01*
X16949Y-36262D01*
X16871Y-36339D01*
X16840Y-36416D01*
X16731Y-36308D01*
X16520Y-36220D01*
X16291Y-36220D01*
X16079Y-36307D01*
X15917Y-36469D01*
X15905Y-36499D01*
X15893Y-36470D01*
X15731Y-36308D01*
X15520Y-36220D01*
X15291Y-36220D01*
X15079Y-36307D01*
X14917Y-36469D01*
X14905Y-36499D01*
X14893Y-36470D01*
X14731Y-36308D01*
X14520Y-36220D01*
X14291Y-36220D01*
X14079Y-36307D01*
X13917Y-36469D01*
X13905Y-36499D01*
X13893Y-36470D01*
X13731Y-36308D01*
X13520Y-36220D01*
X13291Y-36220D01*
X13079Y-36307D01*
X12917Y-36469D01*
X12830Y-36681D01*
X12829Y-36910D01*
X12917Y-37121D01*
X13057Y-37261D01*
X13050Y-37301D01*
X13405Y-37656D01*
X13760Y-37301D01*
X13753Y-37261D01*
X13893Y-37122D01*
X13905Y-37093D01*
X13917Y-37121D01*
X14057Y-37261D01*
X14050Y-37301D01*
X14405Y-37656D01*
X14760Y-37301D01*
X14753Y-37261D01*
X14893Y-37122D01*
X14905Y-37093D01*
X14917Y-37121D01*
X15057Y-37261D01*
X15050Y-37301D01*
X15405Y-37656D01*
X15760Y-37301D01*
X15753Y-37261D01*
X15893Y-37122D01*
X15905Y-37093D01*
X15917Y-37121D01*
X16057Y-37261D01*
X16050Y-37301D01*
X16405Y-37656D01*
X16760Y-37301D01*
X16753Y-37261D01*
X16840Y-37175D01*
X16871Y-37252D01*
X16949Y-37329D01*
X17026Y-37361D01*
X16939Y-37447D01*
X16899Y-37440D01*
X16544Y-37796D01*
X16899Y-38151D01*
X16939Y-38144D01*
X17079Y-38283D01*
X17290Y-38371D01*
X17519Y-38371D01*
X17731Y-38284D01*
X17845Y-38170D01*
X18405Y-38170D01*
X18405Y-38170D01*
X18524Y-38146D01*
X18548Y-38141D01*
X18548Y-38141D01*
X18669Y-38060D01*
X19169Y-37560D01*
X19169Y-37560D01*
X19251Y-37439D01*
X19251Y-37439D01*
X19255Y-37415D01*
X19279Y-37296D01*
X19279Y-37296D01*
X19279Y-35196D01*
X19255Y-35076D01*
X19251Y-35052D01*
X19251Y-35052D01*
X19169Y-34931D01*
X19169Y-34931D01*
X18763Y-34524D01*
X18815Y-34546D01*
X18994Y-34546D01*
X19160Y-34478D01*
X19287Y-34351D01*
X19291Y-34342D01*
X19325Y-34376D01*
X19325Y-34376D01*
X19430Y-34446D01*
X19555Y-34471D01*
X24993Y-34471D01*
X25049Y-34527D01*
X25215Y-34596D01*
X25394Y-34596D01*
X25560Y-34528D01*
X25687Y-34401D01*
X25756Y-34236D01*
X25756Y-34056D01*
X25687Y-33891D01*
X25561Y-33764D01*
X25395Y-33695D01*
X25216Y-33695D01*
X25050Y-33763D01*
X24993Y-33820D01*
X19690Y-33820D01*
X18931Y-33061D01*
X18931Y-32021D01*
X18949Y-32040D01*
X19115Y-32109D01*
X19294Y-32109D01*
X19460Y-32041D01*
X19587Y-31914D01*
X19656Y-31749D01*
X19656Y-31737D01*
X19860Y-31533D01*
X25005Y-31533D01*
X25642Y-31533D01*
X25749Y-31640D01*
X25915Y-31709D01*
X25927Y-31709D01*
X26141Y-31923D01*
X26262Y-32004D01*
X26262Y-32004D01*
X26286Y-32009D01*
X26405Y-32033D01*
X31850Y-32033D01*
X33078Y-33260D01*
X33078Y-33260D01*
X33199Y-33341D01*
X33199Y-33341D01*
X33223Y-33346D01*
X33342Y-33370D01*
X34005Y-33370D01*
X34005Y-33370D01*
X34124Y-33346D01*
X34148Y-33341D01*
X34148Y-33341D01*
X34269Y-33260D01*
X34960Y-32570D01*
X35355Y-32570D01*
X35355Y-32570D01*
X35474Y-32546D01*
X35498Y-32541D01*
X35498Y-32541D01*
X35619Y-32460D01*
X37047Y-31033D01*
X37765Y-31033D01*
X37826Y-31093D01*
G54D10*
G36*
X39088Y-32864D02*
X38990Y-32627D01*
X38774Y-32411D01*
X38492Y-32294D01*
X38187Y-32294D01*
X38036Y-32356D01*
X38158Y-32234D01*
X38560Y-32234D01*
X38661Y-32192D01*
X38739Y-32115D01*
X38781Y-32013D01*
X38781Y-31904D01*
X38781Y-31304D01*
X38739Y-31202D01*
X38661Y-31125D01*
X38584Y-31093D01*
X38693Y-30985D01*
X38781Y-30774D01*
X38781Y-30545D01*
X38693Y-30333D01*
X38531Y-30171D01*
X38502Y-30159D01*
X38531Y-30147D01*
X38693Y-29985D01*
X38781Y-29774D01*
X38781Y-29545D01*
X38693Y-29333D01*
X38531Y-29171D01*
X38320Y-29083D01*
X38091Y-29083D01*
X37879Y-29170D01*
X37765Y-29285D01*
X37260Y-29285D01*
X37069Y-29094D01*
X37069Y-29094D01*
X36729Y-28754D01*
X36760Y-28741D01*
X36887Y-28614D01*
X36956Y-28449D01*
X36956Y-28269D01*
X36887Y-28104D01*
X36831Y-28047D01*
X36831Y-27416D01*
X36871Y-27515D01*
X36949Y-27592D01*
X37050Y-27634D01*
X37160Y-27634D01*
X37760Y-27634D01*
X37861Y-27592D01*
X37939Y-27515D01*
X37970Y-27438D01*
X38079Y-27546D01*
X38290Y-27634D01*
X38519Y-27634D01*
X38731Y-27547D01*
X38893Y-27385D01*
X38981Y-27174D01*
X38981Y-26945D01*
X38893Y-26733D01*
X38731Y-26571D01*
X38520Y-26483D01*
X38442Y-26483D01*
X38442Y-26268D01*
X38442Y-25587D01*
X38442Y-25390D01*
X38442Y-24709D01*
X38442Y-23908D01*
X38442Y-23227D01*
X38442Y-23030D01*
X38442Y-22350D01*
X38336Y-22274D01*
X38123Y-22375D01*
X38108Y-22391D01*
X38108Y-20762D01*
X38108Y-20323D01*
X37978Y-20056D01*
X37744Y-19853D01*
X37450Y-19755D01*
X37253Y-19755D01*
X37253Y-20444D01*
X38034Y-20444D01*
X38108Y-20323D01*
X38108Y-20762D01*
X38034Y-20641D01*
X37253Y-20641D01*
X37253Y-21330D01*
X37450Y-21330D01*
X37744Y-21233D01*
X37978Y-21030D01*
X38108Y-20762D01*
X38108Y-22391D01*
X37941Y-22577D01*
X37851Y-22833D01*
X37851Y-23030D01*
X38442Y-23030D01*
X38442Y-23227D01*
X37851Y-23227D01*
X37851Y-23424D01*
X37941Y-23680D01*
X38123Y-23882D01*
X38336Y-23983D01*
X38442Y-23908D01*
X38442Y-24709D01*
X38335Y-24634D01*
X38286Y-24637D01*
X38053Y-24785D01*
X37894Y-25010D01*
X37834Y-25279D01*
X37938Y-25390D01*
X38442Y-25390D01*
X38442Y-25587D01*
X37938Y-25587D01*
X37834Y-25698D01*
X37894Y-25967D01*
X38053Y-26192D01*
X38286Y-26340D01*
X38335Y-26343D01*
X38442Y-26268D01*
X38442Y-26483D01*
X38291Y-26483D01*
X38079Y-26570D01*
X37970Y-26679D01*
X37939Y-26602D01*
X37861Y-26525D01*
X37760Y-26483D01*
X37650Y-26483D01*
X37050Y-26483D01*
X36949Y-26525D01*
X36871Y-26602D01*
X36831Y-26701D01*
X36831Y-26293D01*
X36873Y-26251D01*
X36988Y-26228D01*
X37173Y-26104D01*
X37297Y-25919D01*
X37341Y-25701D01*
X37341Y-25277D01*
X37297Y-25058D01*
X37173Y-24873D01*
X37096Y-24821D01*
X37096Y-23796D01*
X37173Y-23744D01*
X37297Y-23559D01*
X37341Y-23341D01*
X37341Y-22917D01*
X37297Y-22698D01*
X37173Y-22513D01*
X37057Y-22435D01*
X37057Y-21330D01*
X37057Y-20641D01*
X37057Y-20444D01*
X37057Y-19755D01*
X36860Y-19755D01*
X36566Y-19853D01*
X36332Y-20056D01*
X36202Y-20323D01*
X36276Y-20444D01*
X37057Y-20444D01*
X37057Y-20641D01*
X36276Y-20641D01*
X36202Y-20762D01*
X36332Y-21030D01*
X36566Y-21233D01*
X36860Y-21330D01*
X37057Y-21330D01*
X37057Y-22435D01*
X36988Y-22389D01*
X36770Y-22346D01*
X36552Y-22389D01*
X36367Y-22513D01*
X36243Y-22698D01*
X36231Y-22756D01*
X36148Y-22700D01*
X36011Y-22673D01*
X34879Y-21541D01*
X34879Y-19229D01*
X35342Y-19229D01*
X35560Y-19186D01*
X35746Y-19062D01*
X36281Y-18526D01*
X36272Y-18574D01*
X36323Y-18830D01*
X36468Y-19048D01*
X36685Y-19193D01*
X36941Y-19244D01*
X37369Y-19244D01*
X37625Y-19193D01*
X37842Y-19048D01*
X37987Y-18830D01*
X38038Y-18574D01*
X38026Y-18511D01*
X38309Y-18228D01*
X38432Y-18043D01*
X38476Y-17824D01*
X38476Y-14432D01*
X38509Y-14399D01*
X38509Y-14399D01*
X38509Y-14399D01*
X38632Y-14214D01*
X38676Y-13996D01*
X38676Y-13622D01*
X38681Y-13611D01*
X38681Y-13382D01*
X38593Y-13170D01*
X38431Y-13008D01*
X38402Y-12996D01*
X38431Y-12984D01*
X38593Y-12822D01*
X38681Y-12611D01*
X38681Y-12382D01*
X38593Y-12170D01*
X38484Y-12061D01*
X38561Y-12029D01*
X38639Y-11952D01*
X38681Y-11850D01*
X38681Y-11816D01*
X38723Y-11752D01*
X38774Y-11496D01*
X38774Y-10846D01*
X38774Y-10846D01*
X38774Y-10846D01*
X38732Y-10632D01*
X38723Y-10589D01*
X38723Y-10589D01*
X38578Y-10372D01*
X38578Y-10372D01*
X38578Y-10372D01*
X37028Y-8822D01*
X36811Y-8677D01*
X36746Y-8664D01*
X36746Y-7437D01*
X36746Y-7280D01*
X36746Y-7255D01*
X36647Y-7157D01*
X36150Y-7157D01*
X36150Y-7654D01*
X36249Y-7752D01*
X36430Y-7752D01*
X36575Y-7692D01*
X36686Y-7582D01*
X36746Y-7437D01*
X36746Y-8664D01*
X36555Y-8626D01*
X36555Y-8626D01*
X29721Y-8626D01*
X29721Y-7949D01*
X29721Y-7949D01*
X29721Y-7949D01*
X29721Y-7949D01*
X29721Y-7752D01*
X29855Y-7752D01*
X29953Y-7654D01*
X29953Y-7157D01*
X29946Y-7157D01*
X29946Y-6960D01*
X29953Y-6960D01*
X29953Y-6952D01*
X30150Y-6952D01*
X30150Y-6960D01*
X30158Y-6960D01*
X30158Y-7157D01*
X30150Y-7157D01*
X30150Y-7654D01*
X30249Y-7752D01*
X30430Y-7752D01*
X30575Y-7692D01*
X30673Y-7595D01*
X30796Y-7677D01*
X31052Y-7728D01*
X31308Y-7677D01*
X31525Y-7532D01*
X31552Y-7492D01*
X31579Y-7532D01*
X31796Y-7677D01*
X32052Y-7728D01*
X32308Y-7677D01*
X32525Y-7532D01*
X32552Y-7492D01*
X32579Y-7532D01*
X32796Y-7677D01*
X33052Y-7728D01*
X33308Y-7677D01*
X33525Y-7532D01*
X33552Y-7492D01*
X33579Y-7532D01*
X33796Y-7677D01*
X34052Y-7728D01*
X34308Y-7677D01*
X34525Y-7532D01*
X34600Y-7420D01*
X34725Y-7546D01*
X34937Y-7634D01*
X35166Y-7634D01*
X35377Y-7547D01*
X35396Y-7528D01*
X35418Y-7582D01*
X35529Y-7692D01*
X35674Y-7752D01*
X35855Y-7752D01*
X35953Y-7654D01*
X35953Y-7157D01*
X35946Y-7157D01*
X35946Y-6960D01*
X35953Y-6960D01*
X35953Y-6952D01*
X36150Y-6952D01*
X36150Y-6960D01*
X36647Y-6960D01*
X36746Y-6862D01*
X36746Y-6837D01*
X36746Y-6680D01*
X36686Y-6536D01*
X36644Y-6494D01*
X39088Y-6494D01*
X39088Y-22521D01*
X38957Y-22375D01*
X38744Y-22274D01*
X38638Y-22350D01*
X38638Y-23030D01*
X38646Y-23030D01*
X38646Y-23227D01*
X38638Y-23227D01*
X38638Y-23908D01*
X38744Y-23983D01*
X38957Y-23882D01*
X39088Y-23736D01*
X39088Y-24871D01*
X39027Y-24785D01*
X38794Y-24637D01*
X38745Y-24634D01*
X38638Y-24709D01*
X38638Y-25390D01*
X38646Y-25390D01*
X38646Y-25587D01*
X38638Y-25587D01*
X38638Y-26268D01*
X38745Y-26343D01*
X38794Y-26340D01*
X39027Y-26192D01*
X39088Y-26106D01*
X39088Y-32864D01*
X39088Y-32864D01*
G37*
G54D36*
X39088Y-32864D02*
X38990Y-32627D01*
X38774Y-32411D01*
X38492Y-32294D01*
X38187Y-32294D01*
X38036Y-32356D01*
X38158Y-32234D01*
X38560Y-32234D01*
X38661Y-32192D01*
X38739Y-32115D01*
X38781Y-32013D01*
X38781Y-31904D01*
X38781Y-31304D01*
X38739Y-31202D01*
X38661Y-31125D01*
X38584Y-31093D01*
X38693Y-30985D01*
X38781Y-30774D01*
X38781Y-30545D01*
X38693Y-30333D01*
X38531Y-30171D01*
X38502Y-30159D01*
X38531Y-30147D01*
X38693Y-29985D01*
X38781Y-29774D01*
X38781Y-29545D01*
X38693Y-29333D01*
X38531Y-29171D01*
X38320Y-29083D01*
X38091Y-29083D01*
X37879Y-29170D01*
X37765Y-29285D01*
X37260Y-29285D01*
X37069Y-29094D01*
X37069Y-29094D01*
X36729Y-28754D01*
X36760Y-28741D01*
X36887Y-28614D01*
X36956Y-28449D01*
X36956Y-28269D01*
X36887Y-28104D01*
X36831Y-28047D01*
X36831Y-27416D01*
X36871Y-27515D01*
X36949Y-27592D01*
X37050Y-27634D01*
X37160Y-27634D01*
X37760Y-27634D01*
X37861Y-27592D01*
X37939Y-27515D01*
X37970Y-27438D01*
X38079Y-27546D01*
X38290Y-27634D01*
X38519Y-27634D01*
X38731Y-27547D01*
X38893Y-27385D01*
X38981Y-27174D01*
X38981Y-26945D01*
X38893Y-26733D01*
X38731Y-26571D01*
X38520Y-26483D01*
X38442Y-26483D01*
X38442Y-26268D01*
X38442Y-25587D01*
X38442Y-25390D01*
X38442Y-24709D01*
X38442Y-23908D01*
X38442Y-23227D01*
X38442Y-23030D01*
X38442Y-22350D01*
X38336Y-22274D01*
X38123Y-22375D01*
X38108Y-22391D01*
X38108Y-20762D01*
X38108Y-20323D01*
X37978Y-20056D01*
X37744Y-19853D01*
X37450Y-19755D01*
X37253Y-19755D01*
X37253Y-20444D01*
X38034Y-20444D01*
X38108Y-20323D01*
X38108Y-20762D01*
X38034Y-20641D01*
X37253Y-20641D01*
X37253Y-21330D01*
X37450Y-21330D01*
X37744Y-21233D01*
X37978Y-21030D01*
X38108Y-20762D01*
X38108Y-22391D01*
X37941Y-22577D01*
X37851Y-22833D01*
X37851Y-23030D01*
X38442Y-23030D01*
X38442Y-23227D01*
X37851Y-23227D01*
X37851Y-23424D01*
X37941Y-23680D01*
X38123Y-23882D01*
X38336Y-23983D01*
X38442Y-23908D01*
X38442Y-24709D01*
X38335Y-24634D01*
X38286Y-24637D01*
X38053Y-24785D01*
X37894Y-25010D01*
X37834Y-25279D01*
X37938Y-25390D01*
X38442Y-25390D01*
X38442Y-25587D01*
X37938Y-25587D01*
X37834Y-25698D01*
X37894Y-25967D01*
X38053Y-26192D01*
X38286Y-26340D01*
X38335Y-26343D01*
X38442Y-26268D01*
X38442Y-26483D01*
X38291Y-26483D01*
X38079Y-26570D01*
X37970Y-26679D01*
X37939Y-26602D01*
X37861Y-26525D01*
X37760Y-26483D01*
X37650Y-26483D01*
X37050Y-26483D01*
X36949Y-26525D01*
X36871Y-26602D01*
X36831Y-26701D01*
X36831Y-26293D01*
X36873Y-26251D01*
X36988Y-26228D01*
X37173Y-26104D01*
X37297Y-25919D01*
X37341Y-25701D01*
X37341Y-25277D01*
X37297Y-25058D01*
X37173Y-24873D01*
X37096Y-24821D01*
X37096Y-23796D01*
X37173Y-23744D01*
X37297Y-23559D01*
X37341Y-23341D01*
X37341Y-22917D01*
X37297Y-22698D01*
X37173Y-22513D01*
X37057Y-22435D01*
X37057Y-21330D01*
X37057Y-20641D01*
X37057Y-20444D01*
X37057Y-19755D01*
X36860Y-19755D01*
X36566Y-19853D01*
X36332Y-20056D01*
X36202Y-20323D01*
X36276Y-20444D01*
X37057Y-20444D01*
X37057Y-20641D01*
X36276Y-20641D01*
X36202Y-20762D01*
X36332Y-21030D01*
X36566Y-21233D01*
X36860Y-21330D01*
X37057Y-21330D01*
X37057Y-22435D01*
X36988Y-22389D01*
X36770Y-22346D01*
X36552Y-22389D01*
X36367Y-22513D01*
X36243Y-22698D01*
X36231Y-22756D01*
X36148Y-22700D01*
X36011Y-22673D01*
X34879Y-21541D01*
X34879Y-19229D01*
X35342Y-19229D01*
X35560Y-19186D01*
X35746Y-19062D01*
X36281Y-18526D01*
X36272Y-18574D01*
X36323Y-18830D01*
X36468Y-19048D01*
X36685Y-19193D01*
X36941Y-19244D01*
X37369Y-19244D01*
X37625Y-19193D01*
X37842Y-19048D01*
X37987Y-18830D01*
X38038Y-18574D01*
X38026Y-18511D01*
X38309Y-18228D01*
X38432Y-18043D01*
X38476Y-17824D01*
X38476Y-14432D01*
X38509Y-14399D01*
X38509Y-14399D01*
X38509Y-14399D01*
X38632Y-14214D01*
X38676Y-13996D01*
X38676Y-13622D01*
X38681Y-13611D01*
X38681Y-13382D01*
X38593Y-13170D01*
X38431Y-13008D01*
X38402Y-12996D01*
X38431Y-12984D01*
X38593Y-12822D01*
X38681Y-12611D01*
X38681Y-12382D01*
X38593Y-12170D01*
X38484Y-12061D01*
X38561Y-12029D01*
X38639Y-11952D01*
X38681Y-11850D01*
X38681Y-11816D01*
X38723Y-11752D01*
X38774Y-11496D01*
X38774Y-10846D01*
X38774Y-10846D01*
X38774Y-10846D01*
X38732Y-10632D01*
X38723Y-10589D01*
X38723Y-10589D01*
X38578Y-10372D01*
X38578Y-10372D01*
X38578Y-10372D01*
X37028Y-8822D01*
X36811Y-8677D01*
X36746Y-8664D01*
X36746Y-7437D01*
X36746Y-7280D01*
X36746Y-7255D01*
X36647Y-7157D01*
X36150Y-7157D01*
X36150Y-7654D01*
X36249Y-7752D01*
X36430Y-7752D01*
X36575Y-7692D01*
X36686Y-7582D01*
X36746Y-7437D01*
X36746Y-8664D01*
X36555Y-8626D01*
X36555Y-8626D01*
X29721Y-8626D01*
X29721Y-7949D01*
X29721Y-7949D01*
X29721Y-7949D01*
X29721Y-7949D01*
X29721Y-7752D01*
X29855Y-7752D01*
X29953Y-7654D01*
X29953Y-7157D01*
X29946Y-7157D01*
X29946Y-6960D01*
X29953Y-6960D01*
X29953Y-6952D01*
X30150Y-6952D01*
X30150Y-6960D01*
X30158Y-6960D01*
X30158Y-7157D01*
X30150Y-7157D01*
X30150Y-7654D01*
X30249Y-7752D01*
X30430Y-7752D01*
X30575Y-7692D01*
X30673Y-7595D01*
X30796Y-7677D01*
X31052Y-7728D01*
X31308Y-7677D01*
X31525Y-7532D01*
X31552Y-7492D01*
X31579Y-7532D01*
X31796Y-7677D01*
X32052Y-7728D01*
X32308Y-7677D01*
X32525Y-7532D01*
X32552Y-7492D01*
X32579Y-7532D01*
X32796Y-7677D01*
X33052Y-7728D01*
X33308Y-7677D01*
X33525Y-7532D01*
X33552Y-7492D01*
X33579Y-7532D01*
X33796Y-7677D01*
X34052Y-7728D01*
X34308Y-7677D01*
X34525Y-7532D01*
X34600Y-7420D01*
X34725Y-7546D01*
X34937Y-7634D01*
X35166Y-7634D01*
X35377Y-7547D01*
X35396Y-7528D01*
X35418Y-7582D01*
X35529Y-7692D01*
X35674Y-7752D01*
X35855Y-7752D01*
X35953Y-7654D01*
X35953Y-7157D01*
X35946Y-7157D01*
X35946Y-6960D01*
X35953Y-6960D01*
X35953Y-6952D01*
X36150Y-6952D01*
X36150Y-6960D01*
X36647Y-6960D01*
X36746Y-6862D01*
X36746Y-6837D01*
X36746Y-6680D01*
X36686Y-6536D01*
X36644Y-6494D01*
X39088Y-6494D01*
X39088Y-22521D01*
X38957Y-22375D01*
X38744Y-22274D01*
X38638Y-22350D01*
X38638Y-23030D01*
X38646Y-23030D01*
X38646Y-23227D01*
X38638Y-23227D01*
X38638Y-23908D01*
X38744Y-23983D01*
X38957Y-23882D01*
X39088Y-23736D01*
X39088Y-24871D01*
X39027Y-24785D01*
X38794Y-24637D01*
X38745Y-24634D01*
X38638Y-24709D01*
X38638Y-25390D01*
X38646Y-25390D01*
X38646Y-25587D01*
X38638Y-25587D01*
X38638Y-26268D01*
X38745Y-26343D01*
X38794Y-26340D01*
X39027Y-26192D01*
X39088Y-26106D01*
X39088Y-32864D01*
G54D10*
G36*
X39088Y-39072D02*
X38623Y-39072D01*
X38623Y-38653D01*
X37905Y-37935D01*
X37187Y-38653D01*
X37272Y-38835D01*
X37718Y-38998D01*
X38192Y-38978D01*
X38538Y-38835D01*
X38623Y-38653D01*
X38623Y-39072D01*
X36257Y-39072D01*
X36869Y-38460D01*
X36869Y-38460D01*
X36884Y-38438D01*
X37047Y-38514D01*
X37766Y-37796D01*
X37760Y-37790D01*
X37899Y-37651D01*
X37905Y-37656D01*
X38623Y-36938D01*
X38538Y-36756D01*
X38092Y-36593D01*
X37618Y-36613D01*
X37360Y-36720D01*
X37394Y-36685D01*
X37394Y-36685D01*
X37476Y-36564D01*
X37476Y-36564D01*
X37504Y-36421D01*
X37504Y-35355D01*
X37555Y-35478D01*
X37705Y-35525D01*
X38200Y-35030D01*
X38194Y-35024D01*
X38333Y-34885D01*
X38339Y-34890D01*
X38834Y-34395D01*
X38787Y-34245D01*
X38453Y-34134D01*
X38101Y-34158D01*
X37891Y-34245D01*
X37879Y-34284D01*
X37879Y-33687D01*
X37904Y-33712D01*
X38186Y-33829D01*
X38491Y-33829D01*
X38773Y-33713D01*
X38989Y-33497D01*
X39088Y-33259D01*
X39088Y-34571D01*
X38973Y-34534D01*
X38478Y-35030D01*
X38973Y-35525D01*
X39088Y-35489D01*
X39088Y-37516D01*
X39088Y-37509D01*
X38944Y-37162D01*
X38834Y-37111D01*
X38834Y-35664D01*
X38339Y-35169D01*
X37844Y-35664D01*
X37891Y-35814D01*
X38225Y-35925D01*
X38577Y-35901D01*
X38787Y-35814D01*
X38834Y-35664D01*
X38834Y-37111D01*
X38763Y-37077D01*
X38044Y-37796D01*
X38763Y-38514D01*
X38944Y-38429D01*
X39088Y-38036D01*
X39088Y-39072D01*
X39088Y-39072D01*
G37*
G54D36*
X39088Y-39072D02*
X38623Y-39072D01*
X38623Y-38653D01*
X37905Y-37935D01*
X37187Y-38653D01*
X37272Y-38835D01*
X37718Y-38998D01*
X38192Y-38978D01*
X38538Y-38835D01*
X38623Y-38653D01*
X38623Y-39072D01*
X36257Y-39072D01*
X36869Y-38460D01*
X36869Y-38460D01*
X36884Y-38438D01*
X37047Y-38514D01*
X37766Y-37796D01*
X37760Y-37790D01*
X37899Y-37651D01*
X37905Y-37656D01*
X38623Y-36938D01*
X38538Y-36756D01*
X38092Y-36593D01*
X37618Y-36613D01*
X37360Y-36720D01*
X37394Y-36685D01*
X37394Y-36685D01*
X37476Y-36564D01*
X37476Y-36564D01*
X37504Y-36421D01*
X37504Y-35355D01*
X37555Y-35478D01*
X37705Y-35525D01*
X38200Y-35030D01*
X38194Y-35024D01*
X38333Y-34885D01*
X38339Y-34890D01*
X38834Y-34395D01*
X38787Y-34245D01*
X38453Y-34134D01*
X38101Y-34158D01*
X37891Y-34245D01*
X37879Y-34284D01*
X37879Y-33687D01*
X37904Y-33712D01*
X38186Y-33829D01*
X38491Y-33829D01*
X38773Y-33713D01*
X38989Y-33497D01*
X39088Y-33259D01*
X39088Y-34571D01*
X38973Y-34534D01*
X38478Y-35030D01*
X38973Y-35525D01*
X39088Y-35489D01*
X39088Y-37516D01*
X39088Y-37509D01*
X38944Y-37162D01*
X38834Y-37111D01*
X38834Y-35664D01*
X38339Y-35169D01*
X37844Y-35664D01*
X37891Y-35814D01*
X38225Y-35925D01*
X38577Y-35901D01*
X38787Y-35814D01*
X38834Y-35664D01*
X38834Y-37111D01*
X38763Y-37077D01*
X38044Y-37796D01*
X38763Y-38514D01*
X38944Y-38429D01*
X39088Y-38036D01*
X39088Y-39072D01*
M02*
