G04 (created by PCBNEW (2013-mar-13)-testing) date wto, 15 kwi 2014, 21:51:24*
%MOIN*%
G04 Gerber Fmt 3.4, Leading zero omitted, Abs format*
%FSLAX34Y34*%
G01*
G70*
G90*
G04 APERTURE LIST*
%ADD10C,0.005906*%
%ADD11O,0.106274X0.066974*%
%ADD12C,0.067874*%
%ADD13C,0.114174*%
%ADD14R,0.067874X0.067874*%
%ADD15O,0.125984X0.086614*%
%ADD16C,0.167874*%
%ADD17C,0.063874*%
%ADD18O,0.066874X0.106274*%
%ADD19O,0.067874X0.106274*%
%ADD20O,0.107874X0.087874*%
%ADD21O,0.090551X0.090551*%
%ADD22C,0.090551*%
%ADD23C,0.106274*%
%ADD24R,0.125984X0.125984*%
%ADD25O,0.086614X0.125984*%
%ADD26R,0.106299X0.125984*%
G04 APERTURE END LIST*
G54D10*
G54D11*
X6905Y-29559D03*
X6905Y-30559D03*
X6905Y-28559D03*
X6905Y-24059D03*
X6905Y-25059D03*
X6905Y-23059D03*
X6905Y-18559D03*
X6905Y-19559D03*
X6905Y-17559D03*
G54D12*
X7905Y-35946D03*
X6905Y-35946D03*
X6905Y-36733D03*
X7905Y-36733D03*
G54D13*
X9767Y-37796D03*
X5043Y-37796D03*
G54D14*
X11461Y-7059D03*
G54D12*
X10461Y-7059D03*
X9461Y-7059D03*
X8461Y-7059D03*
X7461Y-7059D03*
X6461Y-7059D03*
G54D14*
X5461Y-7059D03*
G54D12*
X4461Y-7059D03*
X4461Y-12059D03*
X5461Y-12059D03*
X6461Y-12059D03*
X7461Y-12059D03*
X8461Y-12059D03*
X9461Y-12059D03*
X10461Y-12059D03*
X11461Y-12059D03*
G54D15*
X2705Y-16343D03*
X2705Y-14374D03*
X2705Y-18374D03*
X2705Y-20343D03*
X2705Y-26374D03*
X2705Y-28343D03*
X2705Y-30374D03*
X2705Y-32343D03*
X37155Y-18574D03*
X37155Y-20543D03*
G54D14*
X38205Y-31659D03*
G54D12*
X38205Y-30659D03*
X38205Y-29659D03*
G54D14*
X6355Y-34046D03*
G54D12*
X7355Y-34046D03*
X8355Y-34046D03*
X9355Y-34046D03*
X10355Y-34046D03*
G54D14*
X17405Y-36796D03*
G54D12*
X17405Y-37796D03*
X16405Y-36796D03*
X16405Y-37796D03*
X15405Y-36796D03*
X15405Y-37796D03*
X14405Y-36796D03*
X14405Y-37796D03*
X13405Y-36796D03*
X13405Y-37796D03*
G54D16*
X1574Y-1574D03*
X37795Y-1574D03*
X1574Y-37795D03*
X37905Y-37796D03*
G54D17*
X24698Y-28766D03*
X26112Y-27351D03*
G54D18*
X36770Y-25489D03*
G54D19*
X38540Y-25489D03*
G54D18*
X36770Y-23129D03*
X38540Y-23129D03*
G54D14*
X36052Y-7059D03*
G54D12*
X35052Y-7059D03*
X34052Y-7059D03*
X33052Y-7059D03*
X32052Y-7059D03*
X31052Y-7059D03*
G54D14*
X30052Y-7059D03*
G54D12*
X29052Y-7059D03*
X29052Y-12059D03*
X30052Y-12059D03*
X31052Y-12059D03*
X32052Y-12059D03*
X33052Y-12059D03*
X34052Y-12059D03*
X35052Y-12059D03*
X36052Y-12059D03*
G54D14*
X19658Y-7059D03*
G54D12*
X18658Y-7059D03*
X17658Y-7059D03*
X16658Y-7059D03*
X15658Y-7059D03*
X14658Y-7059D03*
G54D14*
X13658Y-7059D03*
G54D12*
X12658Y-7059D03*
X12658Y-12059D03*
X13658Y-12059D03*
X14658Y-12059D03*
X15658Y-12059D03*
X16658Y-12059D03*
X17658Y-12059D03*
X18658Y-12059D03*
X19658Y-12059D03*
G54D14*
X27855Y-7059D03*
G54D12*
X26855Y-7059D03*
X25855Y-7059D03*
X24855Y-7059D03*
X23855Y-7059D03*
X22855Y-7059D03*
G54D14*
X21855Y-7059D03*
G54D12*
X20855Y-7059D03*
X20855Y-12059D03*
X21855Y-12059D03*
X22855Y-12059D03*
X23855Y-12059D03*
X24855Y-12059D03*
X25855Y-12059D03*
X26855Y-12059D03*
X27855Y-12059D03*
G54D20*
X33205Y-19659D03*
X33205Y-20659D03*
X33205Y-18659D03*
G54D15*
X2705Y-24343D03*
X2705Y-22374D03*
G54D14*
X37405Y-27059D03*
G54D12*
X38405Y-27059D03*
G54D21*
X29805Y-10959D03*
G54D22*
X28805Y-10959D03*
G54D21*
X13805Y-10959D03*
G54D22*
X12805Y-10959D03*
G54D21*
X21805Y-10959D03*
G54D22*
X20805Y-10959D03*
G54D21*
X30805Y-10959D03*
G54D22*
X31805Y-10959D03*
G54D21*
X14805Y-10959D03*
G54D22*
X15805Y-10959D03*
G54D21*
X22805Y-10959D03*
G54D22*
X23805Y-10959D03*
G54D21*
X6805Y-10959D03*
G54D22*
X7805Y-10959D03*
G54D21*
X8805Y-10959D03*
G54D22*
X9805Y-10959D03*
G54D21*
X32805Y-10959D03*
G54D22*
X33805Y-10959D03*
G54D21*
X16805Y-10959D03*
G54D22*
X17805Y-10959D03*
G54D21*
X24805Y-10959D03*
G54D22*
X25805Y-10959D03*
G54D21*
X5805Y-10959D03*
G54D22*
X4805Y-10959D03*
G54D14*
X17405Y-17359D03*
G54D12*
X16405Y-17359D03*
X15405Y-17359D03*
X14405Y-17359D03*
X13405Y-17359D03*
G54D14*
X30905Y-23559D03*
G54D12*
X31905Y-23559D03*
X30905Y-24559D03*
X31905Y-24559D03*
X30905Y-25559D03*
X31905Y-25559D03*
X30905Y-26559D03*
X31905Y-26559D03*
X30905Y-27559D03*
X31905Y-27559D03*
X30905Y-28559D03*
X31905Y-28559D03*
X30905Y-29559D03*
X31905Y-29559D03*
X30905Y-30559D03*
X31905Y-30559D03*
G54D23*
X36371Y-34046D03*
X38339Y-33062D03*
X38339Y-35030D03*
G54D14*
X29855Y-19496D03*
G54D12*
X29855Y-20496D03*
X28855Y-19496D03*
X28855Y-20496D03*
X27855Y-19496D03*
X27855Y-20496D03*
X26855Y-19496D03*
X26855Y-20496D03*
G54D24*
X29448Y-1574D03*
G54D25*
X30826Y-1574D03*
X32204Y-1574D03*
X33582Y-1574D03*
X34960Y-1574D03*
G54D24*
X21456Y-1574D03*
G54D25*
X22834Y-1574D03*
X24212Y-1574D03*
X25590Y-1574D03*
X26968Y-1574D03*
G54D24*
X13385Y-1574D03*
G54D25*
X14763Y-1574D03*
X16141Y-1574D03*
X17519Y-1574D03*
X18897Y-1574D03*
G54D24*
X5275Y-1574D03*
G54D25*
X6653Y-1574D03*
X8031Y-1574D03*
X9409Y-1574D03*
X10787Y-1574D03*
G54D26*
X35554Y-37159D03*
G54D25*
X34176Y-37159D03*
G54D26*
X30054Y-37159D03*
G54D25*
X28676Y-37159D03*
G54D26*
X24534Y-37159D03*
G54D25*
X23156Y-37159D03*
G54D26*
X21794Y-37159D03*
G54D25*
X20416Y-37159D03*
G54D26*
X32794Y-37159D03*
G54D25*
X31416Y-37159D03*
G54D26*
X27294Y-37159D03*
G54D25*
X25916Y-37159D03*
G54D14*
X38105Y-11496D03*
G54D12*
X38105Y-12496D03*
X38105Y-13496D03*
M02*
