M48
;DRILL file {Pcbnew (2013-mar-13)-testing} date wto, 15 kwi 2014, 21:51:31
;FORMAT={-:-/ absolute / metric / decimal}
FMAT,2
METRIC,TZ
T1C0.381
T2C0.500
T3C0.762
T4C0.813
T5C0.998
T6C1.001
T7C1.016
T8C1.143
T9C1.199
T10C1.400
T11C2.301
T12C3.048
%
G90
G05
M71
T1
X48.02Y-63.65
X50.56Y-56.03
X50.56Y-61.11
X50.56Y-66.19
X53.1Y-53.49
X53.1Y-58.57
X53.1Y-63.65
X53.1Y-68.73
X55.64Y-56.03
X55.64Y-61.11
X55.64Y-66.19
X58.18Y-58.57
X58.18Y-63.65
X60.72Y-61.11
T2
X8.65Y-89.525
X15.254Y-82.667
X21.223Y-80.127
X25.922Y-41.806
X28.208Y-74.158
X28.335Y-46.853
X28.97Y-36.726
X29.097Y-27.836
X29.224Y-42.06
X29.605Y-91.176
X29.986Y-56.792
X31.256Y-59.934
X31.256Y-68.189
X32.018Y-43.584
X32.145Y-40.028
X32.653Y-36.726
X35.066Y-48.41
X35.32Y-52.474
X35.701Y-50.696
X35.828Y-49.426
X35.955Y-60.696
X35.955Y-79.873
X36.59Y-36.726
X37.352Y-53.744
X38.368Y-52.728
X39.892Y-51.204
X40.146Y-84.986
X40.883Y-73.752
X40.908Y-72.032
X41.67Y-38.504
X42.178Y-75.842
X42.432Y-80.922
X42.686Y-78.636
X42.94Y-81.938
X43.194Y-57.808
X43.448Y-75.842
X44.718Y-76.35
X46.242Y-49.934
X46.369Y-72.794
X46.496Y-44.854
X47.258Y-50.696
X47.385Y-71.905
X48.02Y-86.604
X48.782Y-51.458
X48.782Y-80.414
X49.036Y-77.874
X49.29Y-27.963
X51.322Y-73.556
X52.084Y-41.298
X52.084Y-44.6
X53.1Y-77.874
X53.481Y-76.731
X54.497Y-76.731
X54.751Y-89.525
X55.132Y-41.298
X55.132Y-44.6
X55.64Y-49.68
X55.64Y-74.826
X56.656Y-36.726
X59.704Y-53.236
X61.99Y-54.506
X61.99Y-77.112
X62.625Y-50.823
X62.752Y-52.093
X62.752Y-53.49
X64.276Y-86.731
X65.038Y-61.11
X65.292Y-88.89
X65.8Y-59.586
X66.054Y-79.398
X67.07Y-58.697
X67.451Y-85.207
X68.34Y-58.062
X69.483Y-27.709
X70.499Y-41.171
X71.134Y-74.318
X71.769Y-59.68
X72.404Y-85.207
X72.658Y-45.265
X72.912Y-38.123
X73.039Y-64.506
X73.039Y-65.903
X73.42Y-88.89
X75.198Y-67.714
X75.198Y-69.238
X75.452Y-70.762
X76.976Y-36.98
X79.77Y-88.128
X80.024Y-85.461
X82.818Y-79.652
X85.104Y-82.7
X85.358Y-78.89
X86.755Y-85.588
X86.755Y-88.255
X87.136Y-81.651
X89.676Y-59.332
X89.676Y-63.142
X89.93Y-74.826
X90.184Y-66.952
X90.184Y-68.73
X90.692Y-71.778
X92.724Y-72.032
T3
X62.734Y-73.066
X66.326Y-69.474
T4
X11.333Y-17.93
X11.333Y-30.63
X13.873Y-17.93
X13.873Y-30.63
X16.413Y-17.93
X16.413Y-30.63
X17.54Y-91.303
X17.54Y-93.302
X18.953Y-17.93
X18.953Y-30.63
X20.08Y-91.303
X20.08Y-93.302
X21.493Y-17.93
X21.493Y-30.63
X24.033Y-17.93
X24.033Y-30.63
X26.573Y-17.93
X26.573Y-30.63
X29.113Y-17.93
X29.113Y-30.63
X32.153Y-17.93
X32.153Y-30.63
X34.693Y-17.93
X34.693Y-30.63
X37.233Y-17.93
X37.233Y-30.63
X39.773Y-17.93
X39.773Y-30.63
X42.313Y-17.93
X42.313Y-30.63
X44.853Y-17.93
X44.853Y-30.63
X47.393Y-17.93
X47.393Y-30.63
X49.933Y-17.93
X49.933Y-30.63
X52.973Y-17.93
X52.973Y-30.63
X55.513Y-17.93
X55.513Y-30.63
X58.053Y-17.93
X58.053Y-30.63
X60.593Y-17.93
X60.593Y-30.63
X63.133Y-17.93
X63.133Y-30.63
X65.673Y-17.93
X65.673Y-30.63
X68.213Y-17.93
X68.213Y-30.63
X70.753Y-17.93
X70.753Y-30.63
X73.793Y-17.93
X73.793Y-30.63
X76.333Y-17.93
X76.333Y-30.63
X78.873Y-17.93
X78.873Y-30.63
X81.413Y-17.93
X81.413Y-30.63
X83.953Y-17.93
X83.953Y-30.63
X86.493Y-17.93
X86.493Y-30.63
X89.033Y-17.93
X89.033Y-30.63
X91.573Y-17.93
X91.573Y-30.63
X97.893Y-58.748
T5
X93.397Y-58.748
X93.397Y-64.742
X97.893Y-64.742
T6
X17.54Y-44.6
X17.54Y-47.14
X17.54Y-49.68
X17.54Y-58.57
X17.54Y-61.11
X17.54Y-63.65
X17.54Y-72.54
X17.54Y-75.08
X17.54Y-77.62
T7
X12.206Y-27.836
X13.4Y-4.
X14.746Y-27.836
X16.143Y-86.477
X16.9Y-4.
X17.286Y-27.836
X18.683Y-86.477
X19.826Y-27.836
X20.4Y-4.
X21.223Y-86.477
X22.366Y-27.836
X23.763Y-86.477
X23.9Y-4.
X24.906Y-27.836
X26.303Y-86.477
X27.4Y-4.
X32.526Y-27.836
X34.Y-4.
X34.05Y-44.092
X34.05Y-93.462
X34.05Y-96.002
X35.066Y-27.836
X36.59Y-44.092
X36.59Y-93.462
X36.59Y-96.002
X37.5Y-4.
X37.606Y-27.836
X39.13Y-44.092
X39.13Y-93.462
X39.13Y-96.002
X40.146Y-27.836
X41.Y-4.
X41.67Y-44.092
X41.67Y-93.462
X41.67Y-96.002
X42.686Y-27.836
X44.21Y-44.092
X44.21Y-93.462
X44.21Y-96.002
X44.5Y-4.
X45.226Y-27.836
X48.Y-4.
X51.858Y-94.384
X52.846Y-27.836
X54.5Y-4.
X55.358Y-94.384
X55.386Y-27.836
X57.926Y-27.836
X58.Y-4.
X58.818Y-94.384
X60.466Y-27.836
X61.5Y-4.
X62.318Y-94.384
X63.006Y-27.836
X65.Y-4.
X65.546Y-27.836
X65.828Y-94.384
X68.213Y-49.52
X68.213Y-52.06
X68.5Y-4.
X69.328Y-94.384
X70.753Y-49.52
X70.753Y-52.06
X72.838Y-94.384
X73.166Y-27.836
X73.293Y-49.52
X73.293Y-52.06
X74.8Y-4.
X75.706Y-27.836
X75.833Y-49.52
X75.833Y-52.06
X76.338Y-94.384
X78.246Y-27.836
X78.3Y-4.
X78.5Y-59.84
X78.5Y-62.38
X78.5Y-64.92
X78.5Y-67.46
X78.5Y-70.
X78.5Y-72.54
X78.5Y-75.08
X78.5Y-77.62
X79.798Y-94.384
X80.786Y-27.836
X81.04Y-59.84
X81.04Y-62.38
X81.04Y-64.92
X81.04Y-67.46
X81.04Y-70.
X81.04Y-72.54
X81.04Y-75.08
X81.04Y-77.62
X81.8Y-4.
X83.298Y-94.384
X83.326Y-27.836
X85.3Y-4.
X85.866Y-27.836
X86.808Y-94.384
X88.8Y-4.
X90.308Y-94.384
X95.01Y-68.73
X96.788Y-29.2
X96.788Y-31.74
X96.788Y-34.28
X97.042Y-75.334
X97.042Y-77.874
X97.042Y-80.414
X97.55Y-68.73
T8
X84.342Y-47.394
X84.342Y-49.934
X84.342Y-52.474
T9
X92.383Y-86.477
X97.382Y-83.978
X97.382Y-88.976
T10
X6.872Y-36.512
X6.872Y-41.512
X6.872Y-46.672
X6.872Y-51.672
X6.872Y-56.832
X6.872Y-61.832
X6.872Y-66.992
X6.872Y-71.992
X6.872Y-77.152
X6.872Y-82.152
X94.375Y-47.18
X94.375Y-52.18
T11
X12.811Y-96.002
X24.809Y-96.002
T12
X4.Y-4.
X4.Y-96.
X96.Y-4.
X96.28Y-96.002
T0
M30
